Compagnon-Roman.ufo
<glyph name="exclam" format="2">
	<advance width="600"/>
	<unicode hex="0021"/>
	<note>
		exclam
	</note>
	<outline>
		<contour>
			<point x="312" y="139" type="line"/>
			<point x="282" y="139" type="line"/>
			<point x="262" y="528" type="line" smooth="yes"/>
			<point x="260" y="570"/>
			<point x="262" y="603"/>
			<point x="298" y="603" type="curve" smooth="yes"/>
			<point x="332" y="603"/>
			<point x="334" y="569"/>
			<point x="332" y="528" type="curve" smooth="yes"/>
		</contour>
		<contour>
			<point x="298" y="-13" type="curve" smooth="yes"/>
			<point x="326" y="-13"/>
			<point x="349" y="11"/>
			<point x="349" y="38" type="curve"/>
			<point x="349" y="65"/>
			<point x="326" y="89"/>
			<point x="298" y="89" type="curve" smooth="yes"/>
			<point x="270" y="89"/>
			<point x="246" y="65"/>
			<point x="246" y="38" type="curve" smooth="yes"/>
			<point x="246" y="11"/>
			<point x="270" y="-13"/>
		</contour>
	</outline>
</glyph>
<glyph name="numbersign" format="2">
	<advance width="600"/>
	<unicode hex="0023"/>
	<note>
		numbersign
	</note>
	<outline>
		<contour>
			<point x="456" y="362" type="line"/>
			<point x="571" y="362" type="line"/>
			<point x="571" y="412" type="line"/>
			<point x="470" y="412" type="line"/>
			<point x="514" y="581" type="line"/>
			<point x="464" y="581" type="line"/>
			<point x="420" y="412" type="line"/>
			<point x="292" y="412" type="line"/>
			<point x="336" y="581" type="line"/>
			<point x="286" y="581" type="line"/>
			<point x="242" y="412" type="line"/>
			<point x="110" y="412" type="line"/>
			<point x="110" y="362" type="line"/>
			<point x="228" y="362" type="line"/>
			<point x="197" y="244" type="line"/>
			<point x="70" y="244" type="line"/>
			<point x="70" y="194" type="line"/>
			<point x="184" y="194" type="line"/>
			<point x="136" y="10" type="line"/>
			<point x="186" y="10" type="line"/>
			<point x="234" y="194" type="line"/>
			<point x="362" y="194" type="line"/>
			<point x="314" y="10" type="line"/>
			<point x="364" y="10" type="line"/>
			<point x="412" y="194" type="line"/>
			<point x="531" y="194" type="line"/>
			<point x="531" y="244" type="line"/>
			<point x="425" y="244" type="line"/>
		</contour>
		<contour>
			<point x="406" y="362" type="line"/>
			<point x="375" y="244" type="line"/>
			<point x="247" y="244" type="line"/>
			<point x="278" y="362" type="line"/>
		</contour>
	</outline>
</glyph>
<glyph name="dollar" format="2">
	<advance width="600"/>
	<unicode hex="0024"/>
	<note>
		dollar
	</note>
	<outline>
		<contour>
			<point x="535" y="169" type="curve" smooth="yes"/>
			<point x="535" y="283"/>
			<point x="419" y="296"/>
			<point x="335" y="310" type="curve" smooth="yes"/>
			<point x="329" y="311" type="line"/>
			<point x="329" y="502" type="line"/>
			<point x="399" y="497"/>
			<point x="452" y="475"/>
			<point x="461" y="442" type="curve"/>
			<point x="440" y="449"/>
			<point x="407" y="432"/>
			<point x="407" y="396" type="curve" smooth="yes"/>
			<point x="407" y="364"/>
			<point x="430" y="343"/>
			<point x="465" y="343" type="curve" smooth="yes"/>
			<point x="495" y="343"/>
			<point x="520" y="372"/>
			<point x="520" y="411" type="curve" smooth="yes"/>
			<point x="520" y="489"/>
			<point x="451" y="544"/>
			<point x="329" y="552" type="curve"/>
			<point x="329" y="603" type="line"/>
			<point x="279" y="603" type="line"/>
			<point x="279" y="553" type="line"/>
			<point x="161" y="547"/>
			<point x="85" y="486"/>
			<point x="85" y="414" type="curve" smooth="yes"/>
			<point x="85" y="339"/>
			<point x="125" y="295"/>
			<point x="249" y="273" type="curve" smooth="yes"/>
			<point x="279" y="268" type="line"/>
			<point x="279" y="88" type="line"/>
			<point x="207" y="94"/>
			<point x="146" y="116"/>
			<point x="128" y="152" type="curve"/>
			<point x="149" y="145"/>
			<point x="178" y="162"/>
			<point x="178" y="198" type="curve" smooth="yes"/>
			<point x="178" y="230"/>
			<point x="155" y="249"/>
			<point x="120" y="249" type="curve" smooth="yes"/>
			<point x="90" y="249"/>
			<point x="65" y="222"/>
			<point x="65" y="183" type="curve" smooth="yes"/>
			<point x="65" y="104"/>
			<point x="153" y="46"/>
			<point x="279" y="38" type="curve"/>
			<point x="279" y="-13" type="line"/>
			<point x="329" y="-13" type="line"/>
			<point x="329" y="37" type="line"/>
			<point x="446" y="42"/>
			<point x="535" y="91"/>
		</contour>
		<contour>
			<point x="279" y="319" type="line"/>
			<point x="251" y="324" type="line" smooth="yes"/>
			<point x="167" y="338"/>
			<point x="135" y="365"/>
			<point x="135" y="413" type="curve" smooth="yes"/>
			<point x="135" y="461"/>
			<point x="198" y="498"/>
			<point x="279" y="502" type="curve"/>
		</contour>
		<contour>
			<point x="485" y="169" type="curve" smooth="yes"/>
			<point x="484" y="119"/>
			<point x="413" y="90"/>
			<point x="329" y="87" type="curve"/>
			<point x="329" y="259" type="line"/>
			<point x="396" y="247"/>
			<point x="486" y="250"/>
		</contour>
	</outline>
</glyph>
<glyph name="percent" format="2">
	<advance width="600"/>
	<unicode hex="0025"/>
	<note>
		percent
	</note>
	<outline>
		<contour>
			<point x="165" y="286" type="curve" smooth="yes"/>
			<point x="231" y="286"/>
			<point x="283" y="348"/>
			<point x="283" y="445" type="curve" smooth="yes"/>
			<point x="283" y="541"/>
			<point x="231" y="603"/>
			<point x="165" y="603" type="curve" smooth="yes"/>
			<point x="98" y="603"/>
			<point x="46" y="541"/>
			<point x="46" y="445" type="curve" smooth="yes"/>
			<point x="46" y="348"/>
			<point x="98" y="286"/>
		</contour>
		<contour>
			<point x="165" y="336" type="curve" smooth="yes"/>
			<point x="126" y="336"/>
			<point x="95" y="377"/>
			<point x="95" y="443" type="curve" smooth="yes"/>
			<point x="95" y="512"/>
			<point x="126" y="553"/>
			<point x="165" y="553" type="curve" smooth="yes"/>
			<point x="204" y="553"/>
			<point x="233" y="512"/>
			<point x="233" y="443" type="curve" smooth="yes"/>
			<point x="233" y="377"/>
			<point x="204" y="336"/>
		</contour>
		<contour>
			<point x="438" y="-13" type="curve" smooth="yes"/>
			<point x="504" y="-13"/>
			<point x="556" y="49"/>
			<point x="556" y="146" type="curve" smooth="yes"/>
			<point x="556" y="242"/>
			<point x="504" y="304"/>
			<point x="438" y="304" type="curve" smooth="yes"/>
			<point x="371" y="304"/>
			<point x="319" y="242"/>
			<point x="319" y="146" type="curve" smooth="yes"/>
			<point x="319" y="49"/>
			<point x="371" y="-13"/>
		</contour>
		<contour>
			<point x="438" y="37" type="curve" smooth="yes"/>
			<point x="399" y="37"/>
			<point x="368" y="78"/>
			<point x="368" y="144" type="curve" smooth="yes"/>
			<point x="368" y="213"/>
			<point x="399" y="254"/>
			<point x="438" y="254" type="curve" smooth="yes"/>
			<point x="477" y="254"/>
			<point x="506" y="213"/>
			<point x="506" y="144" type="curve" smooth="yes"/>
			<point x="506" y="78"/>
			<point x="487" y="37"/>
		</contour>
		<contour>
			<point x="70" y="15" type="line"/>
			<point x="108" y="-15" type="line"/>
			<point x="527" y="573" type="line"/>
			<point x="490" y="603" type="line"/>
			<point x="478.171" y="586.439" type="line"/>
			<point x="439" y="537"/>
			<point x="385" y="505"/>
			<point x="348" y="505" type="curve" smooth="yes"/>
			<point x="313" y="505"/>
			<point x="260" y="547"/>
			<point x="244" y="566" type="curve"/>
			<point x="272" y="497" type="line"/>
			<point x="285" y="472"/>
			<point x="319" y="459"/>
			<point x="348" y="459" type="curve" smooth="yes"/>
			<point x="370" y="459"/>
			<point x="387.932" y="469.371"/>
			<point x="404.975" y="483.964" type="curve"/>
		</contour>
	</outline>
</glyph>
<glyph name="quotesingle" format="2">
	<advance width="600"/>
	<unicode hex="0027"/>
	<note>
		quotesingle
	</note>
	<outline>
		<contour>
			<point x="191" y="400" type="curve" smooth="yes"/>
			<point x="241" y="400"/>
			<point x="270" y="438"/>
			<point x="270" y="479" type="curve" smooth="yes"/>
			<point x="270" y="501"/>
			<point x="263" y="522"/>
			<point x="254" y="532" type="curve"/>
			<point x="274" y="522"/>
			<point x="295" y="493"/>
			<point x="295" y="443" type="curve" smooth="yes"/>
			<point x="295" y="356"/>
			<point x="230" y="302"/>
			<point x="144" y="293" type="curve"/>
			<point x="158" y="244" type="line"/>
			<point x="244" y="253"/>
			<point x="342" y="322"/>
			<point x="342" y="443" type="curve" smooth="yes"/>
			<point x="342" y="543"/>
			<point x="277" y="603"/>
			<point x="206" y="603" type="curve" smooth="yes"/>
			<point x="150" y="603"/>
			<point x="93" y="566"/>
			<point x="93" y="501" type="curve" smooth="yes"/>
			<point x="93" y="443"/>
			<point x="135" y="400"/>
		</contour>
	</outline>
</glyph>
<glyph name="parenleft" format="2">
	<advance width="600"/>
	<unicode hex="0028"/>
	<note>
		parenleft
	</note>
	<outline>
		<contour>
			<point x="232" y="247" type="curve" smooth="yes"/>
			<point x="232" y="55"/>
			<point x="367" y="-66"/>
			<point x="496" y="-109" type="curve"/>
			<point x="512" y="-65" type="line"/>
			<point x="403" y="-33"/>
			<point x="282" y="87"/>
			<point x="282" y="247" type="curve" smooth="yes"/>
			<point x="282" y="407"/>
			<point x="403" y="527"/>
			<point x="512" y="559" type="curve"/>
			<point x="496" y="603" type="line"/>
			<point x="367" y="560"/>
			<point x="232" y="439"/>
		</contour>
	</outline>
</glyph>
<glyph name="parenright" format="2">
	<advance width="600"/>
	<unicode hex="0029"/>
	<note>
		parenright
	</note>
	<outline>
		<contour>
			<point x="368" y="247" type="curve" smooth="yes"/>
			<point x="368" y="439"/>
			<point x="233" y="560"/>
			<point x="104" y="603" type="curve"/>
			<point x="88" y="559" type="line"/>
			<point x="197" y="527"/>
			<point x="318" y="407"/>
			<point x="318" y="247" type="curve" smooth="yes"/>
			<point x="318" y="87"/>
			<point x="197" y="-33"/>
			<point x="88" y="-65" type="curve"/>
			<point x="104" y="-109" type="line"/>
			<point x="233" y="-66"/>
			<point x="368" y="55"/>
		</contour>
	</outline>
</glyph>
<glyph name="asterisk" format="2">
	<advance width="600"/>
	<unicode hex="002A"/>
	<note>
		asterisk
	</note>
	<outline>
		<contour>
			<point x="294" y="450" type="curve"/>
			<point x="300" y="453"/>
			<point x="287" y="542"/>
			<point x="273" y="567" type="curve" smooth="yes"/>
			<point x="261" y="588"/>
			<point x="237" y="598"/>
			<point x="215" y="586" type="curve" smooth="yes"/>
			<point x="193" y="574"/>
			<point x="190" y="547"/>
			<point x="202" y="525" type="curve" smooth="yes"/>
			<point x="215" y="500"/>
			<point x="285" y="446"/>
		</contour>
		<contour>
			<point x="307" y="449" type="curve" smooth="yes"/>
			<point x="314" y="445"/>
			<point x="385" y="500"/>
			<point x="399" y="525" type="curve" smooth="yes"/>
			<point x="410" y="545"/>
			<point x="408" y="571"/>
			<point x="385" y="585" type="curve" smooth="yes"/>
			<point x="364" y="598"/>
			<point x="339" y="588"/>
			<point x="326" y="566" type="curve" smooth="yes"/>
			<point x="312" y="543"/>
			<point x="300" y="453"/>
		</contour>
		<contour>
			<point x="287" y="437" type="curve" smooth="yes"/>
			<point x="287" y="444"/>
			<point x="203" y="478"/>
			<point x="175" y="478" type="curve" smooth="yes"/>
			<point x="150" y="478"/>
			<point x="130" y="462"/>
			<point x="130" y="437" type="curve" smooth="yes"/>
			<point x="130" y="411"/>
			<point x="150" y="395"/>
			<point x="175" y="395" type="curve" smooth="yes"/>
			<point x="203" y="395"/>
			<point x="287" y="428"/>
		</contour>
		<contour>
			<point x="314" y="437" type="curve" smooth="yes"/>
			<point x="314" y="428"/>
			<point x="398" y="395"/>
			<point x="426" y="395" type="curve" smooth="yes"/>
			<point x="451" y="395"/>
			<point x="471" y="411"/>
			<point x="471" y="437" type="curve" smooth="yes"/>
			<point x="471" y="462"/>
			<point x="451" y="478"/>
			<point x="426" y="478" type="curve" smooth="yes"/>
			<point x="398" y="478"/>
			<point x="314" y="444"/>
		</contour>
		<contour>
			<point x="293" y="424" type="curve" smooth="yes"/>
			<point x="286" y="429"/>
			<point x="215" y="373"/>
			<point x="200" y="348" type="curve" smooth="yes"/>
			<point x="188" y="328"/>
			<point x="191" y="299"/>
			<point x="213" y="288" type="curve" smooth="yes"/>
			<point x="238" y="275"/>
			<point x="262" y="285"/>
			<point x="273" y="307" type="curve" smooth="yes"/>
			<point x="286" y="333"/>
			<point x="300" y="419"/>
		</contour>
		<contour>
			<point x="309" y="424" type="curve" smooth="yes"/>
			<point x="301" y="419"/>
			<point x="314" y="330"/>
			<point x="328" y="305" type="curve" smooth="yes"/>
			<point x="340" y="284"/>
			<point x="364" y="275"/>
			<point x="388" y="288" type="curve" smooth="yes"/>
			<point x="410" y="300"/>
			<point x="413" y="326"/>
			<point x="399" y="348" type="curve" smooth="yes"/>
			<point x="385" y="370"/>
			<point x="314" y="427"/>
		</contour>
	</outline>
</glyph>
<glyph name="plus" format="2">
	<advance width="600"/>
	<unicode hex="002B"/>
	<guideline x="241" y="240" angle="0"/>
	<note>
		plus
	</note>
	<outline>
		<contour>
			<point x="87" y="240" type="line"/>
			<point x="87" y="190" type="line"/>
			<point x="277" y="190" type="line"/>
			<point x="277" y="0" type="line"/>
			<point x="327" y="0" type="line"/>
			<point x="327" y="190" type="line"/>
			<point x="517" y="190" type="line"/>
			<point x="517" y="240" type="line"/>
			<point x="327" y="240" type="line"/>
			<point x="327" y="430" type="line"/>
			<point x="277" y="430" type="line"/>
			<point x="277" y="240" type="line"/>
		</contour>
	</outline>
</glyph>
<glyph name="comma" format="2">
	<advance width="600"/>
	<unicode hex="002C"/>
	<guideline x="136" y="117" angle="0"/>
	<note>
		comma
	</note>
	<outline>
		<contour>
			<point x="271" y="-13" type="curve" smooth="yes"/>
			<point x="321" y="-13"/>
			<point x="350" y="25"/>
			<point x="350" y="66" type="curve" smooth="yes"/>
			<point x="350" y="88"/>
			<point x="343" y="109"/>
			<point x="334" y="119" type="curve"/>
			<point x="354" y="109"/>
			<point x="375" y="80"/>
			<point x="375" y="30" type="curve" smooth="yes"/>
			<point x="375" y="-57"/>
			<point x="310" y="-111"/>
			<point x="224" y="-120" type="curve"/>
			<point x="238" y="-169" type="line"/>
			<point x="324" y="-160"/>
			<point x="422" y="-91"/>
			<point x="422" y="30" type="curve" smooth="yes"/>
			<point x="422" y="130"/>
			<point x="357" y="190"/>
			<point x="286" y="190" type="curve" smooth="yes"/>
			<point x="230" y="190"/>
			<point x="173" y="153"/>
			<point x="173" y="88" type="curve" smooth="yes"/>
			<point x="173" y="30"/>
			<point x="215" y="-13"/>
		</contour>
	</outline>
</glyph>
<glyph name="hyphen" format="2">
	<advance width="600"/>
	<unicode hex="002D"/>
	<note>
		hyphen
	</note>
	<outline>
		<contour>
			<point x="87" y="240" type="line"/>
			<point x="87" y="190" type="line"/>
			<point x="517" y="190" type="line"/>
			<point x="517" y="240" type="line"/>
		</contour>
	</outline>
</glyph>
<glyph name="period" format="2">
	<advance width="600"/>
	<unicode hex="002E"/>
	<note>
		period
	</note>
	<outline>
		<contour>
			<point x="295" y="-13" type="curve" smooth="yes"/>
			<point x="349" y="-13"/>
			<point x="393" y="34"/>
			<point x="393" y="86" type="curve" smooth="yes"/>
			<point x="393" y="139"/>
			<point x="349" y="185"/>
			<point x="295" y="185" type="curve" smooth="yes"/>
			<point x="240" y="185"/>
			<point x="193" y="139"/>
			<point x="193" y="86" type="curve" smooth="yes"/>
			<point x="193" y="34"/>
			<point x="240" y="-13"/>
		</contour>
	</outline>
</glyph>
<glyph name="two" format="2">
	<advance width="600"/>
	<unicode hex="0032"/>
	<note>
		two
	</note>
	<outline>
		<contour>
			<point x="114" y="-5" type="curve"/>
			<point x="67" y="2" type="line"/>
			<point x="67" y="146"/>
			<point x="98" y="208"/>
			<point x="229" y="266" type="curve" smooth="yes"/>
			<point x="324" y="308" type="line" smooth="yes"/>
			<point x="388" y="336"/>
			<point x="457" y="357"/>
			<point x="457" y="440" type="curve" smooth="yes"/>
			<point x="457" y="522"/>
			<point x="368" y="553"/>
			<point x="299" y="553" type="curve" smooth="yes"/>
			<point x="223" y="553"/>
			<point x="157" y="514"/>
			<point x="136" y="460" type="curve"/>
			<point x="165" y="475"/>
			<point x="204" y="457"/>
			<point x="204" y="414" type="curve" smooth="yes"/>
			<point x="204" y="386"/>
			<point x="185" y="358"/>
			<point x="149" y="358" type="curve" smooth="yes"/>
			<point x="115" y="358"/>
			<point x="81" y="389"/>
			<point x="81" y="439" type="curve" smooth="yes"/>
			<point x="81" y="537"/>
			<point x="192" y="603"/>
			<point x="299" y="603" type="curve" smooth="yes"/>
			<point x="398" y="603"/>
			<point x="507" y="555"/>
			<point x="507" y="440" type="curve" smooth="yes"/>
			<point x="507" y="329"/>
			<point x="439" y="302"/>
			<point x="361" y="269" type="curve" smooth="yes"/>
			<point x="259" y="226" type="line" smooth="yes"/>
			<point x="175" y="190"/>
			<point x="119" y="145"/>
			<point x="119" y="57" type="curve"/>
			<point x="137" y="84"/>
			<point x="183" y="96"/>
			<point x="218" y="96" type="curve" smooth="yes"/>
			<point x="285" y="96"/>
			<point x="360" y="37"/>
			<point x="417" y="37" type="curve" smooth="yes"/>
			<point x="500" y="37"/>
			<point x="505" y="125"/>
			<point x="499" y="186" type="curve"/>
			<point x="550" y="180" type="line"/>
			<point x="555" y="53"/>
			<point x="517" y="-13"/>
			<point x="417" y="-13" type="curve" smooth="yes"/>
			<point x="338" y="-13"/>
			<point x="279" y="46"/>
			<point x="218" y="46" type="curve" smooth="yes"/>
			<point x="178" y="46"/>
			<point x="139" y="25"/>
		</contour>
	</outline>
</glyph>
<glyph name="three" format="2">
	<advance width="600"/>
	<unicode hex="0033"/>
	<note>
		three
	</note>
	<outline>
		<contour>
			<point x="72" y="157" type="curve" smooth="yes"/>
			<point x="72" y="203"/>
			<point x="105" y="227"/>
			<point x="132" y="227" type="curve" smooth="yes"/>
			<point x="162" y="227"/>
			<point x="185" y="207"/>
			<point x="185" y="179" type="curve" smooth="yes"/>
			<point x="185" y="150"/>
			<point x="158" y="126"/>
			<point x="128" y="137" type="curve"/>
			<point x="128" y="97"/>
			<point x="186" y="37"/>
			<point x="290" y="37" type="curve" smooth="yes"/>
			<point x="383" y="37"/>
			<point x="462" y="95"/>
			<point x="462" y="190" type="curve" smooth="yes"/>
			<point x="462" y="275"/>
			<point x="389" y="328"/>
			<point x="306" y="338" type="curve"/>
			<point x="276" y="307" type="line"/>
			<point x="236" y="337" type="line"/>
			<point x="431" y="540" type="line"/>
			<point x="164" y="540" type="line"/>
			<point x="129" y="394" type="line"/>
			<point x="77" y="399" type="line"/>
			<point x="121" y="590" type="line"/>
			<point x="499" y="590" type="line"/>
			<point x="499" y="540" type="line"/>
			<point x="344" y="378" type="line"/>
			<point x="436" y="363"/>
			<point x="512" y="287"/>
			<point x="512" y="190" type="curve" smooth="yes"/>
			<point x="512" y="58"/>
			<point x="400" y="-13"/>
			<point x="289" y="-13" type="curve" smooth="yes"/>
			<point x="168" y="-13"/>
			<point x="72" y="52"/>
		</contour>
	</outline>
</glyph>
<glyph name="eight" format="2">
	<advance width="600"/>
	<unicode hex="0038"/>
	<note>
		eight
	</note>
	<outline>
		<contour>
			<point x="76" y="171" type="curve" smooth="yes"/>
			<point x="76" y="68"/>
			<point x="176" y="-13"/>
			<point x="300" y="-13" type="curve" smooth="yes"/>
			<point x="423" y="-13"/>
			<point x="523" y="68"/>
			<point x="523" y="171" type="curve" smooth="yes"/>
			<point x="523" y="238"/>
			<point x="482" y="294"/>
			<point x="422" y="326" type="curve"/>
			<point x="470" y="356"/>
			<point x="494" y="402"/>
			<point x="494" y="449" type="curve" smooth="yes"/>
			<point x="494" y="533"/>
			<point x="414" y="603"/>
			<point x="301" y="603" type="curve" smooth="yes"/>
			<point x="187" y="603"/>
			<point x="107" y="533"/>
			<point x="107" y="449" type="curve" smooth="yes"/>
			<point x="107" y="385"/>
			<point x="131" y="352"/>
			<point x="178" y="326" type="curve"/>
			<point x="117" y="294"/>
			<point x="76" y="237"/>
		</contour>
		<contour>
			<point x="155" y="449" type="curve" smooth="yes"/>
			<point x="155" y="505"/>
			<point x="213" y="554"/>
			<point x="299" y="553" type="curve" smooth="yes"/>
			<point x="385" y="553"/>
			<point x="444" y="505"/>
			<point x="443" y="449" type="curve" smooth="yes"/>
			<point x="442" y="392"/>
			<point x="385" y="346"/>
			<point x="299" y="346" type="curve" smooth="yes"/>
			<point x="213" y="346"/>
			<point x="155" y="392"/>
		</contour>
		<contour>
			<point x="126" y="169" type="curve" smooth="yes"/>
			<point x="126" y="246"/>
			<point x="203" y="307"/>
			<point x="299" y="306" type="curve" smooth="yes"/>
			<point x="395" y="305"/>
			<point x="473" y="246"/>
			<point x="472" y="169" type="curve" smooth="yes"/>
			<point x="471" y="93"/>
			<point x="395" y="37"/>
			<point x="299" y="37" type="curve" smooth="yes"/>
			<point x="203" y="37"/>
			<point x="126" y="93"/>
		</contour>
	</outline>
</glyph>
<glyph name="less" format="2">
	<advance width="600"/>
	<unicode hex="003C"/>
	<note>
		less
	</note>
	<outline>
		<contour>
			<point x="494" y="32" type="line"/>
			<point x="105" y="232" type="line"/>
			<point x="494" y="432" type="line"/>
			<point x="471" y="477" type="line"/>
			<point x="62" y="267" type="line"/>
			<point x="62" y="197" type="line"/>
			<point x="471" y="-13" type="line"/>
		</contour>
	</outline>
</glyph>
<glyph name="equal" format="2">
	<advance width="600"/>
	<unicode hex="003D"/>
	<note>
		equal
	</note>
	<outline>
		<contour>
			<point x="531" y="332" type="line"/>
			<point x="70" y="332" type="line"/>
			<point x="70" y="282" type="line"/>
			<point x="531" y="282" type="line"/>
		</contour>
		<contour>
			<point x="531" y="148" type="line"/>
			<point x="70" y="148" type="line"/>
			<point x="70" y="98" type="line"/>
			<point x="531" y="98" type="line"/>
		</contour>
	</outline>
</glyph>
<glyph name="greater" format="2">
	<advance width="600"/>
	<unicode hex="003E"/>
	<note>
		greater
	</note>
	<outline>
		<contour>
			<point x="89" y="432" type="line"/>
			<point x="478" y="232" type="line"/>
			<point x="89" y="32" type="line"/>
			<point x="112" y="-13" type="line"/>
			<point x="521" y="197" type="line"/>
			<point x="521" y="267" type="line"/>
			<point x="112" y="477" type="line"/>
		</contour>
	</outline>
</glyph>
<glyph name="at" format="2">
	<advance width="600"/>
	<unicode hex="0040"/>
	<note>
		at
	</note>
	<outline>
		<contour>
			<point x="329" y="532" type="curve" smooth="yes"/>
			<point x="150" y="532"/>
			<point x="30" y="416"/>
			<point x="30" y="222" type="curve" smooth="yes"/>
			<point x="30" y="8"/>
			<point x="149" y="-93"/>
			<point x="308" y="-93" type="curve" smooth="yes"/>
			<point x="363" y="-93"/>
			<point x="449" y="-75"/>
			<point x="489" y="-49" type="curve"/>
			<point x="465" y="-4" type="line"/>
			<point x="419" y="-31"/>
			<point x="354" y="-43"/>
			<point x="309" y="-43" type="curve" smooth="yes"/>
			<point x="172" y="-43"/>
			<point x="80" y="54"/>
			<point x="80" y="224" type="curve" smooth="yes"/>
			<point x="80" y="394"/>
			<point x="185" y="482"/>
			<point x="329" y="482" type="curve" smooth="yes"/>
			<point x="377" y="482"/>
			<point x="444" y="470"/>
			<point x="444" y="401" type="curve" smooth="yes"/>
			<point x="444" y="358"/>
			<point x="403" y="351"/>
			<point x="344" y="349" type="curve" smooth="yes"/>
			<point x="271" y="346"/>
			<point x="187" y="303"/>
			<point x="187" y="206" type="curve" smooth="yes"/>
			<point x="187" y="113"/>
			<point x="261" y="77"/>
			<point x="308" y="77" type="curve" smooth="yes"/>
			<point x="368" y="77"/>
			<point x="404" y="98"/>
			<point x="445" y="155" type="curve"/>
			<point x="444" y="91"/>
			<point x="474" y="77"/>
			<point x="510" y="77" type="curve" smooth="yes"/>
			<point x="549" y="77"/>
			<point x="574" y="107"/>
			<point x="585" y="131" type="curve" smooth="yes"/>
			<point x="598" y="160" type="line"/>
			<point x="552" y="179" type="line"/>
			<point x="537" y="144"/>
			<point x="529" y="127"/>
			<point x="513" y="127" type="curve" smooth="yes"/>
			<point x="501" y="127"/>
			<point x="495" y="135"/>
			<point x="495" y="162" type="curve" smooth="yes"/>
			<point x="495" y="405" type="line" smooth="yes"/>
			<point x="495" y="499"/>
			<point x="409" y="532"/>
		</contour>
		<contour>
			<point x="237" y="207" type="curve" smooth="yes"/>
			<point x="237" y="267"/>
			<point x="291" y="297"/>
			<point x="343" y="299" type="curve" smooth="yes"/>
			<point x="391" y="301"/>
			<point x="416" y="303"/>
			<point x="445" y="318" type="curve"/>
			<point x="445" y="217" type="line"/>
			<point x="395" y="152"/>
			<point x="362" y="129"/>
			<point x="309" y="127" type="curve" smooth="yes"/>
			<point x="275" y="126"/>
			<point x="237" y="151"/>
		</contour>
	</outline>
</glyph>
<glyph name="D" format="2">
	<advance width="600"/>
	<unicode hex="0044"/>
	<note>
		D
	</note>
	<outline>
		<contour>
			<point x="122" y="541" type="curve"/>
			<point x="122" y="50" type="line"/>
			<point x="38" y="50" type="line"/>
			<point x="38" y="0" type="line"/>
			<point x="139" y="0" type="line"/>
			<point x="297" y="-2" type="line" smooth="yes"/>
			<point x="442" y="-4"/>
			<point x="574" y="106"/>
			<point x="574" y="292" type="curve" smooth="yes"/>
			<point x="574" y="478"/>
			<point x="442" y="593"/>
			<point x="297" y="593" type="curve" smooth="yes"/>
			<point x="252" y="593"/>
			<point x="182" y="590"/>
			<point x="137" y="590" type="curve" smooth="yes"/>
			<point x="101" y="590"/>
			<point x="70" y="595"/>
			<point x="27" y="603" type="curve"/>
			<point x="15" y="555" type="line"/>
			<point x="50" y="548"/>
			<point x="89" y="543"/>
		</contour>
		<contour>
			<point x="172" y="50" type="curve"/>
			<point x="172" y="540" type="line"/>
			<point x="172" y="540"/>
			<point x="245" y="543"/>
			<point x="296" y="543" type="curve" smooth="yes"/>
			<point x="414" y="543"/>
			<point x="524" y="450"/>
			<point x="523" y="292" type="curve" smooth="yes"/>
			<point x="522" y="134"/>
			<point x="414" y="48"/>
			<point x="296" y="48" type="curve" smooth="yes"/>
			<point x="248" y="48"/>
			<point x="172" y="50"/>
		</contour>
	</outline>
</glyph>
<glyph name="E" format="2">
	<advance width="600"/>
	<unicode hex="0045"/>
	<guideline x="321" y="460" angle="0"/>
	<anchor x="330" y="590" name="top"/>
	<note>
		E
	</note>
	<outline>
		<contour>
			<point x="204" y="268" type="line"/>
			<point x="204" y="50" type="line"/>
			<point x="491" y="50" type="line"/>
			<point x="505" y="222" type="line"/>
			<point x="554" y="217" type="line"/>
			<point x="534" y="0" type="line"/>
			<point x="30" y="0" type="line"/>
			<point x="30" y="50" type="line"/>
			<point x="154" y="50" type="line"/>
			<point x="154" y="540" type="line"/>
			<point x="30" y="540" type="line"/>
			<point x="30" y="590" type="line"/>
			<point x="534" y="590" type="line"/>
			<point x="554" y="373" type="line"/>
			<point x="505" y="368" type="line"/>
			<point x="491" y="540" type="line"/>
			<point x="204" y="540" type="line"/>
			<point x="204" y="318" type="line"/>
			<point x="356" y="318" type="line"/>
			<point x="356" y="427" type="line"/>
			<point x="406" y="427" type="line"/>
			<point x="406" y="162" type="line"/>
			<point x="356" y="162" type="line"/>
			<point x="356" y="268" type="line"/>
		</contour>
	</outline>
</glyph>
<glyph name="G" format="2">
	<advance width="600"/>
	<unicode hex="0047"/>
	<note>
		G
	</note>
	<outline>
		<contour>
			<point x="454" y="469" type="curve"/>
			<point x="440" y="521"/>
			<point x="369" y="552"/>
			<point x="291" y="553" type="curve" smooth="yes"/>
			<point x="178" y="554"/>
			<point x="79" y="458"/>
			<point x="79" y="290" type="curve" smooth="yes"/>
			<point x="79" y="130"/>
			<point x="172" y="37"/>
			<point x="288" y="37" type="curve" smooth="yes"/>
			<point x="371" y="37"/>
			<point x="470" y="119"/>
			<point x="470" y="205" type="curve" smooth="yes"/>
			<point x="470" y="229" type="line"/>
			<point x="290" y="229" type="line"/>
			<point x="290" y="279" type="line"/>
			<point x="582" y="279" type="line"/>
			<point x="582" y="229" type="line"/>
			<point x="520" y="229" type="line"/>
			<point x="520" y="0" type="line"/>
			<point x="470" y="0" type="line"/>
			<point x="470" y="88" type="line"/>
			<point x="444" y="43"/>
			<point x="387" y="-13"/>
			<point x="288" y="-13" type="curve" smooth="yes"/>
			<point x="121" y="-13"/>
			<point x="29" y="119"/>
			<point x="29" y="290" type="curve" smooth="yes"/>
			<point x="29" y="486"/>
			<point x="139" y="603"/>
			<point x="291" y="603" type="curve" smooth="yes"/>
			<point x="435" y="603"/>
			<point x="505" y="527"/>
			<point x="505" y="437" type="curve" smooth="yes"/>
			<point x="505" y="396"/>
			<point x="481" y="365"/>
			<point x="448" y="365" type="curve" smooth="yes"/>
			<point x="413" y="365"/>
			<point x="388" y="390"/>
			<point x="388" y="422" type="curve" smooth="yes"/>
			<point x="388" y="465"/>
			<point x="436" y="480"/>
		</contour>
	</outline>
</glyph>
<glyph name="L" format="2">
	<advance width="600"/>
	<unicode hex="004C"/>
	<note>
		L
	</note>
	<outline>
		<contour>
			<point x="528" y="293" type="line"/>
			<point x="507" y="50" type="line"/>
			<point x="198" y="50" type="line"/>
			<point x="198" y="540" type="line"/>
			<point x="300" y="540" type="line"/>
			<point x="300" y="590" type="line"/>
			<point x="46" y="590" type="line"/>
			<point x="46" y="540" type="line"/>
			<point x="148" y="540" type="line"/>
			<point x="148" y="50" type="line"/>
			<point x="46" y="50" type="line"/>
			<point x="46" y="0" type="line"/>
			<point x="553" y="0" type="line"/>
			<point x="577" y="287" type="line"/>
		</contour>
	</outline>
</glyph>
<glyph name="M" format="2">
	<advance width="600"/>
	<unicode hex="004D"/>
	<note>
		M
	</note>
	<outline>
		<contour>
			<point x="24" y="590" type="line"/>
			<point x="24" y="540" type="line"/>
			<point x="85" y="540" type="line"/>
			<point x="85" y="50" type="line"/>
			<point x="25" y="50" type="line"/>
			<point x="25" y="0" type="line"/>
			<point x="187" y="0" type="line"/>
			<point x="187" y="50" type="line"/>
			<point x="135" y="50" type="line"/>
			<point x="135" y="502" type="line"/>
			<point x="278" y="50" type="line"/>
			<point x="326" y="50" type="line"/>
			<point x="469" y="502" type="line"/>
			<point x="469" y="50" type="line"/>
			<point x="417" y="50" type="line"/>
			<point x="417" y="0" type="line"/>
			<point x="579" y="0" type="line"/>
			<point x="579" y="50" type="line"/>
			<point x="519" y="50" type="line"/>
			<point x="519" y="540" type="line"/>
			<point x="580" y="540" type="line"/>
			<point x="580" y="590" type="line"/>
			<point x="445" y="590" type="line"/>
			<point x="302" y="138" type="line"/>
			<point x="159" y="590" type="line"/>
		</contour>
	</outline>
</glyph>
<glyph name="R" format="2">
	<advance width="600"/>
	<unicode hex="0052"/>
	<note>
		R
	</note>
	<outline>
		<contour>
			<point x="272" y="592" type="curve" smooth="yes"/>
			<point x="417" y="592"/>
			<point x="508" y="549"/>
			<point x="508" y="429" type="curve" smooth="yes"/>
			<point x="508" y="332"/>
			<point x="422" y="273"/>
			<point x="370" y="271" type="curve"/>
			<point x="401" y="255"/>
			<point x="411" y="220"/>
			<point x="419" y="191" type="curve" smooth="yes"/>
			<point x="435" y="133"/>
			<point x="447" y="37"/>
			<point x="491" y="37" type="curve" smooth="yes"/>
			<point x="526" y="37"/>
			<point x="536" y="62"/>
			<point x="534" y="126" type="curve"/>
			<point x="583" y="126" type="line"/>
			<point x="589" y="29"/>
			<point x="553" y="-13"/>
			<point x="491" y="-13" type="curve" smooth="yes"/>
			<point x="423" y="-13"/>
			<point x="404" y="39"/>
			<point x="369" y="172" type="curve" smooth="yes"/>
			<point x="358" y="214"/>
			<point x="342" y="254"/>
			<point x="259" y="254" type="curve" smooth="yes"/>
			<point x="148" y="254" type="line"/>
			<point x="148" y="50" type="line"/>
			<point x="224" y="50" type="line"/>
			<point x="224" y="0" type="line"/>
			<point x="21" y="0" type="line"/>
			<point x="21" y="50" type="line"/>
			<point x="98" y="50" type="line"/>
			<point x="98" y="540" type="line"/>
			<point x="72" y="542"/>
			<point x="50" y="545"/>
			<point x="21" y="550" type="curve"/>
			<point x="28" y="598" type="line"/>
			<point x="60" y="592"/>
			<point x="84" y="589"/>
			<point x="113" y="589" type="curve" smooth="yes"/>
			<point x="158" y="589"/>
			<point x="233" y="592"/>
		</contour>
		<contour>
			<point x="272" y="543" type="curve" smooth="yes"/>
			<point x="227" y="543"/>
			<point x="148" y="540"/>
			<point x="148" y="540" type="curve"/>
			<point x="148" y="304" type="line"/>
			<point x="291" y="304" type="line" smooth="yes"/>
			<point x="394" y="304"/>
			<point x="458" y="357"/>
			<point x="458" y="429" type="curve" smooth="yes"/>
			<point x="458" y="508"/>
			<point x="400" y="543"/>
		</contour>
	</outline>
</glyph>
<glyph name="W" format="2">
	<advance width="600"/>
	<unicode hex="0057"/>
	<note>
		W
	</note>
	<outline>
		<contour>
			<point x="585" y="540" type="line"/>
			<point x="585" y="590" type="line"/>
			<point x="431" y="590" type="line"/>
			<point x="431" y="540" type="line"/>
			<point x="504" y="540" type="line"/>
			<point x="430" y="55" type="line"/>
			<point x="329" y="540" type="line"/>
			<point x="271" y="540" type="line"/>
			<point x="170" y="55" type="line"/>
			<point x="96" y="540" type="line"/>
			<point x="169" y="540" type="line"/>
			<point x="169" y="590" type="line"/>
			<point x="15" y="590" type="line"/>
			<point x="15" y="540" type="line"/>
			<point x="45" y="540" type="line"/>
			<point x="127" y="0" type="line"/>
			<point x="210" y="0" type="line"/>
			<point x="300" y="434" type="line"/>
			<point x="390" y="0" type="line"/>
			<point x="473" y="0" type="line"/>
			<point x="555" y="540" type="line"/>
		</contour>
	</outline>
</glyph>
<glyph name="X" format="2">
	<advance width="600"/>
	<unicode hex="0058"/>
	<note>
		X
	</note>
	<outline>
		<contour>
			<point x="491" y="540" type="line"/>
			<point x="563" y="540" type="line"/>
			<point x="563" y="590" type="line"/>
			<point x="377" y="590" type="line"/>
			<point x="377" y="540" type="line"/>
			<point x="433" y="540" type="line"/>
			<point x="299" y="339" type="line"/>
			<point x="165" y="540" type="line"/>
			<point x="221" y="540" type="line"/>
			<point x="221" y="590" type="line"/>
			<point x="35" y="590" type="line"/>
			<point x="35" y="540" type="line"/>
			<point x="107" y="540" type="line"/>
			<point x="270" y="295" type="line"/>
			<point x="107" y="50" type="line"/>
			<point x="35" y="50" type="line"/>
			<point x="35" y="0" type="line"/>
			<point x="226" y="0" type="line"/>
			<point x="226" y="50" type="line"/>
			<point x="166" y="50" type="line"/>
			<point x="299" y="251" type="line"/>
			<point x="432" y="50" type="line"/>
			<point x="372" y="50" type="line"/>
			<point x="372" y="0" type="line"/>
			<point x="563" y="0" type="line"/>
			<point x="563" y="50" type="line"/>
			<point x="491" y="50" type="line"/>
			<point x="328" y="295" type="line"/>
		</contour>
	</outline>
</glyph>
<glyph name="bracketleft" format="2">
	<advance width="600"/>
	<unicode hex="005B"/>
	<note>
		bracketleft
	</note>
	<outline>
		<contour>
			<point x="260" y="-93" type="line"/>
			<point x="526" y="-93" type="line"/>
			<point x="526" y="-43" type="line"/>
			<point x="310" y="-43" type="line"/>
			<point x="310" y="540" type="line"/>
			<point x="526" y="540" type="line"/>
			<point x="526" y="590" type="line"/>
			<point x="260" y="590" type="line"/>
		</contour>
	</outline>
</glyph>
<glyph name="backslash" format="2">
	<advance width="600"/>
	<unicode hex="005C"/>
	<note>
		backslash
	</note>
	<outline>
		<contour>
			<point x="111" y="603" type="line"/>
			<point x="73" y="573" type="line"/>
			<point x="492" y="-15" type="line"/>
			<point x="530" y="15" type="line"/>
		</contour>
	</outline>
</glyph>
<glyph name="bracketright" format="2">
	<advance width="600"/>
	<unicode hex="005D"/>
	<note>
		bracketright
	</note>
	<outline>
		<contour>
			<point x="74" y="-43" type="line"/>
			<point x="74" y="-93" type="line"/>
			<point x="340" y="-93" type="line"/>
			<point x="340" y="590" type="line"/>
			<point x="74" y="590" type="line"/>
			<point x="74" y="540" type="line"/>
			<point x="290" y="540" type="line"/>
			<point x="290" y="-43" type="line"/>
		</contour>
	</outline>
</glyph>
<glyph name="underscore" format="2">
	<advance width="600"/>
	<unicode hex="005F"/>
	<note>
		underscore
	</note>
	<outline>
		<contour>
			<point x="485" y="-13" type="line"/>
			<point x="125" y="-13" type="line"/>
			<point x="125" y="-83" type="line"/>
			<point x="485" y="-83" type="line"/>
		</contour>
	</outline>
</glyph>
<glyph name="b" format="2">
	<advance width="600"/>
	<unicode hex="0062"/>
	<note>
		b
	</note>
	<outline>
		<contour>
			<point x="35" y="590" type="line"/>
			<point x="35" y="540" type="line"/>
			<point x="124" y="540" type="line"/>
			<point x="124" y="0" type="line"/>
			<point x="174" y="0" type="line"/>
			<point x="174" y="85" type="line"/>
			<point x="214" y="30"/>
			<point x="275" y="-13"/>
			<point x="343" y="-13" type="curve" smooth="yes"/>
			<point x="466" y="-13"/>
			<point x="549" y="89"/>
			<point x="549" y="216" type="curve" smooth="yes"/>
			<point x="549" y="343"/>
			<point x="466" y="443"/>
			<point x="343" y="443" type="curve" smooth="yes"/>
			<point x="274" y="443"/>
			<point x="213" y="400"/>
			<point x="174" y="345" type="curve"/>
			<point x="174" y="590" type="line"/>
		</contour>
		<contour>
			<point x="174" y="158" type="curve"/>
			<point x="174" y="272" type="line"/>
			<point x="229" y="337"/>
			<point x="274" y="393"/>
			<point x="343" y="393" type="curve" smooth="yes"/>
			<point x="438" y="393"/>
			<point x="499" y="315"/>
			<point x="499" y="216" type="curve" smooth="yes"/>
			<point x="500" y="114"/>
			<point x="437" y="37"/>
			<point x="343" y="37" type="curve" smooth="yes"/>
			<point x="277" y="37"/>
			<point x="230" y="93"/>
		</contour>
	</outline>
</glyph>
<glyph name="c" format="2">
	<advance width="600"/>
	<unicode hex="0063"/>
	<note>
		c
	</note>
	<outline>
		<contour>
			<point x="505" y="208" type="curve"/>
			<point x="553" y="203" type="line"/>
			<point x="545" y="66"/>
			<point x="427" y="-12"/>
			<point x="304" y="-12" type="curve" smooth="yes"/>
			<point x="146" y="-12"/>
			<point x="59" y="97"/>
			<point x="59" y="219" type="curve" smooth="yes"/>
			<point x="59" y="354"/>
			<point x="145" y="443"/>
			<point x="282" y="443" type="curve" smooth="yes"/>
			<point x="374" y="443"/>
			<point x="471" y="393"/>
			<point x="471" y="305" type="curve" smooth="yes"/>
			<point x="471" y="260"/>
			<point x="444" y="233"/>
			<point x="410" y="233" type="curve" smooth="yes"/>
			<point x="377" y="233"/>
			<point x="353" y="255"/>
			<point x="353" y="288" type="curve" smooth="yes"/>
			<point x="353" y="318"/>
			<point x="390" y="340"/>
			<point x="420" y="325" type="curve"/>
			<point x="407" y="365"/>
			<point x="360" y="393"/>
			<point x="282" y="393" type="curve" smooth="yes"/>
			<point x="175" y="393"/>
			<point x="109" y="327"/>
			<point x="109" y="219" type="curve" smooth="yes"/>
			<point x="109" y="117"/>
			<point x="188" y="38"/>
			<point x="304" y="38" type="curve" smooth="yes"/>
			<point x="410" y="38"/>
			<point x="497" y="107"/>
		</contour>
	</outline>
</glyph>
<glyph name="g" format="2">
	<advance width="600"/>
	<unicode hex="0067"/>
	<note>
		g
	</note>
	<outline>
		<contour>
			<point x="26" y="-54" type="curve" smooth="yes"/>
			<point x="26" y="-119"/>
			<point x="79" y="-173"/>
			<point x="185" y="-173" type="curve" smooth="yes"/>
			<point x="381" y="-173" type="line" smooth="yes"/>
			<point x="504" y="-173"/>
			<point x="554" y="-117"/>
			<point x="554" y="-50" type="curve" smooth="yes"/>
			<point x="554" y="20"/>
			<point x="514" y="61"/>
			<point x="424" y="61" type="curve" smooth="yes"/>
			<point x="209" y="61" type="line" smooth="yes"/>
			<point x="115" y="61"/>
			<point x="78" y="91"/>
			<point x="78" y="126" type="curve" smooth="yes"/>
			<point x="78" y="165"/>
			<point x="115" y="177"/>
			<point x="160" y="195" type="curve"/>
			<point x="188" y="150"/>
			<point x="238" y="122"/>
			<point x="298" y="122" type="curve" smooth="yes"/>
			<point x="389" y="122"/>
			<point x="452" y="197"/>
			<point x="452" y="276" type="curve" smooth="yes"/>
			<point x="452" y="311"/>
			<point x="445" y="341"/>
			<point x="432" y="366" type="curve"/>
			<point x="462" y="387"/>
			<point x="498" y="394"/>
			<point x="521" y="367" type="curve"/>
			<point x="494" y="367"/>
			<point x="482" y="346"/>
			<point x="482" y="320" type="curve" smooth="yes"/>
			<point x="482" y="292"/>
			<point x="510" y="277"/>
			<point x="534" y="277" type="curve" smooth="yes"/>
			<point x="562" y="277"/>
			<point x="585" y="304"/>
			<point x="585" y="334" type="curve" smooth="yes"/>
			<point x="585" y="391"/>
			<point x="538" y="433"/>
			<point x="481" y="433" type="curve" smooth="yes"/>
			<point x="454" y="433"/>
			<point x="425" y="421"/>
			<point x="402" y="406" type="curve"/>
			<point x="376" y="430"/>
			<point x="340" y="443"/>
			<point x="298" y="443" type="curve" smooth="yes"/>
			<point x="200" y="443"/>
			<point x="135" y="364"/>
			<point x="135" y="284" type="curve" smooth="yes"/>
			<point x="135" y="269"/>
			<point x="137" y="254"/>
			<point x="140" y="240" type="curve"/>
			<point x="76" y="218"/>
			<point x="28" y="182"/>
			<point x="28" y="127" type="curve" smooth="yes"/>
			<point x="28" y="86"/>
			<point x="47" y="53"/>
			<point x="84" y="37" type="curve"/>
			<point x="45" y="19"/>
			<point x="26" y="-14"/>
		</contour>
		<contour>
			<point x="186" y="281" type="curve" smooth="yes"/>
			<point x="186" y="339"/>
			<point x="222" y="393"/>
			<point x="297" y="393" type="curve" smooth="yes"/>
			<point x="364" y="393"/>
			<point x="401" y="338"/>
			<point x="401" y="281" type="curve" smooth="yes"/>
			<point x="401" y="224"/>
			<point x="364" y="172"/>
			<point x="297" y="172" type="curve" smooth="yes"/>
			<point x="228" y="172"/>
			<point x="186" y="224"/>
		</contour>
		<contour>
			<point x="79" y="-51" type="curve" smooth="yes"/>
			<point x="79" y="-17"/>
			<point x="103" y="12"/>
			<point x="161" y="12" type="curve" smooth="yes"/>
			<point x="425" y="11" type="line" smooth="yes"/>
			<point x="483" y="11"/>
			<point x="503" y="-15"/>
			<point x="503" y="-54" type="curve" smooth="yes"/>
			<point x="503" y="-89"/>
			<point x="475" y="-123"/>
			<point x="370" y="-123" type="curve" smooth="yes"/>
			<point x="193" y="-123" type="line" smooth="yes"/>
			<point x="106" y="-123"/>
			<point x="79" y="-92"/>
		</contour>
	</outline>
</glyph>
<glyph name="h" format="2">
	<advance width="600"/>
	<unicode hex="0068"/>
	<note>
		h
	</note>
	<outline>
		<contour>
			<point x="347" y="393" type="curve" smooth="yes"/>
			<point x="383" y="393"/>
			<point x="430" y="368"/>
			<point x="430" y="306" type="curve" smooth="yes"/>
			<point x="430" y="50" type="line"/>
			<point x="349" y="50" type="line"/>
			<point x="349" y="0" type="line"/>
			<point x="560" y="0" type="line"/>
			<point x="560" y="50" type="line"/>
			<point x="480" y="50" type="line"/>
			<point x="480" y="306" type="line" smooth="yes"/>
			<point x="480" y="410"/>
			<point x="401" y="443"/>
			<point x="347" y="443" type="curve" smooth="yes"/>
			<point x="282" y="443"/>
			<point x="243" y="400"/>
			<point x="172" y="323" type="curve"/>
			<point x="172" y="590" type="line"/>
			<point x="41" y="590" type="line"/>
			<point x="41" y="540" type="line"/>
			<point x="122" y="540" type="line"/>
			<point x="122" y="50" type="line"/>
			<point x="41" y="50" type="line"/>
			<point x="41" y="0" type="line"/>
			<point x="253" y="0" type="line"/>
			<point x="253" y="50" type="line"/>
			<point x="172" y="50" type="line"/>
			<point x="172" y="252" type="line"/>
			<point x="262" y="343"/>
			<point x="295" y="393"/>
		</contour>
	</outline>
</glyph>
<glyph name="i" format="2">
	<advance width="600"/>
	<unicode hex="0069"/>
	<note>
		i
	</note>
	<outline>
		<contour>
			<point x="305" y="472" type="curve" smooth="yes"/>
			<point x="333" y="472"/>
			<point x="356" y="496"/>
			<point x="356" y="523" type="curve" smooth="yes"/>
			<point x="356" y="550"/>
			<point x="333" y="574"/>
			<point x="305" y="574" type="curve" smooth="yes"/>
			<point x="277" y="574"/>
			<point x="253" y="550"/>
			<point x="253" y="523" type="curve" smooth="yes"/>
			<point x="253" y="496"/>
			<point x="277" y="472"/>
		</contour>
		<contour>
			<point x="516" y="50" type="line"/>
			<point x="338" y="50" type="line"/>
			<point x="338" y="430" type="line"/>
			<point x="97" y="430" type="line"/>
			<point x="97" y="380" type="line"/>
			<point x="288" y="380" type="line"/>
			<point x="288" y="50" type="line"/>
			<point x="97" y="50" type="line"/>
			<point x="97" y="0" type="line"/>
			<point x="516" y="0" type="line"/>
		</contour>
	</outline>
</glyph>
<glyph name="k" format="2">
	<advance width="600"/>
	<unicode hex="006B"/>
	<note>
		k
	</note>
	<outline>
		<contour>
			<point x="562" y="32" type="curve"/>
			<point x="524" y="64" type="line"/>
			<point x="513" y="51"/>
			<point x="502" y="38"/>
			<point x="485" y="38" type="curve" smooth="yes"/>
			<point x="464" y="38"/>
			<point x="446" y="50"/>
			<point x="411" y="102" type="curve" smooth="yes"/>
			<point x="301" y="265" type="line"/>
			<point x="441" y="380" type="line"/>
			<point x="550" y="380" type="line"/>
			<point x="550" y="430" type="line"/>
			<point x="300" y="430" type="line"/>
			<point x="300" y="380" type="line"/>
			<point x="364" y="380" type="line"/>
			<point x="174" y="225" type="line"/>
			<point x="174" y="590" type="line"/>
			<point x="10" y="590" type="line"/>
			<point x="10" y="540" type="line"/>
			<point x="124" y="540" type="line"/>
			<point x="124" y="50" type="line"/>
			<point x="10" y="50" type="line"/>
			<point x="10" y="0" type="line"/>
			<point x="270" y="0" type="line"/>
			<point x="270" y="50" type="line"/>
			<point x="174" y="50" type="line"/>
			<point x="174" y="160" type="line"/>
			<point x="263" y="233" type="line"/>
			<point x="379" y="60" type="line" smooth="yes"/>
			<point x="404" y="22"/>
			<point x="434" y="-12"/>
			<point x="485" y="-12" type="curve" smooth="yes"/>
			<point x="515" y="-12"/>
			<point x="544" y="8"/>
		</contour>
	</outline>
</glyph>
<glyph name="l" format="2">
	<advance width="600"/>
	<unicode hex="006C"/>
	<note>
		l
	</note>
	<outline>
		<contour>
			<point x="513" y="50" type="line"/>
			<point x="329" y="50" type="line"/>
			<point x="329" y="590" type="line"/>
			<point x="94" y="590" type="line"/>
			<point x="94" y="540" type="line"/>
			<point x="279" y="540" type="line"/>
			<point x="279" y="50" type="line"/>
			<point x="94" y="50" type="line"/>
			<point x="94" y="0" type="line"/>
			<point x="513" y="0" type="line"/>
		</contour>
	</outline>
</glyph>
<glyph name="m" format="2">
	<advance width="600"/>
	<unicode hex="006D"/>
	<note>
		m
	</note>
	<outline>
		<contour>
			<point x="14" y="379" type="curve" smooth="yes"/>
			<point x="3" y="363" type="line"/>
			<point x="46" y="339" type="line"/>
			<point x="76" y="381"/>
			<point x="84" y="393"/>
			<point x="95" y="393" type="curve" smooth="yes"/>
			<point x="107" y="393"/>
			<point x="113" y="385"/>
			<point x="113" y="358" type="curve" smooth="yes"/>
			<point x="113" y="50" type="line"/>
			<point x="43" y="50" type="line"/>
			<point x="43" y="0" type="line"/>
			<point x="233" y="0" type="line"/>
			<point x="233" y="50" type="line"/>
			<point x="163" y="50" type="line"/>
			<point x="163" y="308" type="line"/>
			<point x="215" y="373"/>
			<point x="236" y="391"/>
			<point x="261" y="391" type="curve" smooth="yes"/>
			<point x="287" y="391"/>
			<point x="302" y="380"/>
			<point x="302" y="333" type="curve" smooth="yes"/>
			<point x="302" y="0" type="line"/>
			<point x="352" y="0" type="line"/>
			<point x="352" y="296" type="line"/>
			<point x="410" y="370"/>
			<point x="431" y="391"/>
			<point x="459" y="391" type="curve" smooth="yes"/>
			<point x="485" y="391"/>
			<point x="500" y="380"/>
			<point x="500" y="333" type="curve" smooth="yes"/>
			<point x="500" y="50" type="line"/>
			<point x="430" y="50" type="line"/>
			<point x="430" y="0" type="line"/>
			<point x="591" y="0" type="line"/>
			<point x="591" y="50" type="line"/>
			<point x="550" y="50" type="line"/>
			<point x="550" y="338" type="line" smooth="yes"/>
			<point x="550" y="420"/>
			<point x="512" y="443"/>
			<point x="467" y="443" type="curve" smooth="yes"/>
			<point x="434" y="443"/>
			<point x="406" y="430"/>
			<point x="350" y="366" type="curve"/>
			<point x="343" y="425"/>
			<point x="308" y="443"/>
			<point x="269" y="443" type="curve" smooth="yes"/>
			<point x="238" y="443"/>
			<point x="211" y="432"/>
			<point x="162" y="377" type="curve"/>
			<point x="158" y="429"/>
			<point x="129" y="443"/>
			<point x="98" y="443" type="curve" smooth="yes"/>
			<point x="66" y="443"/>
			<point x="44" y="423"/>
		</contour>
	</outline>
</glyph>
<glyph name="p" format="2">
	<advance width="600"/>
	<unicode hex="0070"/>
	<note>
		p
	</note>
	<outline>
		<contour>
			<point x="48" y="-110" type="line"/>
			<point x="48" y="-160" type="line"/>
			<point x="288" y="-160" type="line"/>
			<point x="288" y="-110" type="line"/>
			<point x="185" y="-110" type="line"/>
			<point x="185" y="85" type="line"/>
			<point x="224" y="30"/>
			<point x="285" y="-13"/>
			<point x="354" y="-13" type="curve" smooth="yes"/>
			<point x="477" y="-13"/>
			<point x="560" y="87"/>
			<point x="560" y="214" type="curve" smooth="yes"/>
			<point x="560" y="341"/>
			<point x="477" y="443"/>
			<point x="354" y="443" type="curve" smooth="yes"/>
			<point x="286" y="443"/>
			<point x="225" y="400"/>
			<point x="185" y="345" type="curve"/>
			<point x="187" y="419"/>
			<point x="155" y="443"/>
			<point x="119" y="443" type="curve" smooth="yes"/>
			<point x="78" y="443"/>
			<point x="56" y="419"/>
			<point x="18" y="323" type="curve"/>
			<point x="62" y="302" type="line"/>
			<point x="93" y="375"/>
			<point x="102" y="393"/>
			<point x="119" y="393" type="curve" smooth="yes"/>
			<point x="130" y="393"/>
			<point x="136" y="380"/>
			<point x="136" y="353" type="curve" smooth="yes"/>
			<point x="135" y="-110" type="line"/>
		</contour>
		<contour>
			<point x="185" y="158" type="curve"/>
			<point x="185" y="272" type="line"/>
			<point x="241" y="337"/>
			<point x="288" y="393"/>
			<point x="354" y="393" type="curve" smooth="yes"/>
			<point x="448" y="393"/>
			<point x="511" y="316"/>
			<point x="510" y="214" type="curve" smooth="yes"/>
			<point x="509" y="115"/>
			<point x="449" y="37"/>
			<point x="354" y="37" type="curve" smooth="yes"/>
			<point x="285" y="37"/>
			<point x="240" y="93"/>
		</contour>
	</outline>
</glyph>
<glyph name="q" format="2">
	<advance width="600"/>
	<unicode hex="0071"/>
	<note>
		q
	</note>
	<outline>
		<contour>
			<point x="304" y="-110" type="line"/>
			<point x="304" y="-160" type="line"/>
			<point x="566" y="-160" type="line"/>
			<point x="566" y="-110" type="line"/>
			<point x="477" y="-110" type="line"/>
			<point x="477" y="430" type="line"/>
			<point x="427" y="430" type="line"/>
			<point x="427" y="345" type="line"/>
			<point x="387" y="400"/>
			<point x="326" y="443"/>
			<point x="258" y="443" type="curve" smooth="yes"/>
			<point x="135" y="443"/>
			<point x="52" y="341"/>
			<point x="52" y="214" type="curve" smooth="yes"/>
			<point x="52" y="87"/>
			<point x="135" y="-13"/>
			<point x="258" y="-13" type="curve" smooth="yes"/>
			<point x="327" y="-13"/>
			<point x="388" y="30"/>
			<point x="427" y="85" type="curve"/>
			<point x="427" y="-110" type="line"/>
		</contour>
		<contour>
			<point x="427" y="272" type="curve"/>
			<point x="427" y="158" type="line"/>
			<point x="372" y="93"/>
			<point x="327" y="37"/>
			<point x="258" y="37" type="curve" smooth="yes"/>
			<point x="163" y="37"/>
			<point x="102" y="115"/>
			<point x="102" y="214" type="curve" smooth="yes"/>
			<point x="102" y="316"/>
			<point x="164" y="393"/>
			<point x="258" y="393" type="curve" smooth="yes"/>
			<point x="324" y="393"/>
			<point x="371" y="337"/>
		</contour>
	</outline>
</glyph>
<glyph name="x" format="2">
	<advance width="600"/>
	<unicode hex="0078"/>
	<note>
		x
	</note>
	<outline>
		<contour>
			<point x="596" y="80" type="curve"/>
			<point x="567" y="121" type="line"/>
			<point x="497" y="64"/>
			<point x="466" y="37"/>
			<point x="432" y="37" type="curve" smooth="yes"/>
			<point x="388" y="37"/>
			<point x="325" y="129"/>
			<point x="325" y="215" type="curve" smooth="yes"/>
			<point x="325" y="301"/>
			<point x="384" y="393"/>
			<point x="458" y="393" type="curve"/>
			<point x="443" y="384"/>
			<point x="443" y="369"/>
			<point x="443" y="359" type="curve" smooth="yes"/>
			<point x="443" y="337"/>
			<point x="470" y="322"/>
			<point x="489" y="322" type="curve" smooth="yes"/>
			<point x="515" y="322"/>
			<point x="542" y="340"/>
			<point x="542" y="381" type="curve" smooth="yes"/>
			<point x="542" y="419"/>
			<point x="498" y="443"/>
			<point x="450" y="443" type="curve" smooth="yes"/>
			<point x="394" y="443"/>
			<point x="334" y="397"/>
			<point x="301" y="328" type="curve"/>
			<point x="271" y="397"/>
			<point x="217" y="443"/>
			<point x="171" y="443" type="curve" smooth="yes"/>
			<point x="127" y="443"/>
			<point x="84" y="417"/>
			<point x="5" y="350" type="curve"/>
			<point x="34" y="309" type="line"/>
			<point x="104" y="366"/>
			<point x="135" y="393"/>
			<point x="169" y="393" type="curve" smooth="yes"/>
			<point x="213" y="393"/>
			<point x="276" y="301"/>
			<point x="276" y="215" type="curve" smooth="yes"/>
			<point x="276" y="129"/>
			<point x="217" y="37"/>
			<point x="143" y="37" type="curve"/>
			<point x="158" y="46"/>
			<point x="158" y="61"/>
			<point x="158" y="71" type="curve" smooth="yes"/>
			<point x="158" y="93"/>
			<point x="131" y="108"/>
			<point x="112" y="108" type="curve" smooth="yes"/>
			<point x="86" y="108"/>
			<point x="59" y="90"/>
			<point x="59" y="49" type="curve" smooth="yes"/>
			<point x="59" y="11"/>
			<point x="103" y="-13"/>
			<point x="151" y="-13" type="curve" smooth="yes"/>
			<point x="207" y="-13"/>
			<point x="267" y="33"/>
			<point x="300" y="102" type="curve"/>
			<point x="330" y="33"/>
			<point x="384" y="-13"/>
			<point x="430" y="-13" type="curve" smooth="yes"/>
			<point x="474" y="-13"/>
			<point x="517" y="13"/>
		</contour>
	</outline>
</glyph>
<glyph name="braceright" format="2">
	<advance width="600"/>
	<unicode hex="007D"/>
	<note>
		braceright
	</note>
	<outline>
		<contour>
			<point x="447" y="191" type="curve"/>
			<point x="447" y="241" type="line"/>
			<point x="424" y="254"/>
			<point x="345" y="269"/>
			<point x="355" y="329" type="curve" smooth="yes"/>
			<point x="369" y="412" type="line" smooth="yes"/>
			<point x="388" y="525"/>
			<point x="307" y="602"/>
			<point x="227" y="602" type="curve" smooth="yes"/>
			<point x="154" y="602"/>
			<point x="100" y="542"/>
			<point x="100" y="486" type="curve" smooth="yes"/>
			<point x="100" y="456"/>
			<point x="117" y="430"/>
			<point x="145" y="430" type="curve" smooth="yes"/>
			<point x="169" y="430"/>
			<point x="196" y="448"/>
			<point x="196" y="476" type="curve" smooth="yes"/>
			<point x="196" y="501"/>
			<point x="172" y="517"/>
			<point x="155" y="515" type="curve"/>
			<point x="170" y="537"/>
			<point x="194" y="553"/>
			<point x="226" y="553" type="curve" smooth="yes"/>
			<point x="276" y="553"/>
			<point x="333" y="499"/>
			<point x="318" y="411" type="curve" smooth="yes"/>
			<point x="304" y="329" type="line" smooth="yes"/>
			<point x="292" y="256"/>
			<point x="345" y="229"/>
			<point x="394" y="216" type="curve"/>
			<point x="345" y="203"/>
			<point x="292" y="176"/>
			<point x="304" y="103" type="curve" smooth="yes"/>
			<point x="318" y="21" type="line" smooth="yes"/>
			<point x="333" y="-67"/>
			<point x="276" y="-121"/>
			<point x="226" y="-121" type="curve" smooth="yes"/>
			<point x="194" y="-121"/>
			<point x="170" y="-105"/>
			<point x="155" y="-83" type="curve"/>
			<point x="172" y="-85"/>
			<point x="196" y="-69"/>
			<point x="196" y="-44" type="curve" smooth="yes"/>
			<point x="196" y="-16"/>
			<point x="173" y="2"/>
			<point x="149" y="2" type="curve" smooth="yes"/>
			<point x="121" y="2"/>
			<point x="100" y="-24"/>
			<point x="100" y="-54" type="curve" smooth="yes"/>
			<point x="100" y="-110"/>
			<point x="154" y="-170"/>
			<point x="227" y="-170" type="curve" smooth="yes"/>
			<point x="307" y="-170"/>
			<point x="388" y="-93"/>
			<point x="369" y="20" type="curve" smooth="yes"/>
			<point x="355" y="103" type="line" smooth="yes"/>
			<point x="345" y="163"/>
			<point x="424" y="178"/>
		</contour>
	</outline>
</glyph>
<glyph name="asciitilde" format="2">
	<advance width="600"/>
	<unicode hex="007E"/>
	<note>
		asciitilde
	</note>
	<outline>
		<contour>
			<point x="395" y="238" type="curve" smooth="yes"/>
			<point x="465" y="238"/>
			<point x="507" y="294"/>
			<point x="507" y="386" type="curve" smooth="yes"/>
			<point x="507" y="430" type="line"/>
			<point x="457" y="430" type="line"/>
			<point x="457" y="389" type="line" smooth="yes"/>
			<point x="457" y="325"/>
			<point x="435" y="288"/>
			<point x="395" y="288" type="curve" smooth="yes"/>
			<point x="362" y="288"/>
			<point x="348" y="300"/>
			<point x="326" y="346" type="curve" smooth="yes"/>
			<point x="304" y="392"/>
			<point x="273" y="442"/>
			<point x="204" y="442" type="curve" smooth="yes"/>
			<point x="134" y="442"/>
			<point x="91" y="386"/>
			<point x="91" y="294" type="curve" smooth="yes"/>
			<point x="91" y="250" type="line"/>
			<point x="141" y="250" type="line"/>
			<point x="141" y="291" type="line" smooth="yes"/>
			<point x="141" y="355"/>
			<point x="164" y="392"/>
			<point x="204" y="392" type="curve" smooth="yes"/>
			<point x="234" y="392"/>
			<point x="255" y="375"/>
			<point x="280" y="326" type="curve" smooth="yes"/>
			<point x="304" y="278"/>
			<point x="331" y="238"/>
		</contour>
	</outline>
</glyph>
<glyph name="exclamdown" format="2">
	<advance width="600"/>
	<unicode hex="00A1"/>
	<note>
		exclamdown
	</note>
	<outline>
		<contour>
			<point x="312" y="291" type="line"/>
			<point x="332" y="-98" type="line" smooth="yes"/>
			<point x="334" y="-139"/>
			<point x="332" y="-173"/>
			<point x="298" y="-173" type="curve" smooth="yes"/>
			<point x="262" y="-173"/>
			<point x="260" y="-140"/>
			<point x="262" y="-98" type="curve" smooth="yes"/>
			<point x="282" y="291" type="line"/>
		</contour>
		<contour>
			<point x="298" y="443" type="curve" smooth="yes"/>
			<point x="270" y="443"/>
			<point x="246" y="419"/>
			<point x="246" y="392" type="curve" smooth="yes"/>
			<point x="246" y="365"/>
			<point x="270" y="341"/>
			<point x="298" y="341" type="curve" smooth="yes"/>
			<point x="326" y="341"/>
			<point x="349" y="365"/>
			<point x="349" y="392" type="curve"/>
			<point x="349" y="419"/>
			<point x="326" y="443"/>
		</contour>
	</outline>
</glyph>
<glyph name="cent" format="2">
	<advance width="600"/>
	<unicode hex="00A2"/>
	<note>
		cent
	</note>
	<outline>
		<contour>
			<point x="282" y="435" type="curve" smooth="yes"/>
			<point x="334" y="435"/>
			<point x="375" y="406"/>
			<point x="388" y="366" type="curve"/>
			<point x="358" y="381"/>
			<point x="323" y="359"/>
			<point x="323" y="329" type="curve" smooth="yes"/>
			<point x="323" y="296"/>
			<point x="349" y="274"/>
			<point x="382" y="274" type="curve" smooth="yes"/>
			<point x="415" y="274"/>
			<point x="441" y="306"/>
			<point x="441" y="348" type="curve" smooth="yes"/>
			<point x="441" y="423"/>
			<point x="373" y="470"/>
			<point x="314" y="481" type="curve"/>
			<point x="314" y="603" type="line"/>
			<point x="264" y="603" type="line"/>
			<point x="264" y="483" type="line"/>
			<point x="167" y="474"/>
			<point x="99" y="393"/>
			<point x="99" y="300" type="curve" smooth="yes"/>
			<point x="99" y="210"/>
			<point x="160" y="123"/>
			<point x="264" y="103" type="curve"/>
			<point x="264" y="-13" type="line"/>
			<point x="314" y="-13" type="line"/>
			<point x="314" y="99" type="line"/>
			<point x="386" y="104"/>
			<point x="482" y="155"/>
			<point x="511" y="249" type="curve"/>
			<point x="466" y="267" type="line"/>
			<point x="439" y="192"/>
			<point x="364" y="148"/>
			<point x="304" y="148" type="curve" smooth="yes"/>
			<point x="214" y="148"/>
			<point x="149" y="224"/>
			<point x="149" y="300" type="curve" smooth="yes"/>
			<point x="149" y="372"/>
			<point x="201" y="435"/>
		</contour>
	</outline>
</glyph>
<glyph name="sterling" format="2">
	<advance width="600"/>
	<unicode hex="00A3"/>
	<note>
		sterling
	</note>
	<outline>
		<contour>
			<point x="48" y="86" type="curve" smooth="yes"/>
			<point x="48" y="18"/>
			<point x="104" y="-13"/>
			<point x="145" y="-13" type="curve" smooth="yes"/>
			<point x="188" y="-13"/>
			<point x="223" y="13"/>
			<point x="241" y="58" type="curve"/>
			<point x="270" y="14"/>
			<point x="329" y="-13"/>
			<point x="389" y="-13" type="curve" smooth="yes"/>
			<point x="484" y="-13"/>
			<point x="546" y="31"/>
			<point x="583" y="132" type="curve"/>
			<point x="534" y="153" type="line"/>
			<point x="501" y="65"/>
			<point x="448" y="36"/>
			<point x="392" y="36" type="curve" smooth="yes"/>
			<point x="329" y="36"/>
			<point x="287" y="81"/>
			<point x="257" y="125" type="curve"/>
			<point x="258" y="257" type="line"/>
			<point x="403" y="257" type="line"/>
			<point x="403" y="307" type="line"/>
			<point x="258" y="307" type="line"/>
			<point x="258" y="381" type="line"/>
			<point x="403" y="381" type="line"/>
			<point x="403" y="431" type="line"/>
			<point x="261" y="431" type="line"/>
			<point x="271" y="504"/>
			<point x="319" y="555"/>
			<point x="400" y="555" type="curve" smooth="yes"/>
			<point x="480" y="555"/>
			<point x="529" y="514"/>
			<point x="530" y="490" type="curve"/>
			<point x="508" y="508"/>
			<point x="466" y="486"/>
			<point x="466" y="453" type="curve" smooth="yes"/>
			<point x="466" y="420"/>
			<point x="492" y="397"/>
			<point x="525" y="397" type="curve" smooth="yes"/>
			<point x="557" y="397"/>
			<point x="583" y="425"/>
			<point x="583" y="472" type="curve" smooth="yes"/>
			<point x="583" y="553"/>
			<point x="496" y="603"/>
			<point x="401" y="603" type="curve" smooth="yes"/>
			<point x="300" y="603"/>
			<point x="223" y="532"/>
			<point x="210" y="431" type="curve"/>
			<point x="75" y="431" type="line"/>
			<point x="75" y="381" type="line"/>
			<point x="208" y="381" type="line"/>
			<point x="208" y="307" type="line"/>
			<point x="75" y="307" type="line"/>
			<point x="75" y="257" type="line"/>
			<point x="208" y="257" type="line"/>
			<point x="208" y="164" type="line"/>
			<point x="198" y="181"/>
			<point x="168" y="193"/>
			<point x="145" y="193" type="curve" smooth="yes"/>
			<point x="93" y="193"/>
			<point x="48" y="156"/>
		</contour>
		<contour>
			<point x="92" y="86" type="curve" smooth="yes"/>
			<point x="92" y="113"/>
			<point x="109" y="142"/>
			<point x="145" y="142" type="curve" smooth="yes"/>
			<point x="173" y="142"/>
			<point x="189" y="131"/>
			<point x="204" y="98" type="curve"/>
			<point x="204" y="68"/>
			<point x="184" y="36"/>
			<point x="145" y="36" type="curve" smooth="yes"/>
			<point x="114" y="36"/>
			<point x="92" y="61"/>
		</contour>
	</outline>
</glyph>
<glyph name="section" format="2">
	<advance width="600"/>
	<unicode hex="00A7"/>
	<note>
		section
	</note>
	<outline>
		<contour>
			<point x="421" y="-50" type="curve" smooth="yes"/>
			<point x="421" y="-105"/>
			<point x="382" y="-173"/>
			<point x="299" y="-173" type="curve" smooth="yes"/>
			<point x="232" y="-173"/>
			<point x="178" y="-126"/>
			<point x="178" y="-53" type="curve" smooth="yes"/>
			<point x="178" y="-13"/>
			<point x="203" y="15"/>
			<point x="234" y="15" type="curve" smooth="yes"/>
			<point x="264" y="15"/>
			<point x="288" y="-8"/>
			<point x="288" y="-33" type="curve" smooth="yes"/>
			<point x="288" y="-63"/>
			<point x="252" y="-87"/>
			<point x="229" y="-70" type="curve"/>
			<point x="232" y="-98"/>
			<point x="264" y="-127"/>
			<point x="299" y="-127" type="curve" smooth="yes"/>
			<point x="356" y="-127"/>
			<point x="371" y="-81"/>
			<point x="371" y="-50" type="curve" smooth="yes"/>
			<point x="371" y="17"/>
			<point x="308" y="40"/>
			<point x="233" y="76" type="curve" smooth="yes"/>
			<point x="156" y="113" type="line" smooth="yes"/>
			<point x="90" y="145"/>
			<point x="58" y="189"/>
			<point x="58" y="269" type="curve" smooth="yes"/>
			<point x="58" y="360"/>
			<point x="133" y="410"/>
			<point x="206" y="395" type="curve"/>
			<point x="199" y="401"/>
			<point x="178" y="428"/>
			<point x="178" y="480" type="curve" smooth="yes"/>
			<point x="178" y="535"/>
			<point x="217" y="603"/>
			<point x="300" y="603" type="curve" smooth="yes"/>
			<point x="367" y="603"/>
			<point x="421" y="556"/>
			<point x="421" y="483" type="curve" smooth="yes"/>
			<point x="421" y="443"/>
			<point x="396" y="415"/>
			<point x="365" y="415" type="curve" smooth="yes"/>
			<point x="335" y="415"/>
			<point x="311" y="438"/>
			<point x="311" y="463" type="curve" smooth="yes"/>
			<point x="311" y="493"/>
			<point x="347" y="517"/>
			<point x="370" y="500" type="curve"/>
			<point x="367" y="528"/>
			<point x="335" y="557"/>
			<point x="300" y="557" type="curve" smooth="yes"/>
			<point x="243" y="557"/>
			<point x="228" y="511"/>
			<point x="228" y="480" type="curve" smooth="yes"/>
			<point x="228" y="413"/>
			<point x="291" y="390"/>
			<point x="366" y="354" type="curve" smooth="yes"/>
			<point x="443" y="317" type="line" smooth="yes"/>
			<point x="509" y="285"/>
			<point x="541" y="242"/>
			<point x="541" y="162" type="curve" smooth="yes"/>
			<point x="541" y="70"/>
			<point x="466" y="20"/>
			<point x="393" y="35" type="curve"/>
			<point x="400" y="29"/>
			<point x="421" y="2"/>
		</contour>
		<contour>
			<point x="406" y="280" type="curve" smooth="yes"/>
			<point x="331" y="316" type="line" smooth="yes"/>
			<point x="305" y="328"/>
			<point x="288" y="335"/>
			<point x="261" y="350" type="curve"/>
			<point x="197" y="363"/>
			<point x="108" y="347"/>
			<point x="108" y="269" type="curve" smooth="yes"/>
			<point x="108" y="209"/>
			<point x="141" y="175"/>
			<point x="193" y="150" type="curve" smooth="yes"/>
			<point x="268" y="114" type="line" smooth="yes"/>
			<point x="294" y="102"/>
			<point x="323" y="90"/>
			<point x="350" y="75" type="curve"/>
			<point x="414" y="62"/>
			<point x="491" y="83"/>
			<point x="491" y="162" type="curve" smooth="yes"/>
			<point x="491" y="222"/>
			<point x="458" y="255"/>
		</contour>
	</outline>
</glyph>
<glyph name="copyright" format="2">
	<advance width="600"/>
	<unicode hex="00A9"/>
	<note>
		copyright
	</note>
	<outline>
		<contour>
			<point x="299" y="5" type="curve" smooth="yes"/>
			<point x="459" y="5"/>
			<point x="589" y="135"/>
			<point x="589" y="295" type="curve" smooth="yes"/>
			<point x="589" y="455"/>
			<point x="459" y="585"/>
			<point x="299" y="585" type="curve" smooth="yes"/>
			<point x="139" y="585"/>
			<point x="9" y="455"/>
			<point x="9" y="295" type="curve" smooth="yes"/>
			<point x="9" y="135"/>
			<point x="139" y="5"/>
		</contour>
		<contour>
			<point x="299" y="55" type="curve" smooth="yes"/>
			<point x="166" y="55"/>
			<point x="59" y="162"/>
			<point x="59" y="295" type="curve" smooth="yes"/>
			<point x="59" y="428"/>
			<point x="166" y="535"/>
			<point x="299" y="535" type="curve" smooth="yes"/>
			<point x="432" y="535"/>
			<point x="539" y="428"/>
			<point x="539" y="295" type="curve" smooth="yes"/>
			<point x="539" y="162"/>
			<point x="432" y="55"/>
		</contour>
		<contour>
			<point x="444" y="297" type="curve"/>
			<point x="492" y="292" type="line"/>
			<point x="484" y="185"/>
			<point x="393" y="125"/>
			<point x="308" y="125" type="curve" smooth="yes"/>
			<point x="200" y="125"/>
			<point x="130" y="208"/>
			<point x="130" y="300" type="curve" smooth="yes"/>
			<point x="130" y="395"/>
			<point x="203" y="470"/>
			<point x="290" y="470" type="curve" smooth="yes"/>
			<point x="352" y="470"/>
			<point x="429" y="430"/>
			<point x="429" y="355" type="curve" smooth="yes"/>
			<point x="429" y="323"/>
			<point x="409" y="292"/>
			<point x="376" y="292" type="curve" smooth="yes"/>
			<point x="350" y="292"/>
			<point x="329" y="313"/>
			<point x="329" y="336" type="curve" smooth="yes"/>
			<point x="329" y="366"/>
			<point x="360" y="388"/>
			<point x="383" y="373" type="curve"/>
			<point x="370" y="403"/>
			<point x="338" y="420"/>
			<point x="290" y="420" type="curve" smooth="yes"/>
			<point x="233" y="420"/>
			<point x="180" y="368"/>
			<point x="180" y="300" type="curve" smooth="yes"/>
			<point x="180" y="228"/>
			<point x="242" y="175"/>
			<point x="308" y="175" type="curve" smooth="yes"/>
			<point x="374" y="175"/>
			<point x="436" y="226"/>
		</contour>
	</outline>
</glyph>
<glyph name="logicalnot" format="2">
	<advance width="600"/>
	<unicode hex="00AC"/>
	<note>
		logicalnot
	</note>
	<outline>
		<contour>
			<point x="497" y="118" type="line"/>
			<point x="497" y="331" type="line"/>
			<point x="103" y="331" type="line"/>
			<point x="103" y="281" type="line"/>
			<point x="448" y="281" type="line"/>
			<point x="447" y="117" type="line"/>
		</contour>
	</outline>
</glyph>
<glyph name="plusminus" format="2">
	<advance width="600"/>
	<unicode hex="00B1"/>
	<note>
		plusminus
	</note>
	<outline>
		<contour>
			<point x="87" y="305" type="line"/>
			<point x="87" y="255" type="line"/>
			<point x="277" y="255" type="line"/>
			<point x="277" y="130" type="line"/>
			<point x="327" y="130" type="line"/>
			<point x="327" y="255" type="line"/>
			<point x="517" y="255" type="line"/>
			<point x="517" y="305" type="line"/>
			<point x="327" y="305" type="line"/>
			<point x="327" y="430" type="line"/>
			<point x="277" y="430" type="line"/>
			<point x="277" y="305" type="line"/>
		</contour>
		<contour>
			<point x="87" y="34" type="line"/>
			<point x="517" y="34" type="line"/>
			<point x="517" y="84" type="line"/>
			<point x="87" y="84" type="line"/>
		</contour>
	</outline>
</glyph>
<glyph name="uni00B2" format="2">
	<advance width="600"/>
	<unicode hex="00B2"/>
	<note>
		uni00B2
	</note>
	<outline>
		<contour>
			<point x="59" y="316" type="curve"/>
			<point x="25" y="334" type="line"/>
			<point x="25" y="418"/>
			<point x="60" y="433"/>
			<point x="110" y="453" type="curve" smooth="yes"/>
			<point x="162" y="474" type="line" smooth="yes"/>
			<point x="187" y="484"/>
			<point x="203" y="501"/>
			<point x="203" y="524" type="curve" smooth="yes"/>
			<point x="203" y="547"/>
			<point x="175" y="565"/>
			<point x="142" y="565" type="curve" smooth="yes"/>
			<point x="99" y="565"/>
			<point x="78" y="549"/>
			<point x="77" y="532" type="curve"/>
			<point x="92" y="536"/>
			<point x="111" y="525"/>
			<point x="111" y="504" type="curve" smooth="yes"/>
			<point x="111" y="486"/>
			<point x="98" y="474"/>
			<point x="76" y="474" type="curve" smooth="yes"/>
			<point x="54" y="474"/>
			<point x="36" y="495"/>
			<point x="36" y="522" type="curve" smooth="yes"/>
			<point x="36" y="570"/>
			<point x="85" y="603"/>
			<point x="142" y="603" type="curve" smooth="yes"/>
			<point x="191" y="603"/>
			<point x="241" y="573"/>
			<point x="241" y="525" type="curve" smooth="yes"/>
			<point x="241" y="477"/>
			<point x="207" y="451"/>
			<point x="173" y="437" type="curve" smooth="yes"/>
			<point x="124" y="417" type="line" smooth="yes"/>
			<point x="90" y="403"/>
			<point x="65" y="398"/>
			<point x="65" y="363" type="curve"/>
			<point x="77" y="372"/>
			<point x="92" y="379"/>
			<point x="117" y="379" type="curve" smooth="yes"/>
			<point x="152" y="379"/>
			<point x="158" y="354"/>
			<point x="196" y="354" type="curve" smooth="yes"/>
			<point x="220" y="354"/>
			<point x="225" y="375"/>
			<point x="220" y="414" type="curve"/>
			<point x="258" y="414" type="line"/>
			<point x="262" y="343"/>
			<point x="237" y="316"/>
			<point x="196" y="316" type="curve" smooth="yes"/>
			<point x="147" y="316"/>
			<point x="152" y="341"/>
			<point x="117" y="341" type="curve" smooth="yes"/>
			<point x="97" y="341"/>
			<point x="78" y="331"/>
		</contour>
	</outline>
</glyph>
<glyph name="uni00B3" format="2">
	<advance width="600"/>
	<unicode hex="00B3"/>
	<note>
		uni00B3
	</note>
	<outline>
		<contour>
			<point x="249" y="563" type="line"/>
			<point x="177" y="499" type="line"/>
			<point x="208" y="499"/>
			<point x="257" y="467"/>
			<point x="257" y="413" type="curve" smooth="yes"/>
			<point x="257" y="353"/>
			<point x="195" y="314"/>
			<point x="140" y="314" type="curve" smooth="yes"/>
			<point x="80" y="314"/>
			<point x="25" y="348"/>
			<point x="25" y="393" type="curve" smooth="yes"/>
			<point x="25" y="414"/>
			<point x="38" y="433"/>
			<point x="60" y="433" type="curve" smooth="yes"/>
			<point x="79" y="433"/>
			<point x="91" y="422"/>
			<point x="91" y="405" type="curve" smooth="yes"/>
			<point x="91" y="388"/>
			<point x="73" y="379"/>
			<point x="64" y="383" type="curve"/>
			<point x="71" y="367"/>
			<point x="88" y="352"/>
			<point x="140" y="352" type="curve" smooth="yes"/>
			<point x="172" y="352"/>
			<point x="219" y="374"/>
			<point x="219" y="413" type="curve" smooth="yes"/>
			<point x="219" y="451"/>
			<point x="182" y="473"/>
			<point x="139" y="467" type="curve"/>
			<point x="118" y="449" type="line"/>
			<point x="90" y="472" type="line"/>
			<point x="189" y="552" type="line"/>
			<point x="75" y="552" type="line"/>
			<point x="63" y="498" type="line"/>
			<point x="25" y="503" type="line"/>
			<point x="44" y="590" type="line"/>
			<point x="249" y="590" type="line"/>
		</contour>
	</outline>
</glyph>
<glyph name="acute" format="2">
	<advance width="600"/>
	<unicode hex="00B4"/>
	<note>
		acute
	</note>
	<outline>
		<contour>
			<point x="433" y="580" type="line"/>
			<point x="122" y="505" type="line"/>
			<point x="130" y="472" type="line"/>
			<point x="445" y="533" type="line"/>
		</contour>
	</outline>
</glyph>
<glyph name="periodcentered" format="2">
	<advance width="600"/>
	<unicode hex="00B7"/>
	<note>
		periodcentered
	</note>
	<outline>
		<contour>
			<point x="302" y="197" type="curve" smooth="yes"/>
			<point x="356" y="197"/>
			<point x="400" y="244"/>
			<point x="400" y="296" type="curve" smooth="yes"/>
			<point x="400" y="349"/>
			<point x="356" y="395"/>
			<point x="302" y="395" type="curve" smooth="yes"/>
			<point x="247" y="395"/>
			<point x="200" y="349"/>
			<point x="200" y="296" type="curve" smooth="yes"/>
			<point x="200" y="244"/>
			<point x="247" y="197"/>
		</contour>
	</outline>
</glyph>
<glyph name="uni00B9" format="2">
	<advance width="600"/>
	<unicode hex="00B9"/>
	<note>
		uni00B9
	</note>
	<outline>
		<contour>
			<point x="181" y="360" type="line"/>
			<point x="181" y="590" type="line"/>
			<point x="138" y="590" type="line"/>
			<point x="109" y="532"/>
			<point x="83" y="500"/>
			<point x="25" y="456" type="curve"/>
			<point x="47" y="431" type="line"/>
			<point x="102" y="469"/>
			<point x="120" y="486"/>
			<point x="144" y="525" type="curve"/>
			<point x="144" y="360" type="line"/>
			<point x="45" y="360" type="line"/>
			<point x="45" y="323" type="line"/>
			<point x="249" y="323" type="line"/>
			<point x="249" y="360" type="line"/>
		</contour>
	</outline>
</glyph>
<glyph name="guillemotright" format="2">
	<advance width="600"/>
	<unicode hex="00BB"/>
	<note>
		guillemotright
	</note>
	<outline>
		<contour>
			<point x="256" y="255" type="curve"/>
			<point x="190" y="205"/>
			<point x="134" y="154"/>
			<point x="88" y="104" type="curve"/>
			<point x="118" y="66" type="line"/>
			<point x="178" y="129"/>
			<point x="249" y="192"/>
			<point x="329" y="255" type="curve"/>
			<point x="249" y="318"/>
			<point x="178" y="381"/>
			<point x="118" y="444" type="curve"/>
			<point x="88" y="406" type="line"/>
			<point x="134" y="356"/>
			<point x="190" y="305"/>
		</contour>
		<contour>
			<point x="438" y="255" type="curve"/>
			<point x="372" y="205"/>
			<point x="316" y="154"/>
			<point x="270" y="104" type="curve"/>
			<point x="300" y="66" type="line"/>
			<point x="360" y="129"/>
			<point x="431" y="192"/>
			<point x="511" y="255" type="curve"/>
			<point x="431" y="318"/>
			<point x="360" y="381"/>
			<point x="300" y="444" type="curve"/>
			<point x="270" y="406" type="line"/>
			<point x="316" y="356"/>
			<point x="372" y="305"/>
		</contour>
	</outline>
</glyph>
<glyph name="onequarter" format="2">
	<advance width="600"/>
	<unicode hex="00BC"/>
	<note>
		onequarter
	</note>
	<outline>
		<contour>
			<point x="152" y="360" type="line"/>
			<point x="53" y="360" type="line"/>
			<point x="53" y="323" type="line"/>
			<point x="257" y="323" type="line"/>
			<point x="257" y="360" type="line"/>
			<point x="189" y="360" type="line"/>
			<point x="189" y="590" type="line"/>
			<point x="146" y="590" type="line"/>
			<point x="117" y="532"/>
			<point x="91" y="500"/>
			<point x="33" y="456" type="curve"/>
			<point x="55" y="431" type="line"/>
			<point x="110" y="469"/>
			<point x="128" y="486"/>
			<point x="152" y="525" type="curve"/>
		</contour>
		<contour>
			<point x="495" y="518" type="line"/>
			<point x="464" y="541" type="line"/>
			<point x="119" y="57" type="line"/>
			<point x="149" y="33" type="line"/>
		</contour>
		<contour>
			<point x="560" y="24" type="line"/>
			<point x="560" y="62" type="line"/>
			<point x="496" y="62" type="line"/>
			<point x="497" y="188" type="line"/>
			<point x="459" y="188" type="line"/>
			<point x="458" y="62" type="line"/>
			<point x="343" y="62" type="line"/>
			<point x="400" y="136"/>
			<point x="431" y="192"/>
			<point x="449" y="262" type="curve"/>
			<point x="412" y="270" type="line"/>
			<point x="389" y="192"/>
			<point x="354" y="139"/>
			<point x="295" y="62" type="curve"/>
			<point x="295" y="24" type="line"/>
			<point x="457" y="24" type="line"/>
			<point x="457" y="-13" type="line"/>
			<point x="496" y="-13" type="line"/>
			<point x="496" y="24" type="line"/>
		</contour>
	</outline>
</glyph>
<glyph name="Atilde" format="2">
	<advance width="600"/>
	<unicode hex="00C3"/>
	<note>
		Atilde
	</note>
	<outline>
		<contour>
			<point x="232" y="718" type="curve" smooth="yes"/>
			<point x="254" y="718"/>
			<point x="268" y="702"/>
			<point x="286" y="686" type="curve"/>
			<point x="309" y="667"/>
			<point x="330" y="645"/>
			<point x="369" y="645" type="curve" smooth="yes"/>
			<point x="408" y="645"/>
			<point x="440" y="666"/>
			<point x="490" y="726" type="curve"/>
			<point x="455" y="756" type="line"/>
			<point x="415" y="708"/>
			<point x="391" y="690"/>
			<point x="369" y="690" type="curve" smooth="yes"/>
			<point x="347" y="690"/>
			<point x="333" y="706"/>
			<point x="315" y="722" type="curve"/>
			<point x="292" y="741"/>
			<point x="271" y="763"/>
			<point x="232" y="763" type="curve" smooth="yes"/>
			<point x="193" y="763"/>
			<point x="161" y="742"/>
			<point x="111" y="682" type="curve"/>
			<point x="146" y="652" type="line"/>
			<point x="186" y="700"/>
			<point x="210" y="718"/>
		</contour>
		<contour>
			<point x="578" y="50" type="line"/>
			<point x="525" y="50" type="line"/>
			<point x="353" y="556" type="line"/>
			<point x="342" y="590" type="line"/>
			<point x="278" y="590"/>
			<point x="240" y="590"/>
			<point x="177" y="603" type="curve"/>
			<point x="166" y="555" type="line"/>
			<point x="197" y="547"/>
			<point x="228" y="543"/>
			<point x="258" y="541" type="curve"/>
			<point x="74" y="50" type="line"/>
			<point x="21" y="50" type="line"/>
			<point x="21" y="0" type="line"/>
			<point x="209" y="0" type="line"/>
			<point x="209" y="50" type="line"/>
			<point x="126" y="50" type="line"/>
			<point x="187" y="219" type="line"/>
			<point x="416" y="219" type="line"/>
			<point x="473" y="50" type="line"/>
			<point x="390" y="50" type="line"/>
			<point x="390" y="0" type="line"/>
			<point x="578" y="0" type="line"/>
		</contour>
		<contour>
			<point x="399" y="269" type="line"/>
			<point x="205" y="269" type="line"/>
			<point x="303" y="540" type="line"/>
			<point x="306" y="540" type="line"/>
		</contour>
	</outline>
</glyph>
<glyph name="Aring" format="2">
	<advance width="600"/>
	<unicode hex="00C5"/>
	<note>
		Aring
	</note>
	<outline>
		<contour>
			<point x="301" y="632" type="curve" smooth="yes"/>
			<point x="340" y="632"/>
			<point x="375" y="665"/>
			<point x="375" y="703" type="curve" smooth="yes"/>
			<point x="375" y="742"/>
			<point x="340" y="773"/>
			<point x="301" y="773" type="curve" smooth="yes"/>
			<point x="263" y="773"/>
			<point x="229" y="742"/>
			<point x="229" y="703" type="curve" smooth="yes"/>
			<point x="229" y="665"/>
			<point x="263" y="632"/>
		</contour>
		<contour>
			<point x="301" y="741" type="curve" smooth="yes"/>
			<point x="323" y="741"/>
			<point x="342" y="723"/>
			<point x="342" y="702" type="curve" smooth="yes"/>
			<point x="342" y="680"/>
			<point x="323" y="664"/>
			<point x="301" y="664" type="curve" smooth="yes"/>
			<point x="281" y="664"/>
			<point x="262" y="680"/>
			<point x="262" y="702" type="curve" smooth="yes"/>
			<point x="262" y="723"/>
			<point x="281" y="741"/>
		</contour>
		<contour>
			<point x="578" y="50" type="line"/>
			<point x="525" y="50" type="line"/>
			<point x="353" y="556" type="line"/>
			<point x="342" y="590" type="line"/>
			<point x="278" y="590"/>
			<point x="240" y="590"/>
			<point x="177" y="603" type="curve"/>
			<point x="166" y="555" type="line"/>
			<point x="197" y="547"/>
			<point x="228" y="543"/>
			<point x="258" y="541" type="curve"/>
			<point x="74" y="50" type="line"/>
			<point x="21" y="50" type="line"/>
			<point x="21" y="0" type="line"/>
			<point x="209" y="0" type="line"/>
			<point x="209" y="50" type="line"/>
			<point x="126" y="50" type="line"/>
			<point x="187" y="219" type="line"/>
			<point x="416" y="219" type="line"/>
			<point x="473" y="50" type="line"/>
			<point x="390" y="50" type="line"/>
			<point x="390" y="0" type="line"/>
			<point x="578" y="0" type="line"/>
		</contour>
		<contour>
			<point x="399" y="269" type="line"/>
			<point x="205" y="269" type="line"/>
			<point x="303" y="540" type="line"/>
			<point x="306" y="540" type="line"/>
		</contour>
	</outline>
</glyph>
<glyph name="AE" format="2">
	<advance width="600"/>
	<unicode hex="00C6"/>
	<note>
		AE
	</note>
	<outline>
		<contour>
			<point x="10" y="-1" type="line"/>
			<point x="182" y="-1" type="line"/>
			<point x="182" y="49" type="line"/>
			<point x="121" y="49" type="line"/>
			<point x="189" y="268" type="line"/>
			<point x="300" y="268" type="line"/>
			<point x="300" y="0" type="line"/>
			<point x="576" y="0" type="line"/>
			<point x="585" y="97" type="line"/>
			<point x="537" y="102" type="line"/>
			<point x="533" y="49" type="line"/>
			<point x="350" y="49" type="line"/>
			<point x="350" y="268" type="line"/>
			<point x="448" y="268" type="line"/>
			<point x="448" y="182" type="line"/>
			<point x="498" y="182" type="line"/>
			<point x="498" y="407" type="line"/>
			<point x="448" y="407" type="line"/>
			<point x="448" y="318" type="line"/>
			<point x="350" y="318" type="line"/>
			<point x="350" y="540" type="line"/>
			<point x="533" y="540" type="line"/>
			<point x="537" y="488" type="line"/>
			<point x="585" y="493" type="line"/>
			<point x="576" y="590" type="line"/>
			<point x="342" y="590" type="line" smooth="yes"/>
			<point x="278" y="590"/>
			<point x="240" y="590"/>
			<point x="177" y="603" type="curve"/>
			<point x="166" y="555" type="line"/>
			<point x="186.561" y="549.694"/>
			<point x="207.121" y="546.148"/>
			<point x="227.39" y="543.777" type="curve"/>
			<point x="71" y="49" type="line"/>
			<point x="10" y="49" type="line"/>
		</contour>
		<contour>
			<point x="205" y="318" type="line"/>
			<point x="274" y="540" type="line"/>
			<point x="300" y="540" type="line"/>
			<point x="300" y="318" type="line"/>
		</contour>
	</outline>
</glyph>
<glyph name="Ccedilla" format="2">
	<advance width="600"/>
	<unicode hex="00C7"/>
	<note>
		Ccedilla
	</note>
	<outline>
		<contour>
			<point x="584" y="228" type="curve"/>
			<point x="537" y="246" type="line"/>
			<point x="495" y="126"/>
			<point x="413" y="37"/>
			<point x="300" y="37" type="curve" smooth="yes"/>
			<point x="191" y="37"/>
			<point x="83" y="132"/>
			<point x="83" y="290" type="curve" smooth="yes"/>
			<point x="83" y="438"/>
			<point x="174" y="555"/>
			<point x="298" y="553" type="curve" smooth="yes"/>
			<point x="367" y="552"/>
			<point x="444" y="501"/>
			<point x="444" y="438" type="curve"/>
			<point x="426" y="449"/>
			<point x="378" y="434"/>
			<point x="378" y="391" type="curve" smooth="yes"/>
			<point x="378" y="359"/>
			<point x="403" y="333"/>
			<point x="438" y="333" type="curve" smooth="yes"/>
			<point x="472" y="333"/>
			<point x="495" y="365"/>
			<point x="495" y="406" type="curve" smooth="yes"/>
			<point x="495" y="502"/>
			<point x="421" y="603"/>
			<point x="298" y="603" type="curve" smooth="yes"/>
			<point x="146" y="603"/>
			<point x="33" y="476"/>
			<point x="33" y="290" type="curve" smooth="yes"/>
			<point x="33" y="116"/>
			<point x="139" y="2"/>
			<point x="273" y="-12" type="curve"/>
			<point x="273" y="-71" type="line"/>
			<point x="288" y="-72" type="line" smooth="yes"/>
			<point x="325" y="-74"/>
			<point x="350" y="-82"/>
			<point x="350" y="-102" type="curve" smooth="yes"/>
			<point x="350" y="-128"/>
			<point x="292" y="-136"/>
			<point x="257" y="-136" type="curve" smooth="yes"/>
			<point x="218" y="-136"/>
			<point x="182" y="-116"/>
			<point x="177" y="-96" type="curve"/>
			<point x="199" y="-104"/>
			<point x="207" y="-85"/>
			<point x="207" y="-70" type="curve" smooth="yes"/>
			<point x="207" y="-54"/>
			<point x="190" y="-44"/>
			<point x="176" y="-44" type="curve" smooth="yes"/>
			<point x="154" y="-44"/>
			<point x="138" y="-60"/>
			<point x="138" y="-92" type="curve" smooth="yes"/>
			<point x="138" y="-128"/>
			<point x="175" y="-173"/>
			<point x="257" y="-173" type="curve" smooth="yes"/>
			<point x="315" y="-173"/>
			<point x="393" y="-156"/>
			<point x="393" y="-102" type="curve" smooth="yes"/>
			<point x="393" y="-60"/>
			<point x="357" y="-44"/>
			<point x="315" y="-37" type="curve"/>
			<point x="315" y="-13" type="line"/>
			<point x="447" y="-6"/>
			<point x="531" y="84"/>
		</contour>
	</outline>
</glyph>
<glyph name="Egrave" format="2">
	<advance width="600"/>
	<unicode hex="00C8"/>
	<note>
		Egrave
	</note>
	<outline>
		<contour>
			<point x="465" y="637" type="line"/>
			<point x="473" y="670" type="line"/>
			<point x="162" y="745" type="line"/>
			<point x="150" y="698" type="line"/>
		</contour>
		<contour>
			<point x="205" y="268" type="line"/>
			<point x="205" y="50" type="line"/>
			<point x="491" y="50" type="line"/>
			<point x="505" y="222" type="line"/>
			<point x="554" y="217" type="line"/>
			<point x="534" y="0" type="line"/>
			<point x="31" y="0" type="line"/>
			<point x="31" y="50" type="line"/>
			<point x="155" y="50" type="line"/>
			<point x="155" y="540" type="line"/>
			<point x="31" y="540" type="line"/>
			<point x="31" y="590" type="line"/>
			<point x="534" y="590" type="line"/>
			<point x="554" y="373" type="line"/>
			<point x="505" y="368" type="line"/>
			<point x="491" y="540" type="line"/>
			<point x="205" y="540" type="line"/>
			<point x="205" y="318" type="line"/>
			<point x="356" y="318" type="line"/>
			<point x="356" y="427" type="line"/>
			<point x="406" y="427" type="line"/>
			<point x="406" y="162" type="line"/>
			<point x="356" y="162" type="line"/>
			<point x="356" y="268" type="line"/>
		</contour>
	</outline>
</glyph>
<glyph name="Eth" format="2">
	<advance width="600"/>
	<unicode hex="00D0"/>
	<note>
		Eth
	</note>
	<outline>
		<contour>
			<point x="27" y="603" type="curve"/>
			<point x="15" y="555" type="line"/>
			<point x="50" y="548"/>
			<point x="89" y="543"/>
			<point x="122" y="541" type="curve"/>
			<point x="122" y="318" type="line"/>
			<point x="38" y="318" type="line"/>
			<point x="38" y="268" type="line"/>
			<point x="122" y="268" type="line"/>
			<point x="122" y="50" type="line"/>
			<point x="38" y="50" type="line"/>
			<point x="38" y="0" type="line"/>
			<point x="139" y="0" type="line"/>
			<point x="297" y="-2" type="line" smooth="yes"/>
			<point x="442" y="-4"/>
			<point x="574" y="106"/>
			<point x="574" y="292" type="curve" smooth="yes"/>
			<point x="574" y="478"/>
			<point x="442" y="593"/>
			<point x="297" y="593" type="curve" smooth="yes"/>
			<point x="258" y="593"/>
			<point x="182" y="590"/>
			<point x="137" y="590" type="curve" smooth="yes"/>
			<point x="101" y="590"/>
			<point x="70" y="595"/>
		</contour>
		<contour>
			<point x="172" y="50" type="curve"/>
			<point x="172" y="268" type="line"/>
			<point x="303" y="268" type="line"/>
			<point x="303" y="318" type="line"/>
			<point x="172" y="318" type="line"/>
			<point x="172" y="540" type="line"/>
			<point x="172" y="540"/>
			<point x="251" y="543"/>
			<point x="296" y="543" type="curve" smooth="yes"/>
			<point x="414" y="543"/>
			<point x="524" y="450"/>
			<point x="523" y="292" type="curve" smooth="yes"/>
			<point x="522" y="134"/>
			<point x="414" y="48"/>
			<point x="296" y="48" type="curve" smooth="yes"/>
			<point x="248" y="48"/>
			<point x="172" y="50"/>
		</contour>
	</outline>
</glyph>
<glyph name="Ntilde" format="2">
	<advance width="600"/>
	<unicode hex="00D1"/>
	<note>
		Ntilde
	</note>
	<outline>
		<contour>
			<point x="229" y="718" type="curve" smooth="yes"/>
			<point x="251" y="718"/>
			<point x="265" y="702"/>
			<point x="283" y="686" type="curve"/>
			<point x="306" y="667"/>
			<point x="327" y="645"/>
			<point x="366" y="645" type="curve" smooth="yes"/>
			<point x="405" y="645"/>
			<point x="437" y="666"/>
			<point x="487" y="726" type="curve"/>
			<point x="452" y="756" type="line"/>
			<point x="412" y="708"/>
			<point x="388" y="690"/>
			<point x="366" y="690" type="curve" smooth="yes"/>
			<point x="344" y="690"/>
			<point x="330" y="706"/>
			<point x="312" y="722" type="curve"/>
			<point x="289" y="741"/>
			<point x="268" y="763"/>
			<point x="229" y="763" type="curve" smooth="yes"/>
			<point x="190" y="763"/>
			<point x="158" y="742"/>
			<point x="108" y="682" type="curve"/>
			<point x="143" y="652" type="line"/>
			<point x="183" y="700"/>
			<point x="207" y="718"/>
		</contour>
		<contour>
			<point x="577" y="590" type="line"/>
			<point x="373" y="590" type="line"/>
			<point x="373" y="540" type="line"/>
			<point x="450" y="540" type="line"/>
			<point x="450" y="49" type="line"/>
			<point x="186" y="590" type="line"/>
			<point x="122" y="590"/>
			<point x="84" y="590"/>
			<point x="21" y="603" type="curve"/>
			<point x="10" y="555" type="line"/>
			<point x="41" y="547"/>
			<point x="73" y="543"/>
			<point x="103" y="541" type="curve"/>
			<point x="103" y="50" type="line"/>
			<point x="26" y="50" type="line"/>
			<point x="26" y="0" type="line"/>
			<point x="231" y="0" type="line"/>
			<point x="231" y="50" type="line"/>
			<point x="154" y="50" type="line"/>
			<point x="154" y="540" type="line"/>
			<point x="155" y="540" type="line"/>
			<point x="418" y="0" type="line"/>
			<point x="500" y="0" type="line"/>
			<point x="500" y="540" type="line"/>
			<point x="577" y="540" type="line"/>
		</contour>
	</outline>
</glyph>
<glyph name="Ograve" format="2">
	<advance width="600"/>
	<unicode hex="00D2"/>
	<note>
		Ograve
	</note>
	<outline>
		<contour>
			<point x="462" y="650" type="line"/>
			<point x="470" y="683" type="line"/>
			<point x="159" y="758" type="line"/>
			<point x="147" y="711" type="line"/>
		</contour>
		<contour>
			<point x="296" y="-13" type="curve" smooth="yes"/>
			<point x="451" y="-13"/>
			<point x="573" y="104"/>
			<point x="573" y="290" type="curve" smooth="yes"/>
			<point x="573" y="476"/>
			<point x="451" y="603"/>
			<point x="296" y="603" type="curve" smooth="yes"/>
			<point x="150" y="603"/>
			<point x="28" y="476"/>
			<point x="28" y="290" type="curve" smooth="yes"/>
			<point x="28" y="104"/>
			<point x="150" y="-13"/>
		</contour>
		<contour>
			<point x="296" y="37" type="curve" smooth="yes"/>
			<point x="181" y="37"/>
			<point x="78" y="132"/>
			<point x="78" y="290" type="curve" smooth="yes"/>
			<point x="78" y="448"/>
			<point x="181" y="554"/>
			<point x="296" y="553" type="curve" smooth="yes"/>
			<point x="419" y="552"/>
			<point x="524" y="448"/>
			<point x="523" y="290" type="curve" smooth="yes"/>
			<point x="522" y="132"/>
			<point x="419" y="37"/>
		</contour>
	</outline>
</glyph>
<glyph name="Ocircumflex" format="2">
	<advance width="600"/>
	<unicode hex="00D4"/>
	<note>
		Ocircumflex
	</note>
	<outline>
		<contour>
			<point x="509" y="673" type="line"/>
			<point x="297" y="764" type="line"/>
			<point x="85" y="673" type="line"/>
			<point x="97" y="645" type="line"/>
			<point x="297" y="710" type="line"/>
			<point x="497" y="645" type="line"/>
		</contour>
		<contour>
			<point x="296" y="-13" type="curve" smooth="yes"/>
			<point x="451" y="-13"/>
			<point x="573" y="104"/>
			<point x="573" y="290" type="curve" smooth="yes"/>
			<point x="573" y="476"/>
			<point x="451" y="603"/>
			<point x="296" y="603" type="curve" smooth="yes"/>
			<point x="150" y="603"/>
			<point x="28" y="476"/>
			<point x="28" y="290" type="curve" smooth="yes"/>
			<point x="28" y="104"/>
			<point x="150" y="-13"/>
		</contour>
		<contour>
			<point x="296" y="37" type="curve" smooth="yes"/>
			<point x="181" y="37"/>
			<point x="78" y="132"/>
			<point x="78" y="290" type="curve" smooth="yes"/>
			<point x="78" y="448"/>
			<point x="181" y="554"/>
			<point x="296" y="553" type="curve" smooth="yes"/>
			<point x="419" y="552"/>
			<point x="524" y="448"/>
			<point x="523" y="290" type="curve" smooth="yes"/>
			<point x="522" y="132"/>
			<point x="419" y="37"/>
		</contour>
	</outline>
</glyph>
<glyph name="Otilde" format="2">
	<advance width="600"/>
	<unicode hex="00D5"/>
	<note>
		Otilde
	</note>
	<outline>
		<contour>
			<point x="311" y="735" type="curve"/>
			<point x="288" y="754"/>
			<point x="267" y="776"/>
			<point x="228" y="776" type="curve" smooth="yes"/>
			<point x="189" y="776"/>
			<point x="157" y="755"/>
			<point x="107" y="695" type="curve"/>
			<point x="142" y="665" type="line"/>
			<point x="182" y="713"/>
			<point x="206" y="731"/>
			<point x="228" y="731" type="curve" smooth="yes"/>
			<point x="250" y="731"/>
			<point x="264" y="715"/>
			<point x="282" y="699" type="curve"/>
			<point x="305" y="680"/>
			<point x="326" y="658"/>
			<point x="365" y="658" type="curve" smooth="yes"/>
			<point x="404" y="658"/>
			<point x="436" y="679"/>
			<point x="486" y="739" type="curve"/>
			<point x="451" y="769" type="line"/>
			<point x="411" y="721"/>
			<point x="387" y="703"/>
			<point x="365" y="703" type="curve" smooth="yes"/>
			<point x="343" y="703"/>
			<point x="329" y="719"/>
		</contour>
		<contour>
			<point x="296" y="-13" type="curve" smooth="yes"/>
			<point x="451" y="-13"/>
			<point x="573" y="104"/>
			<point x="573" y="290" type="curve" smooth="yes"/>
			<point x="573" y="476"/>
			<point x="451" y="603"/>
			<point x="296" y="603" type="curve" smooth="yes"/>
			<point x="150" y="603"/>
			<point x="28" y="476"/>
			<point x="28" y="290" type="curve" smooth="yes"/>
			<point x="28" y="104"/>
			<point x="150" y="-13"/>
		</contour>
		<contour>
			<point x="296" y="37" type="curve" smooth="yes"/>
			<point x="181" y="37"/>
			<point x="78" y="132"/>
			<point x="78" y="290" type="curve" smooth="yes"/>
			<point x="78" y="448"/>
			<point x="181" y="554"/>
			<point x="296" y="553" type="curve" smooth="yes"/>
			<point x="419" y="552"/>
			<point x="524" y="448"/>
			<point x="523" y="290" type="curve" smooth="yes"/>
			<point x="522" y="132"/>
			<point x="419" y="37"/>
		</contour>
	</outline>
</glyph>
<glyph name="Yacute" format="2">
	<advance width="600"/>
	<unicode hex="00DD"/>
	<note>
		Yacute
	</note>
	<outline>
		<contour>
			<point x="443" y="740" type="line"/>
			<point x="132" y="665" type="line"/>
			<point x="140" y="632" type="line"/>
			<point x="455" y="693" type="line"/>
		</contour>
		<contour>
			<point x="105" y="540" type="line"/>
			<point x="27" y="540" type="line"/>
			<point x="27" y="590" type="line"/>
			<point x="239" y="590" type="line"/>
			<point x="239" y="540" type="line"/>
			<point x="159" y="540" type="line"/>
			<point x="300" y="278" type="line"/>
			<point x="440" y="540" type="line"/>
			<point x="360" y="540" type="line"/>
			<point x="360" y="590" type="line"/>
			<point x="572" y="590" type="line"/>
			<point x="572" y="540" type="line"/>
			<point x="494" y="540" type="line"/>
			<point x="324" y="230" type="line"/>
			<point x="324" y="50" type="line"/>
			<point x="439" y="50" type="line"/>
			<point x="439" y="0" type="line"/>
			<point x="159" y="0" type="line"/>
			<point x="159" y="50" type="line"/>
			<point x="274" y="50" type="line"/>
			<point x="274" y="230" type="line"/>
		</contour>
	</outline>
</glyph>
<glyph name="agrave" format="2">
	<advance width="600"/>
	<unicode hex="00E0"/>
	<note>
		agrave
	</note>
	<outline>
		<contour>
			<point x="448" y="477" type="line"/>
			<point x="456" y="510" type="line"/>
			<point x="145" y="585" type="line"/>
			<point x="133" y="538" type="line"/>
		</contour>
		<contour>
			<point x="570" y="107" type="curve"/>
			<point x="526" y="128" type="line"/>
			<point x="495" y="55"/>
			<point x="486" y="37"/>
			<point x="469" y="37" type="curve" smooth="yes"/>
			<point x="458" y="37"/>
			<point x="452" y="50"/>
			<point x="452" y="77" type="curve" smooth="yes"/>
			<point x="452" y="313" type="line" smooth="yes"/>
			<point x="452" y="411"/>
			<point x="335" y="442"/>
			<point x="255" y="442" type="curve" smooth="yes"/>
			<point x="188" y="442"/>
			<point x="80" y="413"/>
			<point x="80" y="333" type="curve" smooth="yes"/>
			<point x="80" y="296"/>
			<point x="99" y="271"/>
			<point x="132" y="271" type="curve" smooth="yes"/>
			<point x="165" y="271"/>
			<point x="184" y="291"/>
			<point x="184" y="320" type="curve" smooth="yes"/>
			<point x="184" y="346"/>
			<point x="154" y="367"/>
			<point x="136" y="358" type="curve"/>
			<point x="151" y="383"/>
			<point x="209" y="392"/>
			<point x="255" y="392" type="curve" smooth="yes"/>
			<point x="303" y="392"/>
			<point x="402" y="380"/>
			<point x="402" y="313" type="curve" smooth="yes"/>
			<point x="402" y="268"/>
			<point x="373" y="257"/>
			<point x="253" y="254" type="curve" smooth="yes"/>
			<point x="145" y="251"/>
			<point x="42" y="213"/>
			<point x="43" y="115" type="curve" smooth="yes"/>
			<point x="44" y="23"/>
			<point x="110" y="-13"/>
			<point x="187" y="-13" type="curve" smooth="yes"/>
			<point x="271" y="-13"/>
			<point x="328" y="18"/>
			<point x="402" y="77" type="curve"/>
			<point x="400" y="13"/>
			<point x="433" y="-13"/>
			<point x="469" y="-13" type="curve" smooth="yes"/>
			<point x="510" y="-13"/>
			<point x="532" y="11"/>
		</contour>
		<contour>
			<point x="402" y="235" type="curve"/>
			<point x="402" y="139" type="line"/>
			<point x="321" y="69"/>
			<point x="265" y="37"/>
			<point x="188" y="37" type="curve" smooth="yes"/>
			<point x="128" y="37"/>
			<point x="93" y="62"/>
			<point x="93" y="117" type="curve" smooth="yes"/>
			<point x="93" y="177"/>
			<point x="165" y="203"/>
			<point x="252" y="204" type="curve" smooth="yes"/>
			<point x="341" y="205"/>
			<point x="372" y="218"/>
		</contour>
	</outline>
</glyph>
<glyph name="atilde" format="2">
	<advance width="600"/>
	<unicode hex="00E3"/>
	<note>
		atilde
	</note>
	<outline>
		<contour>
			<point x="297" y="562" type="curve"/>
			<point x="274" y="581"/>
			<point x="253" y="603"/>
			<point x="214" y="603" type="curve" smooth="yes"/>
			<point x="175" y="603"/>
			<point x="143" y="582"/>
			<point x="93" y="522" type="curve"/>
			<point x="128" y="492" type="line"/>
			<point x="168" y="540"/>
			<point x="192" y="558"/>
			<point x="214" y="558" type="curve" smooth="yes"/>
			<point x="236" y="558"/>
			<point x="250" y="542"/>
			<point x="268" y="526" type="curve"/>
			<point x="291" y="507"/>
			<point x="312" y="485"/>
			<point x="351" y="485" type="curve" smooth="yes"/>
			<point x="390" y="485"/>
			<point x="422" y="506"/>
			<point x="472" y="566" type="curve"/>
			<point x="437" y="596" type="line"/>
			<point x="397" y="548"/>
			<point x="373" y="530"/>
			<point x="351" y="530" type="curve" smooth="yes"/>
			<point x="329" y="530"/>
			<point x="315" y="546"/>
		</contour>
		<contour>
			<point x="570" y="107" type="curve"/>
			<point x="526" y="128" type="line"/>
			<point x="495" y="55"/>
			<point x="486" y="37"/>
			<point x="469" y="37" type="curve" smooth="yes"/>
			<point x="458" y="37"/>
			<point x="452" y="50"/>
			<point x="452" y="77" type="curve" smooth="yes"/>
			<point x="452" y="313" type="line" smooth="yes"/>
			<point x="452" y="411"/>
			<point x="335" y="442"/>
			<point x="255" y="442" type="curve" smooth="yes"/>
			<point x="188" y="442"/>
			<point x="80" y="413"/>
			<point x="80" y="333" type="curve" smooth="yes"/>
			<point x="80" y="296"/>
			<point x="99" y="271"/>
			<point x="132" y="271" type="curve" smooth="yes"/>
			<point x="165" y="271"/>
			<point x="184" y="291"/>
			<point x="184" y="320" type="curve" smooth="yes"/>
			<point x="184" y="346"/>
			<point x="154" y="367"/>
			<point x="136" y="358" type="curve"/>
			<point x="151" y="383"/>
			<point x="209" y="392"/>
			<point x="255" y="392" type="curve" smooth="yes"/>
			<point x="303" y="392"/>
			<point x="402" y="380"/>
			<point x="402" y="313" type="curve" smooth="yes"/>
			<point x="402" y="268"/>
			<point x="373" y="257"/>
			<point x="253" y="254" type="curve" smooth="yes"/>
			<point x="145" y="251"/>
			<point x="42" y="213"/>
			<point x="43" y="115" type="curve" smooth="yes"/>
			<point x="44" y="23"/>
			<point x="110" y="-13"/>
			<point x="187" y="-13" type="curve" smooth="yes"/>
			<point x="271" y="-13"/>
			<point x="328" y="18"/>
			<point x="402" y="77" type="curve"/>
			<point x="400" y="13"/>
			<point x="433" y="-13"/>
			<point x="469" y="-13" type="curve" smooth="yes"/>
			<point x="510" y="-13"/>
			<point x="532" y="11"/>
		</contour>
		<contour>
			<point x="402" y="235" type="curve"/>
			<point x="402" y="139" type="line"/>
			<point x="321" y="69"/>
			<point x="265" y="37"/>
			<point x="188" y="37" type="curve" smooth="yes"/>
			<point x="128" y="37"/>
			<point x="93" y="62"/>
			<point x="93" y="117" type="curve" smooth="yes"/>
			<point x="93" y="177"/>
			<point x="165" y="203"/>
			<point x="252" y="204" type="curve" smooth="yes"/>
			<point x="341" y="205"/>
			<point x="372" y="218"/>
		</contour>
	</outline>
</glyph>
<glyph name="ae" format="2">
	<advance width="600"/>
	<unicode hex="00E6"/>
	<note>
		ae
	</note>
	<outline>
		<contour>
			<point x="597" y="139" type="curve"/>
			<point x="552" y="162" type="line"/>
			<point x="499" y="64"/>
			<point x="467" y="37"/>
			<point x="411" y="37" type="curve" smooth="yes"/>
			<point x="351" y="37"/>
			<point x="305" y="119"/>
			<point x="305" y="217" type="curve"/>
			<point x="586" y="217" type="line"/>
			<point x="586" y="237" type="line" smooth="yes"/>
			<point x="586" y="373"/>
			<point x="515" y="442"/>
			<point x="427" y="442" type="curve" smooth="yes"/>
			<point x="378" y="442"/>
			<point x="330" y="423"/>
			<point x="297" y="379" type="curve"/>
			<point x="269" y="425"/>
			<point x="207" y="443"/>
			<point x="148" y="443" type="curve" smooth="yes"/>
			<point x="101" y="443"/>
			<point x="15" y="413"/>
			<point x="15" y="334" type="curve" smooth="yes"/>
			<point x="15" y="298"/>
			<point x="32" y="281"/>
			<point x="58" y="281" type="curve" smooth="yes"/>
			<point x="85" y="281"/>
			<point x="104" y="297"/>
			<point x="104" y="323" type="curve" smooth="yes"/>
			<point x="104" y="349"/>
			<point x="80" y="368"/>
			<point x="62" y="359" type="curve"/>
			<point x="75" y="384"/>
			<point x="122" y="393"/>
			<point x="148" y="393" type="curve" smooth="yes"/>
			<point x="196" y="393"/>
			<point x="263" y="381"/>
			<point x="263" y="312" type="curve" smooth="yes"/>
			<point x="263" y="269"/>
			<point x="222" y="262"/>
			<point x="163" y="260" type="curve" smooth="yes"/>
			<point x="90" y="258"/>
			<point x="6" y="214"/>
			<point x="6" y="117" type="curve" smooth="yes"/>
			<point x="6" y="24"/>
			<point x="80" y="-12"/>
			<point x="127" y="-12" type="curve" smooth="yes"/>
			<point x="186" y="-12"/>
			<point x="224" y="8"/>
			<point x="280" y="80" type="curve"/>
			<point x="305" y="24"/>
			<point x="348" y="-12"/>
			<point x="411" y="-12" type="curve" smooth="yes"/>
			<point x="473" y="-12"/>
			<point x="527" y="9"/>
		</contour>
		<contour>
			<point x="427" y="392" type="curve" smooth="yes"/>
			<point x="489" y="392"/>
			<point x="526" y="342"/>
			<point x="533" y="267" type="curve"/>
			<point x="308" y="267" type="line"/>
			<point x="314" y="342"/>
			<point x="365" y="392"/>
		</contour>
		<contour>
			<point x="128" y="38" type="curve" smooth="yes"/>
			<point x="94" y="37"/>
			<point x="56" y="62"/>
			<point x="56" y="118" type="curve" smooth="yes"/>
			<point x="56" y="178"/>
			<point x="110" y="209"/>
			<point x="162" y="211" type="curve" smooth="yes"/>
			<point x="204" y="213"/>
			<point x="232" y="214"/>
			<point x="254" y="226" type="curve"/>
			<point x="254" y="217" type="line" smooth="yes"/>
			<point x="254" y="185"/>
			<point x="257" y="155"/>
			<point x="264" y="128" type="curve"/>
			<point x="214" y="63"/>
			<point x="181" y="40"/>
		</contour>
	</outline>
</glyph>
<glyph name="igrave" format="2">
	<advance width="600"/>
	<unicode hex="00EC"/>
	<note>
		igrave
	</note>
	<outline>
		<contour>
			<point x="471" y="477" type="line"/>
			<point x="479" y="510" type="line"/>
			<point x="168" y="585" type="line"/>
			<point x="156" y="538" type="line"/>
		</contour>
		<contour>
			<point x="509" y="50" type="line"/>
			<point x="331" y="50" type="line"/>
			<point x="331" y="430" type="line"/>
			<point x="281" y="430" type="line"/>
			<point x="281" y="50" type="line"/>
			<point x="90" y="50" type="line"/>
			<point x="90" y="0" type="line"/>
			<point x="509" y="0" type="line"/>
		</contour>
	</outline>
</glyph>
<glyph name="iacute" format="2">
	<advance width="600"/>
	<unicode hex="00ED"/>
	<note>
		iacute
	</note>
	<outline>
		<contour>
			<point x="449" y="580" type="line"/>
			<point x="138" y="505" type="line"/>
			<point x="146" y="472" type="line"/>
			<point x="461" y="533" type="line"/>
		</contour>
		<contour>
			<point x="509" y="50" type="line"/>
			<point x="331" y="50" type="line"/>
			<point x="331" y="430" type="line"/>
			<point x="281" y="430" type="line"/>
			<point x="281" y="50" type="line"/>
			<point x="90" y="50" type="line"/>
			<point x="90" y="0" type="line"/>
			<point x="509" y="0" type="line"/>
		</contour>
	</outline>
</glyph>
<glyph name="idieresis" format="2">
	<advance width="600"/>
	<unicode hex="00EF"/>
	<outline>
		<contour>
			<point x="218" y="478" type="curve" smooth="yes"/>
			<point x="246" y="478"/>
			<point x="269" y="502"/>
			<point x="269" y="529" type="curve" smooth="yes"/>
			<point x="269" y="556"/>
			<point x="246" y="580"/>
			<point x="218" y="580" type="curve" smooth="yes"/>
			<point x="190" y="580"/>
			<point x="166" y="556"/>
			<point x="166" y="529" type="curve" smooth="yes"/>
			<point x="166" y="502"/>
			<point x="190" y="478"/>
		</contour>
		<contour>
			<point x="400" y="478" type="curve" smooth="yes"/>
			<point x="428" y="478"/>
			<point x="451" y="502"/>
			<point x="451" y="529" type="curve" smooth="yes"/>
			<point x="451" y="556"/>
			<point x="428" y="580"/>
			<point x="400" y="580" type="curve" smooth="yes"/>
			<point x="372" y="580"/>
			<point x="348" y="556"/>
			<point x="348" y="529" type="curve" smooth="yes"/>
			<point x="348" y="502"/>
			<point x="372" y="478"/>
		</contour>
		<contour>
			<point x="509" y="50" type="line"/>
			<point x="331" y="50" type="line"/>
			<point x="331" y="430" type="line"/>
			<point x="281" y="430" type="line"/>
			<point x="281" y="50" type="line"/>
			<point x="90" y="50" type="line"/>
			<point x="90" y="0" type="line"/>
			<point x="509" y="0" type="line"/>
		</contour>
	</outline>
</glyph>
<glyph name="eth" format="2">
	<advance width="600"/>
	<unicode hex="00F0"/>
	<note>
		eth
	</note>
	<outline>
		<contour>
			<point x="573" y="109" type="line"/>
			<point x="527" y="128" type="line"/>
			<point x="496" y="55"/>
			<point x="487" y="37"/>
			<point x="471" y="37" type="curve" smooth="yes"/>
			<point x="459" y="37"/>
			<point x="453" y="45"/>
			<point x="453" y="72" type="curve" smooth="yes"/>
			<point x="453" y="453" type="line"/>
			<point x="518" y="453" type="line"/>
			<point x="518" y="503" type="line"/>
			<point x="453" y="503" type="line"/>
			<point x="453" y="590" type="line"/>
			<point x="300" y="590" type="line"/>
			<point x="300" y="540" type="line"/>
			<point x="403" y="540" type="line"/>
			<point x="403" y="503" type="line"/>
			<point x="241" y="503" type="line"/>
			<point x="241" y="453" type="line"/>
			<point x="403" y="453" type="line"/>
			<point x="403" y="317" type="line"/>
			<point x="364" y="365"/>
			<point x="310" y="413"/>
			<point x="241" y="413" type="curve" smooth="yes"/>
			<point x="118" y="413"/>
			<point x="37" y="293"/>
			<point x="37" y="185" type="curve" smooth="yes"/>
			<point x="37" y="79"/>
			<point x="118" y="-13"/>
			<point x="241" y="-13" type="curve" smooth="yes"/>
			<point x="309" y="-13"/>
			<point x="364" y="37"/>
			<point x="403" y="85" type="curve"/>
			<point x="403" y="79" type="line"/>
			<point x="400" y="5"/>
			<point x="432" y="-13"/>
			<point x="468" y="-13" type="curve" smooth="yes"/>
			<point x="507" y="-13"/>
			<point x="532" y="16"/>
			<point x="543" y="41" type="curve" smooth="yes"/>
		</contour>
		<contour>
			<point x="242" y="37" type="curve" smooth="yes"/>
			<point x="145" y="38"/>
			<point x="87" y="107"/>
			<point x="88" y="185" type="curve" smooth="yes"/>
			<point x="88" y="186" type="line"/>
			<point x="88" y="187" type="line" smooth="yes"/>
			<point x="88" y="265"/>
			<point x="146" y="362"/>
			<point x="242" y="363" type="curve" smooth="yes"/>
			<point x="310" y="364"/>
			<point x="348" y="306"/>
			<point x="403" y="248" type="curve"/>
			<point x="403" y="154" type="line"/>
			<point x="348" y="96"/>
			<point x="310" y="36"/>
		</contour>
	</outline>
</glyph>
<glyph name="odieresis" format="2">
	<advance width="600"/>
	<unicode hex="00F6"/>
	<note>
		odieresis
	</note>
	<outline>
		<contour>
			<point x="300" y="-13" type="curve" smooth="yes"/>
			<point x="430" y="-13"/>
			<point x="537" y="89"/>
			<point x="537" y="215" type="curve" smooth="yes"/>
			<point x="537" y="341"/>
			<point x="430" y="443"/>
			<point x="300" y="443" type="curve" smooth="yes"/>
			<point x="169" y="443"/>
			<point x="62" y="341"/>
			<point x="62" y="215" type="curve" smooth="yes"/>
			<point x="62" y="89"/>
			<point x="169" y="-13"/>
		</contour>
		<contour>
			<point x="299" y="37" type="curve" smooth="yes"/>
			<point x="196" y="37"/>
			<point x="112" y="117"/>
			<point x="112" y="215" type="curve" smooth="yes"/>
			<point x="112" y="313"/>
			<point x="196" y="394"/>
			<point x="299" y="393" type="curve" smooth="yes"/>
			<point x="402" y="392"/>
			<point x="488" y="313"/>
			<point x="487" y="215" type="curve" smooth="yes"/>
			<point x="486" y="117"/>
			<point x="402" y="37"/>
		</contour>
		<contour>
			<point x="209" y="478" type="curve" smooth="yes"/>
			<point x="237" y="478"/>
			<point x="260" y="502"/>
			<point x="260" y="529" type="curve" smooth="yes"/>
			<point x="260" y="556"/>
			<point x="237" y="580"/>
			<point x="209" y="580" type="curve" smooth="yes"/>
			<point x="181" y="580"/>
			<point x="157" y="556"/>
			<point x="157" y="529" type="curve" smooth="yes"/>
			<point x="157" y="502"/>
			<point x="181" y="478"/>
		</contour>
		<contour>
			<point x="391" y="478" type="curve" smooth="yes"/>
			<point x="419" y="478"/>
			<point x="442" y="502"/>
			<point x="442" y="529" type="curve" smooth="yes"/>
			<point x="442" y="556"/>
			<point x="419" y="580"/>
			<point x="391" y="580" type="curve" smooth="yes"/>
			<point x="363" y="580"/>
			<point x="339" y="556"/>
			<point x="339" y="529" type="curve" smooth="yes"/>
			<point x="339" y="502"/>
			<point x="363" y="478"/>
		</contour>
	</outline>
</glyph>
<glyph name="divide" format="2">
	<advance width="600"/>
	<unicode hex="00F7"/>
	<note>
		divide
	</note>
	<outline>
		<contour>
			<point x="302" y="308" type="curve" smooth="yes"/>
			<point x="339" y="308"/>
			<point x="367" y="339"/>
			<point x="367" y="374" type="curve" smooth="yes"/>
			<point x="367" y="410"/>
			<point x="339" y="441"/>
			<point x="302" y="441" type="curve" smooth="yes"/>
			<point x="265" y="441"/>
			<point x="234" y="410"/>
			<point x="234" y="374" type="curve" smooth="yes"/>
			<point x="234" y="339"/>
			<point x="265" y="308"/>
		</contour>
		<contour>
			<point x="60" y="190" type="line"/>
			<point x="541" y="190" type="line"/>
			<point x="541" y="240" type="line"/>
			<point x="60" y="240" type="line"/>
		</contour>
		<contour>
			<point x="302" y="-11" type="curve" smooth="yes"/>
			<point x="339" y="-11"/>
			<point x="367" y="20"/>
			<point x="367" y="55" type="curve" smooth="yes"/>
			<point x="367" y="91"/>
			<point x="339" y="122"/>
			<point x="302" y="122" type="curve" smooth="yes"/>
			<point x="265" y="122"/>
			<point x="234" y="91"/>
			<point x="234" y="55" type="curve" smooth="yes"/>
			<point x="234" y="20"/>
			<point x="265" y="-11"/>
		</contour>
	</outline>
</glyph>
<glyph name="yacute" format="2">
	<advance width="600"/>
	<unicode hex="00FD"/>
	<note>
		yacute
	</note>
	<outline>
		<contour>
			<point x="433" y="580" type="line"/>
			<point x="122" y="505" type="line"/>
			<point x="130" y="472" type="line"/>
			<point x="445" y="533" type="line"/>
		</contour>
		<contour>
			<point x="43" y="-48" type="curve" smooth="yes"/>
			<point x="43" y="-130"/>
			<point x="97" y="-173"/>
			<point x="160" y="-173" type="curve" smooth="yes"/>
			<point x="218" y="-173"/>
			<point x="274" y="-157"/>
			<point x="338" y="0" type="curve" smooth="yes"/>
			<point x="494" y="380" type="line"/>
			<point x="571" y="380" type="line"/>
			<point x="571" y="430" type="line"/>
			<point x="362" y="430" type="line"/>
			<point x="362" y="380" type="line"/>
			<point x="439" y="380" type="line"/>
			<point x="311" y="63" type="line"/>
			<point x="182" y="380" type="line"/>
			<point x="259" y="380" type="line"/>
			<point x="259" y="430" type="line"/>
			<point x="50" y="430" type="line"/>
			<point x="50" y="380" type="line"/>
			<point x="127" y="380" type="line"/>
			<point x="282" y="0" type="line"/>
			<point x="264" y="-40" type="line" smooth="yes"/>
			<point x="238" y="-99"/>
			<point x="206" y="-124"/>
			<point x="166" y="-124" type="curve" smooth="yes"/>
			<point x="112" y="-124"/>
			<point x="91" y="-87"/>
			<point x="94" y="-44" type="curve"/>
			<point x="103" y="-61"/>
			<point x="119" y="-67"/>
			<point x="140" y="-66" type="curve" smooth="yes"/>
			<point x="165" y="-65"/>
			<point x="184" y="-46"/>
			<point x="184" y="-12" type="curve" smooth="yes"/>
			<point x="184" y="20"/>
			<point x="156" y="42"/>
			<point x="122" y="42" type="curve" smooth="yes"/>
			<point x="79" y="42"/>
			<point x="43" y="2"/>
		</contour>
	</outline>
</glyph>
<glyph name="thorn" format="2">
	<advance width="600"/>
	<unicode hex="00FE"/>
	<note>
		thorn
	</note>
	<outline>
		<contour>
			<point x="46" y="541" type="line"/>
			<point x="135" y="541" type="line"/>
			<point x="135" y="-110" type="line"/>
			<point x="48" y="-110" type="line"/>
			<point x="48" y="-160" type="line"/>
			<point x="288" y="-160" type="line"/>
			<point x="288" y="-110" type="line"/>
			<point x="185" y="-110" type="line"/>
			<point x="185" y="85" type="line"/>
			<point x="224" y="30"/>
			<point x="285" y="-13"/>
			<point x="354" y="-13" type="curve" smooth="yes"/>
			<point x="477" y="-13"/>
			<point x="560" y="87"/>
			<point x="560" y="214" type="curve" smooth="yes"/>
			<point x="560" y="341"/>
			<point x="477" y="443"/>
			<point x="354" y="443" type="curve" smooth="yes"/>
			<point x="286" y="443"/>
			<point x="225" y="400"/>
			<point x="185" y="345" type="curve"/>
			<point x="185" y="591" type="line"/>
			<point x="46" y="591" type="line"/>
		</contour>
		<contour>
			<point x="185" y="158" type="curve"/>
			<point x="185" y="272" type="line"/>
			<point x="241" y="337"/>
			<point x="288" y="393"/>
			<point x="354" y="393" type="curve" smooth="yes"/>
			<point x="448" y="393"/>
			<point x="511" y="316"/>
			<point x="510" y="214" type="curve" smooth="yes"/>
			<point x="509" y="115"/>
			<point x="449" y="37"/>
			<point x="354" y="37" type="curve" smooth="yes"/>
			<point x="285" y="37"/>
			<point x="240" y="93"/>
		</contour>
	</outline>
</glyph>
<glyph name="Lslash" format="2">
	<advance width="600"/>
	<unicode hex="0141"/>
	<note>
		Lslash
	</note>
	<outline>
		<contour>
			<point x="148" y="258" type="line"/>
			<point x="300" y="330" type="line"/>
			<point x="300" y="380" type="line"/>
			<point x="46" y="260" type="line"/>
			<point x="46" y="210" type="line"/>
		</contour>
		<contour>
			<point x="528" y="293" type="line"/>
			<point x="507" y="50" type="line"/>
			<point x="198" y="50" type="line"/>
			<point x="198" y="540" type="line"/>
			<point x="300" y="540" type="line"/>
			<point x="300" y="590" type="line"/>
			<point x="46" y="590" type="line"/>
			<point x="46" y="540" type="line"/>
			<point x="148" y="540" type="line"/>
			<point x="148" y="50" type="line"/>
			<point x="46" y="50" type="line"/>
			<point x="46" y="0" type="line"/>
			<point x="553" y="0" type="line"/>
			<point x="577" y="287" type="line"/>
		</contour>
	</outline>
</glyph>
<glyph name="Eng" format="2">
	<advance width="600"/>
	<unicode hex="014A"/>
	<note>
		Eng
	</note>
	<outline>
		<contour>
			<point x="27" y="50" type="line"/>
			<point x="27" y="0" type="line"/>
			<point x="231" y="0" type="line"/>
			<point x="231" y="50" type="line"/>
			<point x="154" y="50" type="line"/>
			<point x="154" y="540" type="line"/>
			<point x="448" y="15" type="line"/>
			<point x="448" y="-77"/>
			<point x="419" y="-123"/>
			<point x="373" y="-123" type="curve" smooth="yes"/>
			<point x="353" y="-123"/>
			<point x="332" y="-118"/>
			<point x="321" y="-100" type="curve"/>
			<point x="344" y="-109"/>
			<point x="371" y="-90"/>
			<point x="371" y="-58" type="curve" smooth="yes"/>
			<point x="371" y="-35"/>
			<point x="351" y="-12"/>
			<point x="323" y="-12" type="curve" smooth="yes"/>
			<point x="295" y="-12"/>
			<point x="265" y="-37"/>
			<point x="265" y="-75" type="curve" smooth="yes"/>
			<point x="265" y="-131"/>
			<point x="311" y="-173"/>
			<point x="373" y="-173" type="curve" smooth="yes"/>
			<point x="466" y="-173"/>
			<point x="500" y="-88"/>
			<point x="500" y="42" type="curve" smooth="yes"/>
			<point x="500" y="540" type="line"/>
			<point x="577" y="540" type="line"/>
			<point x="577" y="590" type="line"/>
			<point x="373" y="590" type="line"/>
			<point x="373" y="540" type="line"/>
			<point x="450" y="540" type="line"/>
			<point x="450" y="101" type="line"/>
			<point x="184" y="590" type="line"/>
			<point x="27" y="590" type="line"/>
			<point x="27" y="540" type="line"/>
			<point x="104" y="540" type="line"/>
			<point x="104" y="50" type="line"/>
		</contour>
	</outline>
</glyph>
<glyph name="zcaron" format="2">
	<advance width="600"/>
	<unicode hex="017E"/>
	<note>
		zcaron
	</note>
	<outline>
		<contour>
			<point x="76" y="563" type="line"/>
			<point x="288" y="472" type="line"/>
			<point x="500" y="563" type="line"/>
			<point x="488" y="591" type="line"/>
			<point x="288" y="526" type="line"/>
			<point x="88" y="591" type="line"/>
		</contour>
		<contour>
			<point x="509" y="381" type="line"/>
			<point x="137" y="50" type="line"/>
			<point x="470" y="50" type="line"/>
			<point x="484" y="222" type="line"/>
			<point x="534" y="217" type="line"/>
			<point x="515" y="0" type="line"/>
			<point x="64" y="0" type="line"/>
			<point x="64" y="50" type="line"/>
			<point x="433" y="380" type="line"/>
			<point x="122" y="380" type="line"/>
			<point x="108" y="208" type="line"/>
			<point x="58" y="213" type="line"/>
			<point x="77" y="430" type="line"/>
			<point x="509" y="430" type="line"/>
		</contour>
	</outline>
</glyph>
<glyph name="circumflex" format="2">
	<advance width="600"/>
	<unicode hex="02C6"/>
	<note>
		circumflex
	</note>
	<outline>
		<contour>
			<point x="500" y="500" type="line"/>
			<point x="288" y="591" type="line"/>
			<point x="76" y="500" type="line"/>
			<point x="88" y="472" type="line"/>
			<point x="288" y="537" type="line"/>
			<point x="488" y="472" type="line"/>
		</contour>
	</outline>
</glyph>
<glyph name="ring" format="2">
	<advance width="600"/>
	<unicode hex="02DA"/>
	<note>
		ring
	</note>
	<outline>
		<contour>
			<point x="298" y="472" type="curve" smooth="yes"/>
			<point x="337" y="472"/>
			<point x="372" y="505"/>
			<point x="372" y="543" type="curve" smooth="yes"/>
			<point x="372" y="582"/>
			<point x="337" y="613"/>
			<point x="298" y="613" type="curve" smooth="yes"/>
			<point x="260" y="613"/>
			<point x="226" y="582"/>
			<point x="226" y="543" type="curve" smooth="yes"/>
			<point x="226" y="505"/>
			<point x="260" y="472"/>
		</contour>
		<contour>
			<point x="298" y="504" type="curve" smooth="yes"/>
			<point x="278" y="504"/>
			<point x="259" y="520"/>
			<point x="259" y="542" type="curve" smooth="yes"/>
			<point x="259" y="563"/>
			<point x="278" y="581"/>
			<point x="298" y="581" type="curve" smooth="yes"/>
			<point x="320" y="581"/>
			<point x="339" y="563"/>
			<point x="339" y="542" type="curve" smooth="yes"/>
			<point x="339" y="520"/>
			<point x="320" y="504"/>
		</contour>
	</outline>
</glyph>
<glyph name="uni0394" format="2">
	<advance width="600"/>
	<unicode hex="0394"/>
	<note>
		uni0394
	</note>
	<outline>
		<contour>
			<point x="273" y="603" type="line"/>
			<point x="66" y="54" type="line"/>
			<point x="66" y="0" type="line"/>
			<point x="533" y="0" type="line"/>
			<point x="533" y="56" type="line"/>
			<point x="327" y="603" type="line"/>
		</contour>
		<contour>
			<point x="482" y="50" type="line"/>
			<point x="118" y="50" type="line"/>
			<point x="300" y="532" type="line"/>
		</contour>
	</outline>
</glyph>
<glyph name="uni03A9" format="2">
	<advance width="600"/>
	<unicode hex="03A9"/>
	<note>
		uni03A9
	</note>
	<outline>
		<contour>
			<point x="249" y="0" type="line"/>
			<point x="32" y="0" type="line"/>
			<point x="32" y="50" type="line"/>
			<point x="184" y="50" type="line"/>
			<point x="108" y="172"/>
			<point x="47" y="263"/>
			<point x="47" y="365" type="curve" smooth="yes"/>
			<point x="47" y="470"/>
			<point x="127" y="602"/>
			<point x="300" y="602" type="curve" smooth="yes"/>
			<point x="473" y="602"/>
			<point x="553" y="470"/>
			<point x="553" y="365" type="curve" smooth="yes"/>
			<point x="553" y="272"/>
			<point x="492" y="174"/>
			<point x="416" y="50" type="curve"/>
			<point x="568" y="50" type="line"/>
			<point x="568" y="0" type="line"/>
			<point x="351" y="0" type="line"/>
			<point x="351" y="50" type="line"/>
			<point x="439" y="172"/>
			<point x="503" y="284"/>
			<point x="503" y="366" type="curve" smooth="yes"/>
			<point x="503" y="452"/>
			<point x="436" y="552"/>
			<point x="300" y="552" type="curve" smooth="yes"/>
			<point x="164" y="552"/>
			<point x="97" y="452"/>
			<point x="97" y="366" type="curve" smooth="yes"/>
			<point x="97" y="274"/>
			<point x="161" y="172"/>
			<point x="249" y="50" type="curve"/>
		</contour>
	</outline>
</glyph>
<glyph name="pi" format="2">
	<advance width="600"/>
	<unicode hex="03C0"/>
	<note>
		pi
	</note>
	<outline>
		<contour>
			<point x="563" y="109" type="line"/>
			<point x="516" y="128" type="line"/>
			<point x="485" y="55"/>
			<point x="477" y="37"/>
			<point x="461" y="37" type="curve" smooth="yes"/>
			<point x="449" y="37"/>
			<point x="443" y="45"/>
			<point x="443" y="72" type="curve" smooth="yes"/>
			<point x="443" y="380" type="line"/>
			<point x="516" y="380" type="line"/>
			<point x="516" y="430" type="line"/>
			<point x="66" y="430" type="line"/>
			<point x="66" y="380" type="line"/>
			<point x="139" y="380" type="line"/>
			<point x="139" y="0" type="line"/>
			<point x="189" y="0" type="line"/>
			<point x="189" y="380" type="line"/>
			<point x="393" y="380" type="line"/>
			<point x="393" y="77" type="line" smooth="yes"/>
			<point x="393" y="3"/>
			<point x="422" y="-13"/>
			<point x="458" y="-13" type="curve" smooth="yes"/>
			<point x="497" y="-13"/>
			<point x="522" y="16"/>
			<point x="533" y="41" type="curve" smooth="yes"/>
		</contour>
	</outline>
</glyph>
<glyph name="dagger" format="2">
	<advance width="600"/>
	<unicode hex="2020"/>
	<note>
		dagger
	</note>
	<outline>
		<contour>
			<point x="450" y="556" type="curve" smooth="yes"/>
			<point x="425" y="556"/>
			<point x="404" y="539"/>
			<point x="404" y="516" type="curve" smooth="yes"/>
			<point x="404" y="496"/>
			<point x="418" y="477"/>
			<point x="441" y="477" type="curve" smooth="yes"/>
			<point x="462" y="477"/>
			<point x="475" y="494"/>
			<point x="473" y="508" type="curve"/>
			<point x="483" y="504"/>
			<point x="489" y="494"/>
			<point x="489" y="477" type="curve" smooth="yes"/>
			<point x="489" y="445"/>
			<point x="451" y="425"/>
			<point x="411" y="441" type="curve" smooth="yes"/>
			<point x="383" y="452" type="line" smooth="yes"/>
			<point x="358" y="462"/>
			<point x="337" y="458"/>
			<point x="321" y="447" type="curve"/>
			<point x="321" y="466"/>
			<point x="319" y="484"/>
			<point x="313" y="496" type="curve"/>
			<point x="331" y="506"/>
			<point x="343" y="525"/>
			<point x="343" y="546" type="curve" smooth="yes"/>
			<point x="343" y="577"/>
			<point x="318" y="603"/>
			<point x="286" y="603" type="curve" smooth="yes"/>
			<point x="254" y="603"/>
			<point x="228" y="577"/>
			<point x="228" y="546" type="curve" smooth="yes"/>
			<point x="228" y="525"/>
			<point x="240" y="506"/>
			<point x="258" y="496" type="curve"/>
			<point x="251" y="484"/>
			<point x="249" y="467"/>
			<point x="249" y="447" type="curve"/>
			<point x="233" y="458"/>
			<point x="212" y="462"/>
			<point x="187" y="452" type="curve" smooth="yes"/>
			<point x="159" y="441" type="line" smooth="yes"/>
			<point x="119" y="425"/>
			<point x="81" y="445"/>
			<point x="81" y="477" type="curve" smooth="yes"/>
			<point x="81" y="494"/>
			<point x="87" y="504"/>
			<point x="97" y="508" type="curve"/>
			<point x="95" y="494"/>
			<point x="108" y="477"/>
			<point x="129" y="477" type="curve" smooth="yes"/>
			<point x="152" y="477"/>
			<point x="166" y="496"/>
			<point x="166" y="516" type="curve" smooth="yes"/>
			<point x="166" y="539"/>
			<point x="145" y="556"/>
			<point x="120" y="556" type="curve" smooth="yes"/>
			<point x="74" y="556"/>
			<point x="41" y="520"/>
			<point x="41" y="477" type="curve" smooth="yes"/>
			<point x="41" y="419"/>
			<point x="99" y="379"/>
			<point x="158" y="400" type="curve" smooth="yes"/>
			<point x="195" y="413" type="line" smooth="yes"/>
			<point x="232" y="426"/>
			<point x="246" y="395"/>
			<point x="253" y="371" type="curve"/>
			<point x="274" y="-22" type="line"/>
			<point x="296" y="-22" type="line"/>
			<point x="317" y="371" type="line"/>
			<point x="324" y="395"/>
			<point x="338" y="426"/>
			<point x="375" y="413" type="curve" smooth="yes"/>
			<point x="412" y="400" type="line" smooth="yes"/>
			<point x="471" y="379"/>
			<point x="529" y="419"/>
			<point x="529" y="477" type="curve" smooth="yes"/>
			<point x="529" y="520"/>
			<point x="496" y="556"/>
		</contour>
	</outline>
</glyph>
<glyph name="daggerdbl" format="2">
	<advance width="600"/>
	<unicode hex="2021"/>
	<note>
		daggerdbl
	</note>
	<outline>
		<contour>
			<point x="501" y="117" type="curve" smooth="yes"/>
			<point x="475" y="137"/>
			<point x="441" y="135"/>
			<point x="421" y="109" type="curve" smooth="yes"/>
			<point x="403" y="85"/>
			<point x="417" y="46"/>
			<point x="450" y="40" type="curve"/>
			<point x="419" y="18"/>
			<point x="371" y="20"/>
			<point x="315" y="58" type="curve"/>
			<point x="302" y="210" type="line"/>
			<point x="312" y="334" type="line"/>
			<point x="379" y="299"/>
			<point x="455" y="292"/>
			<point x="503" y="354" type="curve" smooth="yes"/>
			<point x="529" y="388"/>
			<point x="528" y="429"/>
			<point x="501" y="449" type="curve" smooth="yes"/>
			<point x="475" y="469"/>
			<point x="441" y="467"/>
			<point x="421" y="441" type="curve" smooth="yes"/>
			<point x="403" y="417"/>
			<point x="417" y="378"/>
			<point x="450" y="372" type="curve"/>
			<point x="419" y="350"/>
			<point x="372" y="352"/>
			<point x="317" y="389" type="curve"/>
			<point x="320" y="428" type="line" smooth="yes"/>
			<point x="322" y="453"/>
			<point x="321" y="480"/>
			<point x="313" y="496" type="curve"/>
			<point x="331" y="506"/>
			<point x="343" y="525"/>
			<point x="343" y="546" type="curve" smooth="yes"/>
			<point x="343" y="577"/>
			<point x="318" y="603"/>
			<point x="286" y="603" type="curve" smooth="yes"/>
			<point x="254" y="603"/>
			<point x="228" y="577"/>
			<point x="228" y="546" type="curve" smooth="yes"/>
			<point x="228" y="526"/>
			<point x="240" y="506"/>
			<point x="258" y="496" type="curve"/>
			<point x="249" y="481"/>
			<point x="248" y="457"/>
			<point x="250" y="432" type="curve"/>
			<point x="186" y="463"/>
			<point x="113" y="466"/>
			<point x="68" y="407" type="curve" smooth="yes"/>
			<point x="42" y="373"/>
			<point x="44" y="332"/>
			<point x="70" y="312" type="curve" smooth="yes"/>
			<point x="97" y="292"/>
			<point x="131" y="294"/>
			<point x="151" y="320" type="curve" smooth="yes"/>
			<point x="169" y="344"/>
			<point x="154" y="383"/>
			<point x="121" y="389" type="curve"/>
			<point x="153" y="411"/>
			<point x="199" y="409"/>
			<point x="254" y="373" type="curve"/>
			<point x="267" y="210" type="line"/>
			<point x="258" y="96" type="line"/>
			<point x="192" y="130"/>
			<point x="115" y="137"/>
			<point x="68" y="75" type="curve" smooth="yes"/>
			<point x="42" y="41"/>
			<point x="44" y="0"/>
			<point x="70" y="-20" type="curve" smooth="yes"/>
			<point x="97" y="-40"/>
			<point x="131" y="-38"/>
			<point x="151" y="-12" type="curve" smooth="yes"/>
			<point x="169" y="12"/>
			<point x="154" y="51"/>
			<point x="121" y="57" type="curve"/>
			<point x="153" y="79"/>
			<point x="199" y="77"/>
			<point x="253" y="41" type="curve"/>
			<point x="250" y="1" type="line" smooth="yes"/>
			<point x="248" y="-25"/>
			<point x="249" y="-50"/>
			<point x="257" y="-66" type="curve"/>
			<point x="240" y="-76"/>
			<point x="228" y="-95"/>
			<point x="228" y="-116" type="curve" smooth="yes"/>
			<point x="228" y="-146"/>
			<point x="254" y="-173"/>
			<point x="286" y="-173" type="curve" smooth="yes"/>
			<point x="318" y="-173"/>
			<point x="343" y="-146"/>
			<point x="343" y="-116" type="curve" smooth="yes"/>
			<point x="343" y="-95"/>
			<point x="331" y="-76"/>
			<point x="313" y="-66" type="curve"/>
			<point x="321" y="-50"/>
			<point x="322" y="-26"/>
			<point x="320" y="-2" type="curve"/>
			<point x="385" y="-34"/>
			<point x="457" y="-38"/>
			<point x="503" y="22" type="curve" smooth="yes"/>
			<point x="529" y="56"/>
			<point x="528" y="97"/>
		</contour>
	</outline>
</glyph>
<glyph name="perthousand" format="2">
	<advance width="600"/>
	<unicode hex="2030"/>
	<note>
		perthousand
	</note>
	<outline>
		<contour>
			<point x="115" y="326" type="curve" smooth="yes"/>
			<point x="171" y="326"/>
			<point x="213" y="388"/>
			<point x="213" y="465" type="curve" smooth="yes"/>
			<point x="213" y="541"/>
			<point x="171" y="603"/>
			<point x="115" y="603" type="curve" smooth="yes"/>
			<point x="58" y="603"/>
			<point x="16" y="541"/>
			<point x="16" y="465" type="curve" smooth="yes"/>
			<point x="16" y="388"/>
			<point x="58" y="326"/>
		</contour>
		<contour>
			<point x="115" y="376" type="curve" smooth="yes"/>
			<point x="86" y="376"/>
			<point x="65" y="417"/>
			<point x="65" y="463" type="curve" smooth="yes"/>
			<point x="65" y="512"/>
			<point x="86" y="553"/>
			<point x="115" y="553" type="curve" smooth="yes"/>
			<point x="144" y="553"/>
			<point x="163" y="512"/>
			<point x="163" y="463" type="curve" smooth="yes"/>
			<point x="163" y="417"/>
			<point x="144" y="376"/>
		</contour>
		<contour>
			<point x="513" y="-12" type="curve" smooth="yes"/>
			<point x="569" y="-12"/>
			<point x="611" y="50"/>
			<point x="611" y="127" type="curve" smooth="yes"/>
			<point x="611" y="203"/>
			<point x="569" y="265"/>
			<point x="513" y="265" type="curve" smooth="yes"/>
			<point x="456" y="265"/>
			<point x="414" y="203"/>
			<point x="414" y="127" type="curve" smooth="yes"/>
			<point x="414" y="50"/>
			<point x="456" y="-12"/>
		</contour>
		<contour>
			<point x="298" y="-13" type="curve" smooth="yes"/>
			<point x="354" y="-13"/>
			<point x="396" y="49"/>
			<point x="396" y="126" type="curve" smooth="yes"/>
			<point x="396" y="202"/>
			<point x="354" y="264"/>
			<point x="298" y="264" type="curve" smooth="yes"/>
			<point x="241" y="264"/>
			<point x="199" y="202"/>
			<point x="199" y="126" type="curve" smooth="yes"/>
			<point x="199" y="49"/>
			<point x="241" y="-13"/>
		</contour>
		<contour>
			<point x="513" y="38" type="curve" smooth="yes"/>
			<point x="484" y="38"/>
			<point x="463" y="79"/>
			<point x="463" y="125" type="curve" smooth="yes"/>
			<point x="463" y="174"/>
			<point x="484" y="215"/>
			<point x="513" y="215" type="curve" smooth="yes"/>
			<point x="542" y="215"/>
			<point x="561" y="174"/>
			<point x="561" y="125" type="curve" smooth="yes"/>
			<point x="561" y="79"/>
			<point x="542" y="38"/>
		</contour>
		<contour>
			<point x="298" y="37" type="curve" smooth="yes"/>
			<point x="269" y="37"/>
			<point x="248" y="78"/>
			<point x="248" y="124" type="curve" smooth="yes"/>
			<point x="248" y="173"/>
			<point x="269" y="214"/>
			<point x="298" y="214" type="curve" smooth="yes"/>
			<point x="327" y="214"/>
			<point x="346" y="173"/>
			<point x="346" y="124" type="curve" smooth="yes"/>
			<point x="346" y="78"/>
			<point x="327" y="37"/>
		</contour>
		<contour>
			<point x="-14" y="15" type="line"/>
			<point x="24" y="-15" type="line"/>
			<point x="443" y="573" type="line"/>
			<point x="406" y="603" type="line"/>
			<point x="394" y="586" type="line"/>
			<point x="355" y="537"/>
			<point x="287" y="517"/>
			<point x="260" y="517" type="curve" smooth="yes"/>
			<point x="235" y="517"/>
			<point x="190" y="557"/>
			<point x="174" y="576" type="curve"/>
			<point x="202" y="502" type="line"/>
			<point x="206" y="490"/>
			<point x="232" y="471"/>
			<point x="260" y="471" type="curve" smooth="yes"/>
			<point x="282" y="471"/>
			<point x="312" y="474"/>
			<point x="327" y="492" type="curve"/>
		</contour>
	</outline>
</glyph>
<glyph name="uni2116" format="2">
	<advance width="600"/>
	<unicode hex="2116"/>
	<note>
		uni2116
	</note>
	<outline>
		<contour>
			<point x="492" y="440" type="curve" smooth="yes"/>
			<point x="541" y="440"/>
			<point x="576" y="473"/>
			<point x="576" y="522" type="curve" smooth="yes"/>
			<point x="576" y="571"/>
			<point x="540" y="603"/>
			<point x="492" y="603" type="curve" smooth="yes"/>
			<point x="444" y="603"/>
			<point x="407" y="571"/>
			<point x="407" y="522" type="curve" smooth="yes"/>
			<point x="407" y="473"/>
			<point x="443" y="440"/>
		</contour>
		<contour>
			<point x="343" y="0" type="line"/>
			<point x="343" y="545" type="line"/>
			<point x="380" y="545" type="line"/>
			<point x="380" y="590" type="line"/>
			<point x="243" y="590" type="line"/>
			<point x="243" y="545" type="line"/>
			<point x="300" y="545" type="line"/>
			<point x="300" y="44" type="line"/>
			<point x="142" y="590" type="line"/>
			<point x="24" y="590" type="line"/>
			<point x="24" y="545" type="line"/>
			<point x="61" y="545" type="line"/>
			<point x="61" y="45" type="line"/>
			<point x="24" y="45" type="line"/>
			<point x="24" y="0" type="line"/>
			<point x="161" y="0" type="line"/>
			<point x="161" y="45" type="line"/>
			<point x="104" y="45" type="line"/>
			<point x="104" y="546" type="line"/>
			<point x="267" y="0" type="line"/>
		</contour>
		<contour>
			<point x="492" y="476" type="curve" smooth="yes"/>
			<point x="466" y="476"/>
			<point x="444" y="496"/>
			<point x="444" y="522" type="curve" smooth="yes"/>
			<point x="444" y="548"/>
			<point x="466" y="568"/>
			<point x="492" y="568" type="curve" smooth="yes"/>
			<point x="518" y="568"/>
			<point x="540" y="548"/>
			<point x="540" y="522" type="curve" smooth="yes"/>
			<point x="540" y="496"/>
			<point x="518" y="476"/>
		</contour>
		<contour>
			<point x="410" y="417" type="line"/>
			<point x="410" y="380" type="line"/>
			<point x="573" y="380" type="line"/>
			<point x="573" y="417" type="line"/>
		</contour>
	</outline>
</glyph>
<glyph name="seveneighths" format="2">
	<advance width="600"/>
	<unicode hex="215E"/>
	<note>
		seveneighths
	</note>
	<outline>
		<contour>
			<point x="140" y="565" type="curve" smooth="yes"/>
			<point x="167" y="565"/>
			<point x="190" y="545"/>
			<point x="223" y="545" type="curve" smooth="yes"/>
			<point x="232" y="545"/>
			<point x="241" y="547"/>
			<point x="249" y="551" type="curve"/>
			<point x="221" y="493"/>
			<point x="154" y="442"/>
			<point x="154" y="360" type="curve" smooth="yes"/>
			<point x="154" y="327" type="line"/>
			<point x="192" y="327" type="line"/>
			<point x="192" y="360" type="line" smooth="yes"/>
			<point x="192" y="436"/>
			<point x="264" y="484"/>
			<point x="293" y="555" type="curve" smooth="yes"/>
			<point x="304" y="582" type="line"/>
			<point x="267" y="599" type="line"/>
			<point x="259" y="589"/>
			<point x="240" y="583"/>
			<point x="223" y="583" type="curve" smooth="yes"/>
			<point x="196" y="583"/>
			<point x="174" y="603"/>
			<point x="140" y="603" type="curve" smooth="yes"/>
			<point x="124" y="603"/>
			<point x="105" y="599"/>
			<point x="93" y="581" type="curve"/>
			<point x="92" y="599" type="line"/>
			<point x="55" y="596" type="line"/>
			<point x="63" y="501" type="line"/>
			<point x="100" y="505" type="line"/>
			<point x="98" y="533" type="line"/>
			<point x="108" y="557"/>
			<point x="124" y="565"/>
		</contour>
		<contour>
			<point x="495" y="518" type="line"/>
			<point x="464" y="541" type="line"/>
			<point x="119" y="57" type="line"/>
			<point x="149" y="33" type="line"/>
		</contour>
		<contour>
			<point x="83" y="510" type="line"/>
			<point x="82" y="510" type="line"/>
		</contour>
		<contour>
			<point x="515" y="143" type="curve"/>
			<point x="533" y="150"/>
			<point x="552" y="165"/>
			<point x="552" y="199" type="curve" smooth="yes"/>
			<point x="552" y="237"/>
			<point x="520" y="273"/>
			<point x="460" y="273" type="curve" smooth="yes"/>
			<point x="397" y="273"/>
			<point x="365" y="238"/>
			<point x="365" y="199" type="curve" smooth="yes"/>
			<point x="365" y="165"/>
			<point x="390" y="147"/>
			<point x="404" y="143" type="curve"/>
			<point x="384" y="136"/>
			<point x="352" y="112"/>
			<point x="352" y="72" type="curve" smooth="yes"/>
			<point x="352" y="14"/>
			<point x="403" y="-13"/>
			<point x="459" y="-13" type="curve" smooth="yes"/>
			<point x="515" y="-13"/>
			<point x="565" y="14"/>
			<point x="565" y="72" type="curve" smooth="yes"/>
			<point x="565" y="112"/>
			<point x="532" y="136"/>
		</contour>
		<contour>
			<point x="403" y="199" type="curve" smooth="yes"/>
			<point x="403" y="219"/>
			<point x="423" y="235"/>
			<point x="459" y="235" type="curve" smooth="yes"/>
			<point x="495" y="235"/>
			<point x="514" y="219"/>
			<point x="514" y="199" type="curve" smooth="yes"/>
			<point x="514" y="177"/>
			<point x="495" y="161"/>
			<point x="459" y="161" type="curve" smooth="yes"/>
			<point x="423" y="161"/>
			<point x="403" y="177"/>
		</contour>
		<contour>
			<point x="527" y="72" type="curve" smooth="yes"/>
			<point x="526" y="39"/>
			<point x="497" y="25"/>
			<point x="459" y="25" type="curve" smooth="yes"/>
			<point x="420" y="25"/>
			<point x="390" y="43"/>
			<point x="390" y="72" type="curve" smooth="yes"/>
			<point x="390" y="100"/>
			<point x="420" y="123"/>
			<point x="459" y="123" type="curve" smooth="yes"/>
			<point x="497" y="123"/>
			<point x="528" y="100"/>
		</contour>
	</outline>
</glyph>
<glyph name="arrowleft" format="2">
	<advance width="600"/>
	<unicode hex="2190"/>
	<note>
		arrowleft
	</note>
	<outline>
		<contour>
			<point x="254" y="374" type="curve"/>
			<point x="219" y="402" type="line"/>
			<point x="172" y="316"/>
			<point x="81" y="260"/>
			<point x="14" y="232" type="curve"/>
			<point x="14" y="196" type="line"/>
			<point x="81" y="168"/>
			<point x="172" y="112"/>
			<point x="219" y="24" type="curve"/>
			<point x="254" y="53" type="line"/>
			<point x="219" y="119"/>
			<point x="172" y="158"/>
			<point x="119" y="189" type="curve"/>
			<point x="586" y="188" type="line"/>
			<point x="586" y="238" type="line"/>
			<point x="119" y="239" type="line"/>
			<point x="172" y="269"/>
			<point x="219" y="308"/>
		</contour>
	</outline>
</glyph>
<glyph name="arrowdown" format="2">
	<advance width="600"/>
	<unicode hex="2193"/>
	<note>
		arrowdown
	</note>
	<outline>
		<contour>
			<point x="138" y="240" type="curve"/>
			<point x="110" y="205" type="line"/>
			<point x="197" y="158"/>
			<point x="253" y="67"/>
			<point x="281" y="0" type="curve"/>
			<point x="317" y="0" type="line"/>
			<point x="345" y="67"/>
			<point x="401" y="158"/>
			<point x="488" y="205" type="curve"/>
			<point x="460" y="240" type="line"/>
			<point x="393" y="205"/>
			<point x="354" y="158"/>
			<point x="324" y="105" type="curve"/>
			<point x="324" y="572" type="line"/>
			<point x="274" y="572" type="line"/>
			<point x="274" y="105" type="line"/>
			<point x="244" y="158"/>
			<point x="205" y="205"/>
		</contour>
	</outline>
</glyph>
<glyph name="uni2199" format="2">
	<advance width="600"/>
	<unicode hex="2199"/>
	<note>
		uni2199
	</note>
	<outline>
		<contour>
			<point x="188" y="66" type="curve"/>
			<point x="518" y="397" type="line"/>
			<point x="483" y="432" type="line"/>
			<point x="153" y="101" type="line"/>
			<point x="169" y="160"/>
			<point x="174" y="221"/>
			<point x="152" y="293" type="curve"/>
			<point x="107" y="288" type="line"/>
			<point x="136" y="193"/>
			<point x="111" y="89"/>
			<point x="84" y="22" type="curve"/>
			<point x="109" y="-4" type="line"/>
			<point x="176" y="24"/>
			<point x="280" y="49"/>
			<point x="374" y="21" type="curve"/>
			<point x="379" y="66" type="line"/>
			<point x="308" y="88"/>
			<point x="247" y="82"/>
		</contour>
	</outline>
</glyph>
<glyph name="partialdiff" format="2">
	<advance width="600"/>
	<unicode hex="2202"/>
	<note>
		partialdiff
	</note>
	<outline>
		<contour>
			<point x="257" y="595" type="curve" smooth="yes"/>
			<point x="213" y="603" type="line"/>
			<point x="202" y="555" type="line"/>
			<point x="249" y="546" type="line" smooth="yes"/>
			<point x="376" y="522"/>
			<point x="438" y="434"/>
			<point x="458" y="310" type="curve"/>
			<point x="424" y="358"/>
			<point x="364" y="392"/>
			<point x="297" y="392" type="curve" smooth="yes"/>
			<point x="185" y="392"/>
			<point x="107" y="281"/>
			<point x="107" y="192" type="curve" smooth="yes"/>
			<point x="107" y="59"/>
			<point x="219" y="-13"/>
			<point x="307" y="-13" type="curve" smooth="yes"/>
			<point x="419" y="-13"/>
			<point x="511" y="79"/>
			<point x="511" y="212" type="curve" smooth="yes"/>
			<point x="511" y="467"/>
			<point x="411" y="567"/>
		</contour>
		<contour>
			<point x="463" y="201" type="curve" smooth="yes"/>
			<point x="463" y="117"/>
			<point x="409" y="37"/>
			<point x="307" y="37" type="curve" smooth="yes"/>
			<point x="246" y="37"/>
			<point x="157" y="87"/>
			<point x="157" y="192" type="curve" smooth="yes"/>
			<point x="157" y="273"/>
			<point x="223" y="343"/>
			<point x="297" y="342" type="curve" smooth="yes"/>
			<point x="371" y="341"/>
			<point x="463" y="292"/>
		</contour>
	</outline>
</glyph>
<glyph name="minus" format="2">
	<advance width="600"/>
	<unicode hex="2212"/>
	<note>
		minus
	</note>
	<outline>
		<contour>
			<point x="87" y="190" type="line"/>
			<point x="517" y="190" type="line"/>
			<point x="517" y="240" type="line"/>
			<point x="87" y="240" type="line"/>
		</contour>
	</outline>
</glyph>
<glyph name="infinity" format="2">
	<advance width="600"/>
	<unicode hex="221E"/>
	<note>
		infinity
	</note>
	<outline>
		<contour>
			<point x="431" y="253" type="curve" smooth="yes"/>
			<point x="375" y="253"/>
			<point x="335" y="209"/>
			<point x="300" y="160" type="curve"/>
			<point x="264" y="209"/>
			<point x="224" y="253"/>
			<point x="170" y="253" type="curve" smooth="yes"/>
			<point x="96" y="253"/>
			<point x="30" y="193"/>
			<point x="30" y="120" type="curve" smooth="yes"/>
			<point x="30" y="47"/>
			<point x="96" y="-13"/>
			<point x="170" y="-13" type="curve" smooth="yes"/>
			<point x="224" y="-13"/>
			<point x="264" y="31"/>
			<point x="299" y="80" type="curve"/>
			<point x="335" y="31"/>
			<point x="375" y="-13"/>
			<point x="431" y="-13" type="curve" smooth="yes"/>
			<point x="504" y="-13"/>
			<point x="570" y="47"/>
			<point x="570" y="120" type="curve" smooth="yes"/>
			<point x="570" y="193"/>
			<point x="504" y="253"/>
		</contour>
		<contour>
			<point x="169" y="35" type="curve" smooth="yes"/>
			<point x="122" y="35"/>
			<point x="79" y="73"/>
			<point x="79" y="120" type="curve" smooth="yes"/>
			<point x="79" y="167"/>
			<point x="122" y="208"/>
			<point x="169" y="206" type="curve" smooth="yes"/>
			<point x="208" y="204"/>
			<point x="239" y="165"/>
			<point x="271" y="119" type="curve"/>
			<point x="239" y="74"/>
			<point x="208" y="35"/>
		</contour>
		<contour>
			<point x="430" y="35" type="curve" smooth="yes"/>
			<point x="392" y="35"/>
			<point x="361" y="75"/>
			<point x="328" y="120" type="curve"/>
			<point x="361" y="166"/>
			<point x="392" y="206"/>
			<point x="430" y="206" type="curve" smooth="yes"/>
			<point x="477" y="206"/>
			<point x="521" y="167"/>
			<point x="521" y="120" type="curve" smooth="yes"/>
			<point x="521" y="73"/>
			<point x="477" y="35"/>
		</contour>
	</outline>
</glyph>
<glyph name="approxequal" format="2">
	<advance width="600"/>
	<unicode hex="2248"/>
	<note>
		approxequal
	</note>
	<outline>
		<contour>
			<point x="395" y="238" type="curve" smooth="yes"/>
			<point x="465" y="238"/>
			<point x="507" y="294"/>
			<point x="507" y="386" type="curve" smooth="yes"/>
			<point x="507" y="430" type="line"/>
			<point x="457" y="430" type="line"/>
			<point x="457" y="389" type="line" smooth="yes"/>
			<point x="457" y="325"/>
			<point x="435" y="288"/>
			<point x="395" y="288" type="curve" smooth="yes"/>
			<point x="362" y="288"/>
			<point x="348" y="300"/>
			<point x="326" y="346" type="curve" smooth="yes"/>
			<point x="304" y="392"/>
			<point x="273" y="442"/>
			<point x="204" y="442" type="curve" smooth="yes"/>
			<point x="134" y="442"/>
			<point x="91" y="386"/>
			<point x="91" y="294" type="curve" smooth="yes"/>
			<point x="91" y="250" type="line"/>
			<point x="141" y="250" type="line"/>
			<point x="141" y="291" type="line" smooth="yes"/>
			<point x="141" y="355"/>
			<point x="164" y="392"/>
			<point x="204" y="392" type="curve" smooth="yes"/>
			<point x="234" y="392"/>
			<point x="255" y="375"/>
			<point x="280" y="326" type="curve" smooth="yes"/>
			<point x="304" y="278"/>
			<point x="331" y="238"/>
		</contour>
		<contour>
			<point x="395" y="16" type="curve" smooth="yes"/>
			<point x="465" y="16"/>
			<point x="507" y="72"/>
			<point x="507" y="164" type="curve" smooth="yes"/>
			<point x="507" y="208" type="line"/>
			<point x="457" y="208" type="line"/>
			<point x="457" y="167" type="line" smooth="yes"/>
			<point x="457" y="103"/>
			<point x="435" y="66"/>
			<point x="395" y="66" type="curve" smooth="yes"/>
			<point x="362" y="66"/>
			<point x="348" y="78"/>
			<point x="326" y="124" type="curve" smooth="yes"/>
			<point x="304" y="170"/>
			<point x="273" y="220"/>
			<point x="204" y="220" type="curve" smooth="yes"/>
			<point x="134" y="220"/>
			<point x="91" y="164"/>
			<point x="91" y="72" type="curve" smooth="yes"/>
			<point x="91" y="28" type="line"/>
			<point x="141" y="28" type="line"/>
			<point x="141" y="69" type="line" smooth="yes"/>
			<point x="141" y="133"/>
			<point x="164" y="170"/>
			<point x="204" y="170" type="curve" smooth="yes"/>
			<point x="234" y="170"/>
			<point x="255" y="153"/>
			<point x="280" y="104" type="curve" smooth="yes"/>
			<point x="304" y="56"/>
			<point x="331" y="16"/>
		</contour>
	</outline>
</glyph>
<glyph name="lessequal" format="2">
	<advance width="600"/>
	<unicode hex="2264"/>
	<note>
		lessequal
	</note>
	<outline>
		<contour>
			<point x="88" y="387" type="line"/>
			<point x="88" y="317" type="line"/>
			<point x="503" y="166" type="line"/>
			<point x="520" y="213" type="line"/>
			<point x="131" y="352" type="line"/>
			<point x="520" y="491" type="line"/>
			<point x="503" y="538" type="line"/>
		</contour>
		<contour>
			<point x="87" y="34" type="line"/>
			<point x="517" y="34" type="line"/>
			<point x="517" y="84" type="line"/>
			<point x="87" y="84" type="line"/>
		</contour>
	</outline>
</glyph>
<glyph name="greaterequal" format="2">
	<advance width="600"/>
	<unicode hex="2265"/>
	<note>
		greaterequal
	</note>
	<outline>
		<contour>
			<point x="99" y="166" type="line"/>
			<point x="514" y="317" type="line"/>
			<point x="514" y="387" type="line"/>
			<point x="99" y="538" type="line"/>
			<point x="82" y="491" type="line"/>
			<point x="471" y="352" type="line"/>
			<point x="82" y="213" type="line"/>
		</contour>
		<contour>
			<point x="85" y="84" type="line"/>
			<point x="85" y="34" type="line"/>
			<point x="515" y="34" type="line"/>
			<point x="515" y="84" type="line"/>
		</contour>
	</outline>
</glyph>
<glyph name="lozenge" format="2">
	<advance width="600"/>
	<unicode hex="25CA"/>
	<note>
		lozenge
	</note>
	<outline>
		<contour>
			<point x="269" y="603" type="line"/>
			<point x="121" y="295" type="line"/>
			<point x="268" y="-13" type="line"/>
			<point x="331" y="-13" type="line"/>
			<point x="478" y="295" type="line"/>
			<point x="327" y="603" type="line"/>
		</contour>
		<contour>
			<point x="300" y="43" type="line"/>
			<point x="180" y="295" type="line"/>
			<point x="300" y="546" type="line"/>
			<point x="420" y="295" type="line"/>
		</contour>
	</outline>
</glyph>
<glyph name="uni2610" format="2">
	<advance width="600"/>
	<unicode hex="2610"/>
	<outline>
		<contour>
			<point x="85" y="0" type="line"/>
			<point x="515" y="0" type="line"/>
			<point x="515" y="430" type="line"/>
			<point x="85" y="430" type="line"/>
		</contour>
		<contour>
			<point x="135" y="50" type="line"/>
			<point x="135" y="380" type="line"/>
			<point x="465" y="380" type="line"/>
			<point x="465" y="50" type="line"/>
		</contour>
	</outline>
</glyph>
<glyph name="fi" format="2">
	<advance width="600"/>
	<unicode hex="FB01"/>
	<note>
		fi
	</note>
	<outline>
		<contour>
			<point x="58" y="50" type="line"/>
			<point x="58" y="0" type="line"/>
			<point x="274" y="0" type="line"/>
			<point x="274" y="50" type="line"/>
			<point x="191" y="50" type="line"/>
			<point x="191" y="380" type="line"/>
			<point x="344" y="380" type="line"/>
			<point x="344" y="430" type="line"/>
			<point x="193" y="430" type="line"/>
			<point x="202" y="507"/>
			<point x="253" y="553"/>
			<point x="335" y="553" type="curve" smooth="yes"/>
			<point x="423" y="553"/>
			<point x="463" y="505"/>
			<point x="464" y="479" type="curve"/>
			<point x="448" y="490"/>
			<point x="398" y="480"/>
			<point x="398" y="437" type="curve" smooth="yes"/>
			<point x="398" y="404"/>
			<point x="422" y="384"/>
			<point x="455" y="384" type="curve" smooth="yes"/>
			<point x="490" y="384"/>
			<point x="515" y="413"/>
			<point x="515" y="458" type="curve" smooth="yes"/>
			<point x="515" y="543"/>
			<point x="441" y="603"/>
			<point x="336" y="603" type="curve" smooth="yes"/>
			<point x="232" y="603"/>
			<point x="154" y="537"/>
			<point x="143" y="430" type="curve"/>
			<point x="57" y="430" type="line"/>
			<point x="57" y="380" type="line"/>
			<point x="141" y="380" type="line"/>
			<point x="141" y="50" type="line"/>
		</contour>
		<contour>
			<point x="543" y="50" type="line"/>
			<point x="485" y="50" type="line"/>
			<point x="485" y="343" type="line"/>
			<point x="435" y="343" type="line"/>
			<point x="435" y="50" type="line"/>
			<point x="377" y="50" type="line"/>
			<point x="377" y="0" type="line"/>
			<point x="543" y="0" type="line"/>
		</contour>
	</outline>
</glyph>
<glyph name="fl" format="2">
	<advance width="600"/>
	<unicode hex="FB02"/>
	<note>
		fl
	</note>
	<outline>
		<contour>
			<point x="33" y="50" type="line"/>
			<point x="33" y="0" type="line"/>
			<point x="249" y="0" type="line"/>
			<point x="249" y="50" type="line"/>
			<point x="166" y="50" type="line"/>
			<point x="166" y="380" type="line"/>
			<point x="319" y="380" type="line"/>
			<point x="319" y="430" type="line"/>
			<point x="168" y="430" type="line"/>
			<point x="177" y="507"/>
			<point x="228" y="553"/>
			<point x="310" y="553" type="curve" smooth="yes"/>
			<point x="401" y="553" type="line"/>
			<point x="401" y="50" type="line"/>
			<point x="318" y="50" type="line"/>
			<point x="318" y="0" type="line"/>
			<point x="580" y="0" type="line"/>
			<point x="580" y="50" type="line"/>
			<point x="451" y="50" type="line"/>
			<point x="451" y="603" type="line"/>
			<point x="311" y="603" type="line" smooth="yes"/>
			<point x="207" y="603"/>
			<point x="129" y="537"/>
			<point x="118" y="430" type="curve"/>
			<point x="32" y="430" type="line"/>
			<point x="32" y="380" type="line"/>
			<point x="116" y="380" type="line"/>
			<point x="116" y="50" type="line"/>
		</contour>
	</outline>
</glyph>
<glyph name="AE.duo" format="2">
	<advance width="900"/>
	<outline>
		<contour>
			<point x="54" y="0" type="line"/>
			<point x="266" y="0" type="line"/>
			<point x="266" y="50" type="line"/>
			<point x="185" y="50" type="line"/>
			<point x="253" y="268" type="line"/>
			<point x="461" y="268" type="line"/>
			<point x="461" y="50" type="line"/>
			<point x="397" y="50" type="line"/>
			<point x="397" y="0" type="line"/>
			<point x="847" y="0" type="line"/>
			<point x="867" y="217" type="line"/>
			<point x="818" y="222" type="line"/>
			<point x="804" y="50" type="line"/>
			<point x="511" y="50" type="line"/>
			<point x="511" y="268" type="line"/>
			<point x="669" y="268" type="line"/>
			<point x="669" y="162" type="line"/>
			<point x="719" y="162" type="line"/>
			<point x="719" y="427" type="line"/>
			<point x="669" y="427" type="line"/>
			<point x="669" y="318" type="line"/>
			<point x="511" y="318" type="line"/>
			<point x="511" y="540" type="line"/>
			<point x="804" y="540" type="line"/>
			<point x="818" y="368" type="line"/>
			<point x="867" y="373" type="line"/>
			<point x="847" y="590" type="line"/>
			<point x="377" y="590" type="line" smooth="yes"/>
			<point x="313" y="590"/>
			<point x="275" y="590"/>
			<point x="212" y="603" type="curve"/>
			<point x="201" y="555" type="line"/>
			<point x="231.152" y="547.219"/>
			<point x="261.305" y="543.222"/>
			<point x="290.537" y="541.169" type="curve"/>
			<point x="135" y="50" type="line"/>
			<point x="54" y="50" type="line"/>
		</contour>
		<contour>
			<point x="269" y="318" type="line"/>
			<point x="338" y="540" type="line"/>
			<point x="461" y="540" type="line"/>
			<point x="461" y="318" type="line"/>
		</contour>
	</outline>
</glyph>
<glyph name="Madame.duo" format="2">
	<advance width="900"/>
	<note>
		Madame.duo
	</note>
	<outline>
		<contour>
			<point x="684" y="591" type="curve" smooth="yes"/>
			<point x="673" y="591"/>
			<point x="663" y="584"/>
			<point x="652" y="571" type="curve"/>
			<point x="645" y="584"/>
			<point x="633" y="591"/>
			<point x="617" y="591" type="curve" smooth="yes"/>
			<point x="606" y="591"/>
			<point x="596" y="584"/>
			<point x="585" y="571" type="curve"/>
			<point x="578" y="584"/>
			<point x="566" y="591"/>
			<point x="550" y="591" type="curve" smooth="yes"/>
			<point x="547" y="591"/>
			<point x="545" y="591"/>
			<point x="543" y="590" type="curve"/>
			<point x="497" y="590" type="line"/>
			<point x="343" y="203" type="line"/>
			<point x="400" y="590" type="line"/>
			<point x="350" y="590" type="line"/>
			<point x="227" y="284" type="line" smooth="yes"/>
			<point x="147" y="86"/>
			<point x="144" y="37"/>
			<point x="96" y="37" type="curve" smooth="yes"/>
			<point x="53" y="37"/>
			<point x="44" y="74"/>
			<point x="48" y="101" type="curve"/>
			<point x="54" y="89"/>
			<point x="69" y="77"/>
			<point x="90" y="77" type="curve" smooth="yes"/>
			<point x="112" y="77"/>
			<point x="140" y="94"/>
			<point x="141" y="126" type="curve" smooth="yes"/>
			<point x="142" y="156"/>
			<point x="118" y="181"/>
			<point x="83" y="181" type="curve" smooth="yes"/>
			<point x="38" y="181"/>
			<point x="-1" y="142"/>
			<point x="-1" y="84" type="curve" smooth="yes"/>
			<point x="-1" y="32"/>
			<point x="40" y="-13"/>
			<point x="93" y="-13" type="curve" smooth="yes"/>
			<point x="175" y="-13"/>
			<point x="183" y="40"/>
			<point x="275" y="273" type="curve" smooth="yes"/>
			<point x="320" y="386" type="line"/>
			<point x="262" y="0" type="line"/>
			<point x="313" y="0" type="line"/>
			<point x="466" y="386" type="line"/>
			<point x="419" y="75" type="line" smooth="yes"/>
			<point x="410" y="15"/>
			<point x="441" y="-13"/>
			<point x="479" y="-13" type="curve" smooth="yes"/>
			<point x="523" y="-13"/>
			<point x="550" y="15"/>
			<point x="589" y="79" type="curve"/>
			<point x="550" y="106" type="line"/>
			<point x="520" y="58"/>
			<point x="501" y="36"/>
			<point x="484" y="36" type="curve" smooth="yes"/>
			<point x="469" y="36"/>
			<point x="467" y="50"/>
			<point x="470" y="72" type="curve" smooth="yes"/>
			<point x="542" y="558" type="line"/>
			<point x="545" y="560"/>
			<point x="548" y="562"/>
			<point x="550" y="562" type="curve" smooth="yes"/>
			<point x="559" y="562"/>
			<point x="561" y="552"/>
			<point x="561" y="525" type="curve" smooth="yes"/>
			<point x="561" y="430" type="line"/>
			<point x="591" y="430" type="line"/>
			<point x="591" y="537" type="line"/>
			<point x="601" y="551"/>
			<point x="611" y="562"/>
			<point x="617" y="562" type="curve" smooth="yes"/>
			<point x="626" y="562"/>
			<point x="628" y="552"/>
			<point x="628" y="525" type="curve" smooth="yes"/>
			<point x="628" y="430" type="line"/>
			<point x="658" y="430" type="line"/>
			<point x="658" y="537" type="line"/>
			<point x="668" y="551"/>
			<point x="678" y="562"/>
			<point x="684" y="562" type="curve" smooth="yes"/>
			<point x="693" y="562"/>
			<point x="695" y="552"/>
			<point x="695" y="525" type="curve" smooth="yes"/>
			<point x="695" y="430" type="line"/>
			<point x="725" y="430" type="line"/>
			<point x="725" y="542" type="line" smooth="yes"/>
			<point x="725" y="573"/>
			<point x="709" y="591"/>
		</contour>
		<contour>
			<point x="903" y="498" type="line"/>
			<point x="903" y="505" type="line" smooth="yes"/>
			<point x="903" y="566"/>
			<point x="859" y="591"/>
			<point x="820" y="591" type="curve" smooth="yes"/>
			<point x="772" y="591"/>
			<point x="734" y="566"/>
			<point x="734" y="508" type="curve" smooth="yes"/>
			<point x="734" y="455"/>
			<point x="778" y="425"/>
			<point x="820" y="425" type="curve" smooth="yes"/>
			<point x="859" y="425"/>
			<point x="882" y="444"/>
			<point x="900" y="467" type="curve"/>
			<point x="877" y="486" type="line"/>
			<point x="855" y="459"/>
			<point x="840" y="455"/>
			<point x="820" y="455" type="curve" smooth="yes"/>
			<point x="798" y="455"/>
			<point x="772" y="470"/>
			<point x="767" y="498" type="curve"/>
		</contour>
		<contour>
			<point x="869" y="528" type="curve"/>
			<point x="767" y="528" type="line"/>
			<point x="772" y="551"/>
			<point x="792" y="561"/>
			<point x="820" y="561" type="curve" smooth="yes"/>
			<point x="842" y="561"/>
			<point x="866" y="548"/>
		</contour>
	</outline>
</glyph>
<glyph name="Th.duo" format="2">
	<advance width="900"/>
	<note>
		Th.duo
	</note>
	<outline>
		<contour>
			<point x="893" y="50" type="line"/>
			<point x="833" y="50" type="line"/>
			<point x="833" y="323" type="line" smooth="yes"/>
			<point x="833" y="408"/>
			<point x="752" y="445"/>
			<point x="703" y="445" type="curve" smooth="yes"/>
			<point x="635" y="445"/>
			<point x="596" y="398"/>
			<point x="525" y="321" type="curve"/>
			<point x="503" y="590" type="line"/>
			<point x="33" y="590" type="line"/>
			<point x="9" y="303" type="line"/>
			<point x="57" y="298" type="line"/>
			<point x="76" y="540" type="line"/>
			<point x="241" y="540" type="line"/>
			<point x="241" y="49" type="line"/>
			<point x="160" y="49" type="line"/>
			<point x="160" y="0" type="line"/>
			<point x="372" y="0" type="line"/>
			<point x="372" y="49" type="line"/>
			<point x="291" y="49" type="line"/>
			<point x="291" y="540" type="line"/>
			<point x="456" y="540" type="line"/>
			<point x="475" y="298" type="line"/>
			<point x="475" y="50" type="line"/>
			<point x="415" y="50" type="line"/>
			<point x="415" y="0" type="line"/>
			<point x="606" y="0" type="line"/>
			<point x="606" y="50" type="line"/>
			<point x="525" y="50" type="line"/>
			<point x="525" y="252" type="line"/>
			<point x="615" y="343"/>
			<point x="642" y="394"/>
			<point x="696" y="394" type="curve" smooth="yes"/>
			<point x="736" y="394"/>
			<point x="783" y="368"/>
			<point x="783" y="308" type="curve" smooth="yes"/>
			<point x="783" y="50" type="line"/>
			<point x="702" y="50" type="line"/>
			<point x="702" y="0" type="line"/>
			<point x="893" y="0" type="line"/>
		</contour>
	</outline>
</glyph>
<glyph name="W.duo" format="2">
	<advance width="900"/>
	<note>
		W.duo
	</note>
	<outline>
		<contour>
			<point x="883" y="540" type="line"/>
			<point x="883" y="590" type="line"/>
			<point x="683" y="590" type="line"/>
			<point x="683" y="540" type="line"/>
			<point x="755" y="540" type="line"/>
			<point x="628" y="45" type="line"/>
			<point x="494" y="590" type="line"/>
			<point x="406" y="590" type="line"/>
			<point x="272" y="45" type="line"/>
			<point x="145" y="540" type="line"/>
			<point x="217" y="540" type="line"/>
			<point x="217" y="590" type="line"/>
			<point x="17" y="590" type="line"/>
			<point x="17" y="540" type="line"/>
			<point x="95" y="540" type="line"/>
			<point x="228" y="0" type="line"/>
			<point x="310" y="0" type="line"/>
			<point x="450" y="544" type="line"/>
			<point x="590" y="0" type="line"/>
			<point x="672" y="0" type="line"/>
			<point x="805" y="540" type="line"/>
		</contour>
	</outline>
</glyph>
<glyph name="colon.duo" format="2">
	<advance width="300"/>
	<note>
		colon.duo
	</note>
	<outline>
		<contour>
			<point x="152" y="310" type="curve" smooth="yes"/>
			<point x="189" y="310"/>
			<point x="217" y="341"/>
			<point x="217" y="376" type="curve" smooth="yes"/>
			<point x="217" y="412"/>
			<point x="189" y="443"/>
			<point x="152" y="443" type="curve" smooth="yes"/>
			<point x="115" y="443"/>
			<point x="84" y="412"/>
			<point x="84" y="376" type="curve" smooth="yes"/>
			<point x="84" y="341"/>
			<point x="115" y="310"/>
		</contour>
		<contour>
			<point x="152" y="-13" type="curve" smooth="yes"/>
			<point x="189" y="-13"/>
			<point x="217" y="18"/>
			<point x="217" y="53" type="curve" smooth="yes"/>
			<point x="217" y="89"/>
			<point x="189" y="120"/>
			<point x="152" y="120" type="curve" smooth="yes"/>
			<point x="115" y="120"/>
			<point x="84" y="89"/>
			<point x="84" y="53" type="curve" smooth="yes"/>
			<point x="84" y="18"/>
			<point x="115" y="-13"/>
		</contour>
	</outline>
</glyph>
<glyph name="comma.duo" format="2">
	<advance width="300"/>
	<note>
		comma.duo
	</note>
	<outline>
		<contour>
			<point x="102" y="-13" type="curve" smooth="yes"/>
			<point x="152" y="-13"/>
			<point x="181" y="25"/>
			<point x="181" y="66" type="curve" smooth="yes"/>
			<point x="181" y="88"/>
			<point x="174" y="109"/>
			<point x="165" y="119" type="curve"/>
			<point x="185" y="109"/>
			<point x="206" y="80"/>
			<point x="206" y="30" type="curve" smooth="yes"/>
			<point x="206" y="-57"/>
			<point x="141" y="-111"/>
			<point x="55" y="-120" type="curve"/>
			<point x="69" y="-169" type="line"/>
			<point x="155" y="-160"/>
			<point x="253" y="-91"/>
			<point x="253" y="30" type="curve" smooth="yes"/>
			<point x="253" y="130"/>
			<point x="188" y="190"/>
			<point x="117" y="190" type="curve" smooth="yes"/>
			<point x="61" y="190"/>
			<point x="4" y="153"/>
			<point x="4" y="88" type="curve" smooth="yes"/>
			<point x="4" y="30"/>
			<point x="46" y="-13"/>
		</contour>
	</outline>
</glyph>
<glyph name="eight.dnom" format="2">
	<advance width="600"/>
	<note>
		eight.dnom
	</note>
	<outline>
		<contour>
			<point x="25" y="402" type="curve" smooth="yes"/>
			<point x="25" y="344"/>
			<point x="76" y="317"/>
			<point x="132" y="317" type="curve" smooth="yes"/>
			<point x="188" y="317"/>
			<point x="238" y="344"/>
			<point x="238" y="402" type="curve" smooth="yes"/>
			<point x="238" y="442"/>
			<point x="205" y="466"/>
			<point x="188" y="473" type="curve"/>
			<point x="206" y="480"/>
			<point x="225" y="495"/>
			<point x="225" y="529" type="curve" smooth="yes"/>
			<point x="225" y="567"/>
			<point x="193" y="603"/>
			<point x="133" y="603" type="curve" smooth="yes"/>
			<point x="70" y="603"/>
			<point x="38" y="568"/>
			<point x="38" y="529" type="curve" smooth="yes"/>
			<point x="38" y="495"/>
			<point x="63" y="477"/>
			<point x="77" y="473" type="curve"/>
			<point x="57" y="466"/>
			<point x="25" y="442"/>
		</contour>
		<contour>
			<point x="76" y="529" type="curve" smooth="yes"/>
			<point x="76" y="549"/>
			<point x="96" y="565"/>
			<point x="132" y="565" type="curve" smooth="yes"/>
			<point x="168" y="565"/>
			<point x="187" y="549"/>
			<point x="187" y="529" type="curve" smooth="yes"/>
			<point x="187" y="507"/>
			<point x="168" y="491"/>
			<point x="132" y="491" type="curve" smooth="yes"/>
			<point x="96" y="491"/>
			<point x="76" y="507"/>
		</contour>
		<contour>
			<point x="63" y="402" type="curve" smooth="yes"/>
			<point x="63" y="430"/>
			<point x="93" y="453"/>
			<point x="132" y="453" type="curve" smooth="yes"/>
			<point x="170" y="453"/>
			<point x="201" y="430"/>
			<point x="200" y="402" type="curve" smooth="yes"/>
			<point x="199" y="369"/>
			<point x="170" y="355"/>
			<point x="132" y="355" type="curve" smooth="yes"/>
			<point x="93" y="355"/>
			<point x="63" y="373"/>
		</contour>
	</outline>
</glyph>
<glyph name="ellipsis.duo" format="2">
	<advance width="900"/>
	<note>
		ellipsis.duo
	</note>
	<outline>
		<contour>
			<point x="158" y="-13" type="curve" smooth="yes"/>
			<point x="195" y="-13"/>
			<point x="223" y="18"/>
			<point x="223" y="53" type="curve" smooth="yes"/>
			<point x="223" y="89"/>
			<point x="195" y="120"/>
			<point x="158" y="120" type="curve" smooth="yes"/>
			<point x="121" y="120"/>
			<point x="90" y="89"/>
			<point x="90" y="53" type="curve" smooth="yes"/>
			<point x="90" y="18"/>
			<point x="121" y="-13"/>
		</contour>
		<contour>
			<point x="452" y="-13" type="curve" smooth="yes"/>
			<point x="489" y="-13"/>
			<point x="517" y="18"/>
			<point x="517" y="53" type="curve" smooth="yes"/>
			<point x="517" y="89"/>
			<point x="489" y="120"/>
			<point x="452" y="120" type="curve" smooth="yes"/>
			<point x="415" y="120"/>
			<point x="384" y="89"/>
			<point x="384" y="53" type="curve" smooth="yes"/>
			<point x="384" y="18"/>
			<point x="415" y="-13"/>
		</contour>
		<contour>
			<point x="745" y="-13" type="curve" smooth="yes"/>
			<point x="782" y="-13"/>
			<point x="810" y="18"/>
			<point x="810" y="53" type="curve" smooth="yes"/>
			<point x="810" y="89"/>
			<point x="782" y="120"/>
			<point x="745" y="120" type="curve" smooth="yes"/>
			<point x="708" y="120"/>
			<point x="677" y="89"/>
			<point x="677" y="53" type="curve" smooth="yes"/>
			<point x="677" y="18"/>
			<point x="708" y="-13"/>
		</contour>
	</outline>
</glyph>
<glyph name="endash.duo" format="2">
	<advance width="300"/>
	<note>
		endash.duo
	</note>
	<outline>
		<contour>
			<point x="280" y="271" type="line"/>
			<point x="20" y="271" type="line"/>
			<point x="20" y="211" type="line"/>
			<point x="280" y="211" type="line"/>
		</contour>
	</outline>
</glyph>
<glyph name="exclamdown.duo" format="2">
	<advance width="300"/>
	<note>
		exclamdown.duo
	</note>
	<outline>
		<contour>
			<point x="162" y="291" type="line"/>
			<point x="182" y="-98" type="line" smooth="yes"/>
			<point x="184" y="-139"/>
			<point x="182" y="-173"/>
			<point x="148" y="-173" type="curve" smooth="yes"/>
			<point x="112" y="-173"/>
			<point x="110" y="-140"/>
			<point x="112" y="-98" type="curve" smooth="yes"/>
			<point x="132" y="291" type="line"/>
		</contour>
		<contour>
			<point x="148" y="443" type="curve" smooth="yes"/>
			<point x="120" y="443"/>
			<point x="96" y="419"/>
			<point x="96" y="392" type="curve" smooth="yes"/>
			<point x="96" y="365"/>
			<point x="120" y="341"/>
			<point x="148" y="341" type="curve" smooth="yes"/>
			<point x="176" y="341"/>
			<point x="199" y="365"/>
			<point x="199" y="392" type="curve"/>
			<point x="199" y="419"/>
			<point x="176" y="443"/>
		</contour>
	</outline>
</glyph>
<glyph name="f14" format="2">
	<advance width="600"/>
	<note>
		f14
	</note>
	<outline>
		<contour>
			<point x="538" y="580" type="line"/>
			<point x="507" y="603" type="line"/>
			<point x="88" y="15" type="line"/>
			<point x="118" y="-9" type="line"/>
		</contour>
		<contour>
			<point x="155" y="360" type="line"/>
			<point x="61" y="360" type="line"/>
			<point x="61" y="325" type="line"/>
			<point x="265" y="325" type="line"/>
			<point x="265" y="360" type="line"/>
			<point x="190" y="360" type="line"/>
			<point x="190" y="590" type="line"/>
			<point x="149" y="590" type="line"/>
			<point x="117" y="538"/>
			<point x="94" y="507"/>
			<point x="44" y="465" type="curve"/>
			<point x="63" y="439" type="line"/>
			<point x="114" y="477"/>
			<point x="126" y="492"/>
			<point x="155" y="536" type="curve"/>
		</contour>
		<contour>
			<point x="555" y="29" type="line"/>
			<point x="555" y="62" type="line"/>
			<point x="486" y="62" type="line"/>
			<point x="487" y="188" type="line"/>
			<point x="454" y="188" type="line"/>
			<point x="453" y="62" type="line"/>
			<point x="331" y="62" type="line"/>
			<point x="387" y="136"/>
			<point x="418" y="192"/>
			<point x="436" y="262" type="curve"/>
			<point x="407" y="270" type="line"/>
			<point x="384" y="192"/>
			<point x="349" y="139"/>
			<point x="290" y="62" type="curve"/>
			<point x="290" y="29" type="line"/>
			<point x="452" y="29" type="line"/>
			<point x="452" y="-13" type="line"/>
			<point x="486" y="-13" type="line"/>
			<point x="486" y="29" type="line"/>
		</contour>
	</outline>
</glyph>
<glyph name="f34" format="2">
	<advance width="600"/>
	<note>
		f34
	</note>
	<outline>
		<contour>
			<point x="533" y="580" type="line"/>
			<point x="502" y="603" type="line"/>
			<point x="83" y="15" type="line"/>
			<point x="113" y="-9" type="line"/>
		</contour>
		<contour>
			<point x="280" y="409" type="curve" smooth="yes"/>
			<point x="280" y="467"/>
			<point x="232" y="500"/>
			<point x="201" y="500" type="curve"/>
			<point x="272" y="563" type="line"/>
			<point x="272" y="590" type="line"/>
			<point x="67" y="590" type="line"/>
			<point x="48" y="503" type="line"/>
			<point x="86" y="498" type="line"/>
			<point x="98" y="552" type="line"/>
			<point x="212" y="552" type="line"/>
			<point x="113" y="472" type="line"/>
			<point x="141" y="449" type="line"/>
			<point x="162" y="467" type="line"/>
			<point x="205" y="473"/>
			<point x="242" y="451"/>
			<point x="242" y="409" type="curve" smooth="yes"/>
			<point x="242" y="373"/>
			<point x="202" y="352"/>
			<point x="167" y="352" type="curve" smooth="yes"/>
			<point x="115" y="352"/>
			<point x="94" y="367"/>
			<point x="87" y="383" type="curve"/>
			<point x="96" y="379"/>
			<point x="114" y="388"/>
			<point x="114" y="405" type="curve" smooth="yes"/>
			<point x="114" y="422"/>
			<point x="102" y="433"/>
			<point x="83" y="433" type="curve" smooth="yes"/>
			<point x="61" y="433"/>
			<point x="48" y="414"/>
			<point x="48" y="393" type="curve" smooth="yes"/>
			<point x="48" y="348"/>
			<point x="107" y="314"/>
			<point x="167" y="314" type="curve" smooth="yes"/>
			<point x="220" y="314"/>
			<point x="280" y="353"/>
		</contour>
		<contour>
			<point x="547" y="29" type="line"/>
			<point x="547" y="62" type="line"/>
			<point x="478" y="62" type="line"/>
			<point x="479" y="188" type="line"/>
			<point x="446" y="188" type="line"/>
			<point x="445" y="62" type="line"/>
			<point x="323" y="62" type="line"/>
			<point x="379" y="136"/>
			<point x="410" y="192"/>
			<point x="428" y="262" type="curve"/>
			<point x="399" y="270" type="line"/>
			<point x="376" y="192"/>
			<point x="341" y="139"/>
			<point x="282" y="62" type="curve"/>
			<point x="282" y="29" type="line"/>
			<point x="444" y="29" type="line"/>
			<point x="444" y="-13" type="line"/>
			<point x="478" y="-13" type="line"/>
			<point x="478" y="29" type="line"/>
		</contour>
	</outline>
</glyph>
<glyph name="f58" format="2">
	<advance width="600"/>
	<note>
		f58
	</note>
	<outline>
		<contour>
			<point x="109" y="-9" type="line"/>
			<point x="529" y="580" type="line"/>
			<point x="498" y="603" type="line"/>
			<point x="79" y="15" type="line"/>
		</contour>
		<contour>
			<point x="237" y="413" type="curve" smooth="yes"/>
			<point x="237" y="458"/>
			<point x="200" y="473"/>
			<point x="168" y="473" type="curve" smooth="yes"/>
			<point x="130" y="473"/>
			<point x="106" y="461"/>
			<point x="87" y="450" type="curve"/>
			<point x="63" y="465" type="line"/>
			<point x="78" y="590" type="line"/>
			<point x="251" y="590" type="line"/>
			<point x="251" y="557" type="line"/>
			<point x="107" y="557" type="line"/>
			<point x="97" y="491" type="line"/>
			<point x="113" y="500"/>
			<point x="131" y="505"/>
			<point x="168" y="505" type="curve" smooth="yes"/>
			<point x="221" y="505"/>
			<point x="270" y="470"/>
			<point x="270" y="413" type="curve" smooth="yes"/>
			<point x="270" y="354"/>
			<point x="219" y="316"/>
			<point x="159" y="316" type="curve" smooth="yes"/>
			<point x="104" y="316"/>
			<point x="51" y="346"/>
			<point x="51" y="394" type="curve" smooth="yes"/>
			<point x="51" y="414"/>
			<point x="65" y="429"/>
			<point x="80" y="429" type="curve" smooth="yes"/>
			<point x="98" y="429"/>
			<point x="109" y="419"/>
			<point x="109" y="404" type="curve" smooth="yes"/>
			<point x="109" y="389"/>
			<point x="93" y="378"/>
			<point x="84" y="384" type="curve"/>
			<point x="87" y="366"/>
			<point x="113" y="349"/>
			<point x="160" y="349" type="curve" smooth="yes"/>
			<point x="202" y="349"/>
			<point x="237" y="370"/>
		</contour>
		<contour>
			<point x="346" y="71" type="curve" smooth="yes"/>
			<point x="346" y="24"/>
			<point x="392" y="-13"/>
			<point x="448" y="-13" type="curve" smooth="yes"/>
			<point x="504" y="-13"/>
			<point x="549" y="24"/>
			<point x="549" y="71" type="curve" smooth="yes"/>
			<point x="549" y="101"/>
			<point x="530" y="127"/>
			<point x="504" y="142" type="curve"/>
			<point x="525" y="155"/>
			<point x="536" y="176"/>
			<point x="536" y="198" type="curve" smooth="yes"/>
			<point x="536" y="236"/>
			<point x="499" y="267"/>
			<point x="449" y="267" type="curve" smooth="yes"/>
			<point x="396" y="267"/>
			<point x="360" y="236"/>
			<point x="360" y="198" type="curve" smooth="yes"/>
			<point x="360" y="169"/>
			<point x="371" y="153"/>
			<point x="393" y="142" type="curve"/>
			<point x="364" y="127"/>
			<point x="346" y="101"/>
		</contour>
		<contour>
			<point x="392" y="198" type="curve" smooth="yes"/>
			<point x="392" y="218"/>
			<point x="414" y="235"/>
			<point x="448" y="235" type="curve" smooth="yes"/>
			<point x="482" y="235"/>
			<point x="503" y="218"/>
			<point x="503" y="198" type="curve" smooth="yes"/>
			<point x="503" y="176"/>
			<point x="482" y="160"/>
			<point x="448" y="160" type="curve" smooth="yes"/>
			<point x="414" y="160"/>
			<point x="392" y="176"/>
		</contour>
		<contour>
			<point x="379" y="71" type="curve" smooth="yes"/>
			<point x="379" y="101"/>
			<point x="409" y="122"/>
			<point x="448" y="122" type="curve" smooth="yes"/>
			<point x="486" y="122"/>
			<point x="517" y="101"/>
			<point x="516" y="71" type="curve" smooth="yes"/>
			<point x="515" y="36"/>
			<point x="486" y="21"/>
			<point x="448" y="21" type="curve" smooth="yes"/>
			<point x="409" y="21"/>
			<point x="379" y="40"/>
		</contour>
	</outline>
</glyph>
<glyph name="fb.duo" format="2">
	<advance width="900"/>
	<note>
		fb.duo
	</note>
	<outline>
		<contour>
			<point x="58" y="50" type="line"/>
			<point x="58" y="0" type="line"/>
			<point x="268" y="0" type="line"/>
			<point x="268" y="50" type="line"/>
			<point x="188" y="50" type="line"/>
			<point x="188" y="380" type="line"/>
			<point x="353" y="380" type="line"/>
			<point x="353" y="430" type="line"/>
			<point x="190" y="430" type="line"/>
			<point x="199" y="507"/>
			<point x="250" y="553"/>
			<point x="332" y="553" type="curve" smooth="yes"/>
			<point x="423" y="553" type="line"/>
			<point x="423" y="0" type="line"/>
			<point x="473" y="0" type="line"/>
			<point x="473" y="85" type="line"/>
			<point x="512" y="37"/>
			<point x="567" y="-13"/>
			<point x="635" y="-13" type="curve" smooth="yes"/>
			<point x="758" y="-13"/>
			<point x="848" y="89"/>
			<point x="848" y="215" type="curve" smooth="yes"/>
			<point x="848" y="343"/>
			<point x="758" y="443"/>
			<point x="635" y="443" type="curve" smooth="yes"/>
			<point x="566" y="443"/>
			<point x="512" y="393"/>
			<point x="473" y="345" type="curve"/>
			<point x="473" y="603" type="line"/>
			<point x="333" y="603" type="line" smooth="yes"/>
			<point x="229" y="603"/>
			<point x="151" y="537"/>
			<point x="140" y="430" type="curve"/>
			<point x="58" y="430" type="line"/>
			<point x="58" y="380" type="line"/>
			<point x="138" y="380" type="line"/>
			<point x="138" y="50" type="line"/>
		</contour>
		<contour>
			<point x="473" y="156" type="curve"/>
			<point x="473" y="274" type="line"/>
			<point x="528" y="332"/>
			<point x="566" y="395"/>
			<point x="634" y="394" type="curve" smooth="yes"/>
			<point x="730" y="393"/>
			<point x="797" y="315"/>
			<point x="797" y="217" type="curve" smooth="yes"/>
			<point x="797" y="215" type="line" smooth="yes"/>
			<point x="798" y="117"/>
			<point x="731" y="38"/>
			<point x="634" y="38" type="curve" smooth="yes"/>
			<point x="569" y="38"/>
			<point x="528" y="98"/>
		</contour>
	</outline>
</glyph>
<glyph name="ff.duo" format="2">
	<advance width="900"/>
	<note>
		ff.duo
	</note>
	<outline>
		<contour>
			<point x="668" y="603" type="curve" smooth="yes"/>
			<point x="604" y="603"/>
			<point x="552" y="575"/>
			<point x="518" y="532" type="curve"/>
			<point x="485" y="573"/>
			<point x="426" y="603"/>
			<point x="362" y="603" type="curve" smooth="yes"/>
			<point x="257" y="603"/>
			<point x="183" y="527"/>
			<point x="171" y="430" type="curve"/>
			<point x="86" y="430" type="line"/>
			<point x="86" y="379" type="line"/>
			<point x="169" y="379" type="line"/>
			<point x="169" y="50" type="line"/>
			<point x="86" y="50" type="line"/>
			<point x="86" y="0" type="line"/>
			<point x="303" y="0" type="line"/>
			<point x="303" y="50" type="line"/>
			<point x="220" y="50" type="line"/>
			<point x="220" y="379" type="line"/>
			<point x="343" y="379" type="line"/>
			<point x="343" y="430" type="line"/>
			<point x="222" y="430" type="line"/>
			<point x="232" y="498"/>
			<point x="276" y="557"/>
			<point x="361" y="557" type="curve" smooth="yes"/>
			<point x="436" y="557"/>
			<point x="484" y="509"/>
			<point x="490" y="483" type="curve"/>
			<point x="484" y="467"/>
			<point x="479" y="449"/>
			<point x="477" y="430" type="curve"/>
			<point x="392" y="430" type="line"/>
			<point x="392" y="379" type="line"/>
			<point x="475" y="379" type="line"/>
			<point x="475" y="50" type="line"/>
			<point x="392" y="50" type="line"/>
			<point x="392" y="0" type="line"/>
			<point x="609" y="0" type="line"/>
			<point x="609" y="50" type="line"/>
			<point x="526" y="50" type="line"/>
			<point x="526" y="379" type="line"/>
			<point x="679" y="379" type="line"/>
			<point x="679" y="430" type="line"/>
			<point x="528" y="430" type="line"/>
			<point x="538" y="498"/>
			<point x="582" y="557"/>
			<point x="667" y="557" type="curve" smooth="yes"/>
			<point x="747" y="557"/>
			<point x="796" y="503"/>
			<point x="797" y="479" type="curve"/>
			<point x="775" y="497"/>
			<point x="733" y="475"/>
			<point x="733" y="442" type="curve" smooth="yes"/>
			<point x="733" y="409"/>
			<point x="759" y="386"/>
			<point x="792" y="386" type="curve" smooth="yes"/>
			<point x="824" y="386"/>
			<point x="850" y="414"/>
			<point x="850" y="461" type="curve" smooth="yes"/>
			<point x="850" y="542"/>
			<point x="763" y="603"/>
		</contour>
	</outline>
</glyph>
<glyph name="five.numr" format="2">
	<advance width="600"/>
	<note>
		five.numr
	</note>
	<outline>
		<contour>
			<point x="202" y="83" type="curve" smooth="yes"/>
			<point x="202" y="125"/>
			<point x="166" y="144"/>
			<point x="139" y="144" type="curve" smooth="yes"/>
			<point x="111" y="144"/>
			<point x="88" y="134"/>
			<point x="69" y="123" type="curve"/>
			<point x="37" y="139" type="line"/>
			<point x="48" y="261" type="line"/>
			<point x="221" y="261" type="line"/>
			<point x="221" y="223" type="line"/>
			<point x="81" y="223" type="line"/>
			<point x="75" y="165" type="line"/>
			<point x="86" y="176"/>
			<point x="113" y="182"/>
			<point x="140" y="182" type="curve" smooth="yes"/>
			<point x="195" y="182"/>
			<point x="240" y="141"/>
			<point x="240" y="83" type="curve" smooth="yes"/>
			<point x="240" y="24"/>
			<point x="183" y="-13"/>
			<point x="131" y="-13" type="curve" smooth="yes"/>
			<point x="75" y="-13"/>
			<point x="25" y="16"/>
			<point x="25" y="60" type="curve" smooth="yes"/>
			<point x="25" y="82"/>
			<point x="38" y="99"/>
			<point x="56" y="99" type="curve" smooth="yes"/>
			<point x="73" y="99"/>
			<point x="86" y="90"/>
			<point x="86" y="73" type="curve" smooth="yes"/>
			<point x="86" y="56"/>
			<point x="74" y="48"/>
			<point x="63" y="50" type="curve"/>
			<point x="66" y="42"/>
			<point x="84" y="25"/>
			<point x="131" y="25" type="curve" smooth="yes"/>
			<point x="161" y="25"/>
			<point x="202" y="43"/>
		</contour>
	</outline>
</glyph>
<glyph name="five.osf" format="2">
	<advance width="600"/>
	<note>
		five.osf
	</note>
	<outline>
		<contour>
			<point x="321" y="241" type="curve" smooth="yes"/>
			<point x="246" y="241"/>
			<point x="194" y="208"/>
			<point x="153" y="183" type="curve"/>
			<point x="107" y="208" type="line"/>
			<point x="149" y="493" type="line"/>
			<point x="499" y="493" type="line"/>
			<point x="499" y="443" type="line"/>
			<point x="192" y="443" type="line"/>
			<point x="163" y="245" type="line"/>
			<point x="200" y="265"/>
			<point x="239" y="291"/>
			<point x="321" y="291" type="curve" smooth="yes"/>
			<point x="433" y="291"/>
			<point x="523" y="233"/>
			<point x="523" y="91" type="curve" smooth="yes"/>
			<point x="523" y="-97"/>
			<point x="220" y="-173"/>
			<point x="75" y="-173" type="curve"/>
			<point x="75" y="-123" type="line"/>
			<point x="204" y="-123"/>
			<point x="473" y="-51"/>
			<point x="473" y="92" type="curve" smooth="yes"/>
			<point x="473" y="202"/>
			<point x="399" y="241"/>
		</contour>
	</outline>
</glyph>
<glyph name="four.dnom" format="2">
	<advance width="600"/>
	<note>
		four.dnom
	</note>
	<outline>
		<contour>
			<point x="290" y="387" type="line"/>
			<point x="290" y="425" type="line"/>
			<point x="227" y="425" type="line"/>
			<point x="227" y="521" type="line"/>
			<point x="189" y="521" type="line"/>
			<point x="188" y="425" type="line"/>
			<point x="77" y="425" type="line"/>
			<point x="131" y="480"/>
			<point x="162" y="527"/>
			<point x="179" y="595" type="curve"/>
			<point x="142" y="603" type="line"/>
			<point x="119" y="525"/>
			<point x="84" y="482"/>
			<point x="25" y="425" type="curve"/>
			<point x="25" y="387" type="line"/>
			<point x="188" y="387" type="line"/>
			<point x="187" y="320" type="line"/>
			<point x="226" y="320" type="line"/>
			<point x="226" y="387" type="line"/>
		</contour>
	</outline>
</glyph>
<glyph name="four.osf" format="2">
	<advance width="600"/>
	<note>
		four.osf
	</note>
	<outline>
		<contour>
			<point x="559" y="40" type="line"/>
			<point x="559" y="90" type="line"/>
			<point x="404" y="90" type="line"/>
			<point x="404" y="326" type="line"/>
			<point x="354" y="326" type="line"/>
			<point x="354" y="90" type="line"/>
			<point x="98" y="90" type="line"/>
			<point x="212" y="238"/>
			<point x="277" y="345"/>
			<point x="313" y="485" type="curve"/>
			<point x="265" y="494" type="line"/>
			<point x="219" y="337"/>
			<point x="155" y="246"/>
			<point x="35" y="90" type="curve"/>
			<point x="35" y="40" type="line"/>
			<point x="354" y="40" type="line"/>
			<point x="354" y="-173" type="line"/>
			<point x="404" y="-173" type="line"/>
			<point x="404" y="40" type="line"/>
		</contour>
	</outline>
</glyph>
<glyph name="ft" format="2">
	<advance width="600"/>
	<note>
		ft
	</note>
	<outline>
		<contour>
			<point x="14" y="430" type="line"/>
			<point x="14" y="380" type="line"/>
			<point x="98" y="380" type="line"/>
			<point x="98" y="50" type="line"/>
			<point x="15" y="50" type="line"/>
			<point x="15" y="0" type="line"/>
			<point x="231" y="0" type="line"/>
			<point x="231" y="50" type="line"/>
			<point x="148" y="50" type="line"/>
			<point x="148" y="380" type="line"/>
			<point x="281" y="380" type="line"/>
			<point x="281" y="430" type="line"/>
			<point x="150" y="430" type="line"/>
			<point x="159" y="507"/>
			<point x="210" y="553"/>
			<point x="292" y="553" type="curve" smooth="yes"/>
			<point x="353" y="553" type="line"/>
			<point x="353" y="92" type="line" smooth="yes"/>
			<point x="353" y="0"/>
			<point x="402" y="-13"/>
			<point x="440" y="-13" type="curve" smooth="yes"/>
			<point x="492" y="-13"/>
			<point x="532" y="39"/>
			<point x="562" y="87" type="curve" smooth="yes"/>
			<point x="586" y="126" type="line"/>
			<point x="543" y="150" type="line"/>
			<point x="533" y="134" type="line" smooth="yes"/>
			<point x="498" y="77"/>
			<point x="468" y="37"/>
			<point x="440" y="37" type="curve" smooth="yes"/>
			<point x="423" y="37"/>
			<point x="403" y="43"/>
			<point x="403" y="92" type="curve" smooth="yes"/>
			<point x="403" y="380" type="line"/>
			<point x="528" y="380" type="line"/>
			<point x="528" y="430" type="line"/>
			<point x="403" y="430" type="line"/>
			<point x="403" y="603" type="line"/>
			<point x="293" y="603" type="line" smooth="yes"/>
			<point x="189" y="603"/>
			<point x="111" y="537"/>
			<point x="100" y="430" type="curve"/>
		</contour>
	</outline>
</glyph>
<glyph name="guilsinglleft.duo" format="2">
	<advance width="300"/>
	<note>
		guilsinglleft.duo
	</note>
	<outline>
		<contour>
			<point x="85" y="252" type="curve"/>
			<point x="159" y="286"/>
			<point x="225" y="326"/>
			<point x="270" y="413" type="curve"/>
			<point x="235" y="441" type="line"/>
			<point x="188" y="354"/>
			<point x="97" y="298"/>
			<point x="30" y="270" type="curve"/>
			<point x="30" y="234" type="line"/>
			<point x="97" y="206"/>
			<point x="188" y="150"/>
			<point x="235" y="63" type="curve"/>
			<point x="270" y="91" type="line"/>
			<point x="225" y="178"/>
			<point x="159" y="218"/>
		</contour>
	</outline>
</glyph>
<glyph name="hyphen.duo" format="2">
	<advance width="300"/>
	<note>
		hyphen.duo
	</note>
	<outline>
		<contour>
			<point x="290" y="271" type="line"/>
			<point x="10" y="271" type="line"/>
			<point x="10" y="211" type="line"/>
			<point x="290" y="211" type="line"/>
		</contour>
	</outline>
</glyph>
<glyph name="iacute.duo" format="2">
	<advance width="300"/>
	<note>
		iacute.duo
	</note>
	<outline>
		<contour>
			<point x="254" y="580" type="line"/>
			<point x="31" y="498" type="line"/>
			<point x="40" y="472" type="line"/>
			<point x="268" y="539" type="line"/>
		</contour>
		<contour>
			<point x="266" y="50" type="line"/>
			<point x="175" y="50" type="line"/>
			<point x="175" y="430" type="line"/>
			<point x="125" y="430" type="line"/>
			<point x="125" y="50" type="line"/>
			<point x="34" y="50" type="line"/>
			<point x="34" y="0" type="line"/>
			<point x="266" y="0" type="line"/>
		</contour>
	</outline>
</glyph>
<glyph name="igrave.duo" format="2">
	<advance width="300"/>
	<note>
		igrave.duo
	</note>
	<outline>
		<contour>
			<point x="259" y="472" type="line"/>
			<point x="268" y="498" type="line"/>
			<point x="45" y="580" type="line"/>
			<point x="31" y="539" type="line"/>
		</contour>
		<contour>
			<point x="266" y="50" type="line"/>
			<point x="175" y="50" type="line"/>
			<point x="175" y="430" type="line"/>
			<point x="125" y="430" type="line"/>
			<point x="125" y="50" type="line"/>
			<point x="34" y="50" type="line"/>
			<point x="34" y="0" type="line"/>
			<point x="266" y="0" type="line"/>
		</contour>
	</outline>
</glyph>
<glyph name="j.duo" format="2">
	<advance width="300"/>
	<note>
		j.duo
	</note>
	<outline>
		<contour>
			<point x="205" y="467" type="curve" smooth="yes"/>
			<point x="233" y="467"/>
			<point x="257" y="491"/>
			<point x="257" y="519" type="curve" smooth="yes"/>
			<point x="257" y="547"/>
			<point x="233" y="571"/>
			<point x="205" y="571" type="curve" smooth="yes"/>
			<point x="176" y="571"/>
			<point x="152" y="547"/>
			<point x="152" y="519" type="curve" smooth="yes"/>
			<point x="152" y="491"/>
			<point x="176" y="467"/>
		</contour>
		<contour>
			<point x="189" y="443" type="curve" smooth="yes"/>
			<point x="157" y="443"/>
			<point x="138" y="423"/>
			<point x="108" y="379" type="curve" smooth="yes"/>
			<point x="97" y="363" type="line"/>
			<point x="140" y="339" type="line"/>
			<point x="170" y="381"/>
			<point x="178" y="393"/>
			<point x="189" y="393" type="curve" smooth="yes"/>
			<point x="201" y="393"/>
			<point x="207" y="385"/>
			<point x="207" y="358" type="curve" smooth="yes"/>
			<point x="207" y="26" type="line" smooth="yes"/>
			<point x="207" y="-77"/>
			<point x="190" y="-122"/>
			<point x="142" y="-129" type="curve"/>
			<point x="151" y="-121"/>
			<point x="155" y="-110"/>
			<point x="155" y="-97" type="curve" smooth="yes"/>
			<point x="155" y="-84"/>
			<point x="142" y="-60"/>
			<point x="116" y="-60" type="curve" smooth="yes"/>
			<point x="85" y="-60"/>
			<point x="66" y="-77"/>
			<point x="66" y="-114" type="curve" smooth="yes"/>
			<point x="66" y="-147"/>
			<point x="95" y="-173"/>
			<point x="134" y="-173" type="curve" smooth="yes"/>
			<point x="230" y="-173"/>
			<point x="257" y="-107"/>
			<point x="257" y="26" type="curve" smooth="yes"/>
			<point x="257" y="351" type="line" smooth="yes"/>
			<point x="257" y="425"/>
			<point x="225" y="443"/>
		</contour>
	</outline>
</glyph>
<glyph name="l.duo" format="2">
	<advance width="300"/>
	<note>
		l.duo
	</note>
	<outline>
		<contour>
			<point x="272" y="50" type="line"/>
			<point x="181" y="50" type="line"/>
			<point x="181" y="590" type="line"/>
			<point x="40" y="590" type="line"/>
			<point x="40" y="540" type="line"/>
			<point x="131" y="540" type="line"/>
			<point x="131" y="50" type="line"/>
			<point x="40" y="50" type="line"/>
			<point x="40" y="0" type="line"/>
			<point x="272" y="0" type="line"/>
		</contour>
	</outline>
</glyph>
<glyph name="lslash.duo" format="2">
	<advance width="300"/>
	<note>
		lslash.duo
	</note>
	<outline>
		<contour>
			<point x="190" y="281" type="line"/>
			<point x="281" y="325" type="line"/>
			<point x="281" y="375" type="line"/>
			<point x="190" y="331" type="line"/>
			<point x="190" y="590" type="line"/>
			<point x="49" y="590" type="line"/>
			<point x="49" y="541" type="line"/>
			<point x="140" y="541" type="line"/>
			<point x="140" y="308" type="line"/>
			<point x="49" y="264" type="line"/>
			<point x="49" y="214" type="line"/>
			<point x="140" y="258" type="line"/>
			<point x="140" y="49" type="line"/>
			<point x="49" y="49" type="line"/>
			<point x="49" y="0" type="line"/>
			<point x="281" y="0" type="line"/>
			<point x="281" y="49" type="line"/>
			<point x="190" y="49" type="line"/>
		</contour>
	</outline>
</glyph>
<glyph name="nine.osf" format="2">
	<advance width="600"/>
	<note>
		nine.osf
	</note>
	<outline>
		<contour>
			<point x="339" y="495" type="curve" smooth="yes"/>
			<point x="217" y="495"/>
			<point x="130" y="420"/>
			<point x="130" y="317" type="curve" smooth="yes"/>
			<point x="130" y="203"/>
			<point x="219" y="131"/>
			<point x="328" y="131" type="curve" smooth="yes"/>
			<point x="402" y="131"/>
			<point x="483" y="169"/>
			<point x="524" y="232" type="curve"/>
			<point x="516" y="53"/>
			<point x="287" y="-71"/>
			<point x="131" y="-71" type="curve"/>
			<point x="131" y="-121" type="line"/>
			<point x="306" y="-121"/>
			<point x="573" y="11"/>
			<point x="573" y="240" type="curve" smooth="yes"/>
			<point x="573" y="403"/>
			<point x="472" y="495"/>
		</contour>
		<contour>
			<point x="328" y="181" type="curve" smooth="yes"/>
			<point x="248" y="181"/>
			<point x="180" y="232"/>
			<point x="180" y="316" type="curve" smooth="yes"/>
			<point x="180" y="394"/>
			<point x="248" y="446"/>
			<point x="339" y="446" type="curve" smooth="yes"/>
			<point x="427" y="446"/>
			<point x="498" y="398"/>
			<point x="518" y="300" type="curve"/>
			<point x="479" y="230"/>
			<point x="396" y="181"/>
		</contour>
	</outline>
</glyph>
<glyph name="one.duo" format="2">
	<advance width="300"/>
	<note>
		one.duo
	</note>
	<outline>
		<contour>
			<point x="14" y="380" type="curve"/>
			<point x="49" y="348" type="line"/>
			<point x="120" y="422"/>
			<point x="151" y="465"/>
			<point x="170" y="524" type="curve"/>
			<point x="170" y="50" type="line"/>
			<point x="49" y="50" type="line"/>
			<point x="49" y="0" type="line"/>
			<point x="286" y="0" type="line"/>
			<point x="286" y="50" type="line"/>
			<point x="220" y="50" type="line"/>
			<point x="220" y="590" type="line"/>
			<point x="150" y="590" type="line"/>
			<point x="129" y="518"/>
			<point x="72" y="438"/>
		</contour>
	</outline>
</glyph>
<glyph name="one.numr" format="2">
	<advance width="600"/>
	<note>
		one.numr
	</note>
	<outline>
		<contour>
			<point x="181" y="37" type="line"/>
			<point x="181" y="267" type="line"/>
			<point x="138" y="267" type="line"/>
			<point x="109" y="209"/>
			<point x="83" y="177"/>
			<point x="25" y="133" type="curve"/>
			<point x="47" y="108" type="line"/>
			<point x="102" y="146"/>
			<point x="120" y="163"/>
			<point x="144" y="202" type="curve"/>
			<point x="144" y="37" type="line"/>
			<point x="45" y="37" type="line"/>
			<point x="45" y="0" type="line"/>
			<point x="249" y="0" type="line"/>
			<point x="249" y="37" type="line"/>
		</contour>
	</outline>
</glyph>
<glyph name="one.osf.duo" format="2">
	<advance width="300"/>
	<note>
		one.osf.duo
	</note>
	<outline>
		<contour>
			<point x="54" y="323" type="curve"/>
			<point x="20" y="360" type="line"/>
			<point x="75" y="402"/>
			<point x="162" y="521"/>
			<point x="186" y="590" type="curve"/>
			<point x="256" y="590" type="line"/>
			<point x="256" y="0" type="line"/>
			<point x="206" y="0" type="line"/>
			<point x="206" y="515" type="line"/>
			<point x="177" y="450"/>
			<point x="105" y="361"/>
		</contour>
	</outline>
</glyph>
